<?xml version="1.0" encoding="utf-8"?>
<!-- Generator: Adobe Illustrator 24.1.0, SVG Export Plug-In . SVG Version: 6.00 Build 0)  -->
<svg version="1.1" id="Calque_1" xmlns="http://www.w3.org/2000/svg" xmlns:xlink="http://www.w3.org/1999/xlink" x="0px" y="0px"
	 viewBox="0 0 425.2 156.5" style="enable-background:new 0 0 425.2 156.5;" xml:space="preserve">
<style type="text/css">
	.st0{fill:none;}
	.st1{opacity:0.5;enable-background:new    ;}
	.st2{fill:#FFFFFF;}
	.st3{enable-background:new    ;}
</style>
<g id="Calque_2_1_">
</g>
<g id="Calque_1_1_">
</g>
<g id="Calque_4">
	<rect x="14.4" y="16.6" class="st0" width="396.5" height="123.3"/>
	<g class="st1">
		<path class="st2" d="M87.4,31.2c0,3.4-1,6.4-3,9.1c-2,2.7-4.6,4.5-7.8,5.5c2.2,2.7,3.3,5.9,3.3,9.5c0,4.1-1.5,7.6-4.4,10.5
			c-3,2.9-6.5,4.4-10.6,4.5v30c0,4.1-1.5,7.6-4.4,10.6c-3,3-6.5,4.4-10.6,4.4c-4.1,0-7.6-1.5-10.6-4.4c-3-2.9-4.4-6.5-4.4-10.6v-69
			c0-4.2,1.5-7.7,4.4-10.7c2.9-2.9,6.5-4.3,10.6-4.3h1.8h20.7c4.1,0,7.6,1.5,10.6,4.4C85.9,23.6,87.4,27.1,87.4,31.2z M57.4,54.5
			c0,2,0.7,3.8,2.2,5.2c1.4,1.5,3.2,2.2,5.3,2.2c2,0,3.8-0.8,5.2-2.2s2.2-3.2,2.2-5.2c0-2.1-0.8-3.9-2.2-5.3
			c-1.5-1.4-3.3-2.2-5.2-2.2c-2.1,0-3.9,0.7-5.3,2.2C58.1,50.6,57.4,52.4,57.4,54.5z"/>
		<path class="st2" d="M132.4,40.2c4.2,0,7.8,1.5,10.7,4.4c2.9,3,4.4,6.5,4.4,10.6c0,4.2-1.5,7.8-4.4,10.7c-3,3-6.5,4.4-10.7,4.4
			c-2.6,0-5.1-0.6-7.4-2v31.8c0,4.2-1.5,7.8-4.4,10.7c-3,3-6.5,4.4-10.7,4.4c-4.1,0-7.6-1.5-10.6-4.4c-3-2.9-4.4-6.5-4.4-10.7v-45
			c0-4.1,1.5-7.6,4.4-10.6c2.9-2.9,6.5-4.4,10.6-4.4c4.6,0,8.3,1.7,11.2,5.1C124.3,42,128,40.2,132.4,40.2z M125.1,55.2
			c0,2.1,0.7,3.9,2.2,5.3c1.4,1.5,3.2,2.2,5.2,2.2c2.1,0,3.9-0.7,5.3-2.2c1.4-1.4,2.2-3.2,2.2-5.3c0-2-0.7-3.7-2.2-5.2
			c-1.5-1.4-3.2-2.2-5.3-2.2c-2,0-3.7,0.7-5.2,2.2C125.8,51.5,125.1,53.3,125.1,55.2z"/>
	</g>
	<g class="st3">
		<path class="st2" d="M192.5,16.2c2,0,3.8,0.7,5.2,2.2c1.5,1.5,2.2,3.2,2.2,5.3l-0.1,99c0,2.1-0.8,3.9-2.2,5.3
			c-1.5,1.4-3.3,2.2-5.2,2.2c-2,0-3.8-0.7-5.2-2.2c-1.5-1.5-2.2-3.2-2.2-5.3l0.1-99c0-2.1,0.7-3.9,2.2-5.3
			C188.6,17,190.4,16.2,192.5,16.2z"/>
	</g>
	<g class="st3">
		<path class="st2" d="M291.7,77.7c4.3,0,7.9,1.5,10.7,4.6c2.8,3.1,4.3,6.6,4.3,10.7c0,2.9-0.7,5.5-2.1,7.7
			c-3.4,4.5-7.7,8.1-12.9,10.6c-5.2,2.6-10.8,3.9-16.8,3.9c-10.4,0-19.3-3.6-26.5-11c-7.3-7.3-11-16.1-11-26.5
			c0-10.4,3.6-19.2,11-26.5c7.3-7.3,16.1-11,26.5-11c10.4,0,19.2,3.7,26.5,11c7.3,7.3,11,16.2,11,26.5c0,3.6-0.5,7-1.3,10.3
			c-0.8-2.7-1.8-5-3-7c-2.9-5.3-7.3-7.9-13.2-7.9c-1.7,0-3.6,0.4-5.7,1.1c-2.9,1.2-5.2,2.5-6.8,3.9v-0.3c0-2.1-0.7-3.9-2.2-5.3
			c-1.5-1.4-3.2-2.2-5.3-2.2c-2.1,0-3.9,0.7-5.3,2.2c-1.5,1.5-2.2,3.2-2.2,5.3c0,2.1,0.7,3.9,2.2,5.3c1.4,1.5,3.2,2.2,5.3,2.2
			c2.4,0,4.3-0.8,5.7-2.5c1-1,2-1.8,3.2-2.5c0.5-0.4,1.5-0.9,3.1-1.6C288.6,78,290.2,77.7,291.7,77.7z"/>
		<path class="st2" d="M382.9,59v41.2c0,4.1-1.5,7.6-4.4,10.6c-3,3-6.5,4.4-10.6,4.4c-4.1,0-7.6-1.5-10.6-4.4
			c-3-2.9-4.4-6.5-4.4-10.6V71.7c0-1-0.5-1.5-1.5-1.5c-1,0-1.5,0.5-1.5,1.5v28.5c0,4.1-1.5,7.6-4.4,10.6c-3,3-6.5,4.4-10.6,4.4
			c-4.1,0-7.6-1.5-10.6-4.4c-3-2.9-4.4-6.5-4.4-10.6v-45c0-4.2,1.5-7.7,4.4-10.7c2.9-2.9,6.6-4.3,10.9-4.3c6,0,10.4,2.8,13.4,8.4
			c3.7-5.6,8.7-8.4,15-8.4c5.2,0,9.7,1.9,13.6,5.6C381,49.6,382.9,54,382.9,59z"/>
	</g>
</g>
</svg>
