<?xml version="1.0" encoding="utf-8"?>
<!-- Generator: Adobe Illustrator 24.1.0, SVG Export Plug-In . SVG Version: 6.00 Build 0)  -->
<svg version="1.1" xmlns="http://www.w3.org/2000/svg" xmlns:xlink="http://www.w3.org/1999/xlink" x="0px" y="0px"
	 viewBox="0 0 425.2 425.2" style="enable-background:new 0 0 425.2 425.2;" xml:space="preserve">
<style type="text/css">
	.st0{fill:#FFFFFF;stroke:#FFFFFF;stroke-miterlimit:10;}
	.st1{fill:#FFFFFF;}
</style>
<g id="Calque_1">
</g>
<g id="Calque_2">
	<g>
		<g>
			<path class="st0" d="M204.1,370.3c-1.7,0.5-3.4,0.8-5.1,1.1c-0.9,0.2-1.9,0.3-2.8,0.5c-0.2,0-0.5,0.1-0.7,0.1
				c-1,0.1,1.3-0.2,0.3,0c-0.6,0.1-1.2,0.1-1.8,0.2c-4.6,0.5-9.3,0.8-14,0.8c-5,0.1-10.1-0.1-15.1-0.6c-1.2-0.1-2.4-0.2-3.7-0.4
				c-0.4,0-2.5-0.4-0.8-0.1c-0.7-0.1-1.4-0.2-2.1-0.3c-2.4-0.4-4.8-0.8-7.1-1.4c-2.1-0.5-4.2-1.1-6.2-1.8c-0.5-0.2-1-0.3-1.4-0.5
				c-0.2-0.1-0.5-0.2-0.7-0.3c-0.9-0.4,1.2,0.5,0.3,0.1s-1.9-0.9-2.8-1.4c-0.8-0.4-1.6-0.9-2.3-1.4c-0.4-0.3-1.5-1.3-0.2-0.1
				c-0.3-0.3-0.6-0.5-1-0.8c-0.6-0.5-1.1-1.1-1.7-1.7c-0.7-0.8,0.8,1.1,0,0c-0.5-0.6-0.9-1.3-1.3-2c-0.8-1.4-1.6-2.8-2.2-4.2
				c-0.2-0.4-0.3-0.7-0.5-1.1c-0.6-1.2,0.4,1-0.1-0.3c-0.3-0.9-0.7-1.7-1-2.6c-1-3-1.8-6.1-2.3-9.3c0-0.2-0.3-1.6,0-0.3
				c-0.1-0.4-0.1-0.8-0.1-1.2c-0.1-0.8-0.2-1.6-0.2-2.4c-0.1-1.7-0.2-3.5-0.1-5.2c0-1.6,0.1-3.2,0.3-4.8c0-0.4,0.1-0.8,0.1-1.2
				c0.1-1.4-0.2,1.1,0-0.3c0.1-0.9,0.3-1.9,0.5-2.8c0.6-3.2,1.5-6.3,2.6-9.3c0.3-0.8,0.6-1.5,0.9-2.2c0.5-1.3-0.4,1,0.1-0.3
				c0.2-0.4,0.3-0.7,0.5-1.1c0.7-1.5,1.5-3,2.3-4.5c1.6-2.8,3.3-5.6,5.2-8.2c0.2-0.2,0.3-0.4,0.5-0.6c0.8-1.1-0.7,0.8,0.2-0.2
				c0.5-0.6,1-1.2,1.5-1.8c1.1-1.3,2.2-2.5,3.4-3.8c2.2-2.4,4.6-4.6,7.1-6.7c0.6-0.5,1.2-1,1.8-1.5c0.2-0.1,1.2-0.9,0.2-0.2
				c0.3-0.2,0.6-0.5,0.9-0.7c1.3-0.9,2.5-1.8,3.8-2.7c2.7-1.8,5.6-3.5,8.5-5c1.5-0.8,3.1-1.6,4.7-2.3c0.4-0.2,0.8-0.4,1.2-0.5
				c1.3-0.6-0.9,0.4,0.4-0.2c0.9-0.4,1.9-0.8,2.8-1.1c3.3-1.2,6.6-2.2,10-3c1.7-0.4,3.4-0.7,5.1-0.9c-1.2,0.2,0.2,0,0.4,0
				c0.4,0,0.9-0.1,1.3-0.1c1-0.1,2-0.2,3-0.2c1.7-0.1,3.4-0.1,5.1,0c0.9,0,1.7,0.1,2.6,0.2c0.4,0,0.9,0.1,1.3,0.1
				c-1.3-0.2,0.6,0.1,0.8,0.1c3.1,0.5,6.1,1.4,9,2.5c1.2,0.4-1-0.5,0.1,0.1c0.3,0.2,0.7,0.3,1,0.4c0.7,0.3,1.3,0.6,1.9,1
				c1.4,0.7,2.7,1.6,4,2.4c0.6,0.4,1.2,0.8,1.8,1.3c-0.9-0.9-0.1-0.1,0.1,0.1c0.3,0.2,0.6,0.5,0.8,0.7c1.2,1,2.3,2.1,3.4,3.2
				c0.4,0.4,0.8,0.9,1.2,1.3c0.2,0.3,0.5,0.5,0.7,0.8c0.2,0.2,1,1,0.1,0.1c1,1,1.8,2.6,2.5,3.8c0.7,1.2,1.5,2.5,1.9,3.8
				c-0.4-1.3-0.1-0.2,0,0.1c0.1,0.3,0.2,0.7,0.4,1c0.3,0.8,0.5,1.6,0.7,2.3c0.2,0.7,0.3,1.4,0.5,2.1c0.1,0.3,0.1,0.7,0.2,1
				c0.2,1.2-0.1-1.2,0,0.1c0.1,1.4,0.2,2.9,0.2,4.3c0,0.7-0.1,1.5-0.2,2.2c-0.1,1.3,0.2-1.1,0,0.1c-0.1,0.4-0.1,0.7-0.2,1.1
				c-0.3,1.5-0.7,3.1-1.2,4.6c-0.1,0.3-0.2,0.7-0.4,1c-0.1,0.3-0.4,1.4-0.1,0.2c-0.2,0.7-0.6,1.4-0.9,2c-0.7,1.4-1.5,2.8-2.4,4.1
				c-0.2,0.3-0.4,0.6-0.6,0.9c-0.7,1,0.7-0.8-0.1,0.2c-0.4,0.5-0.9,1-1.3,1.5c-1,1.1-2.1,2.2-3.3,3.2c-0.3,0.2-0.6,0.5-0.8,0.7
				c-0.2,0.1-1.1,1-0.1,0.1c-0.6,0.5-1.2,0.9-1.8,1.3c-1.3,0.9-2.7,1.7-4.1,2.4c-0.3,0.2-0.7,0.3-1,0.5c-1.1,0.5,1-0.4-0.3,0.1
				c-0.8,0.3-1.5,0.6-2.3,0.9c-1.7,0.6-3.4,1-5.2,1.3c-0.4,0.1-0.8,0.1-1.2,0.2c-1.3,0.2,0.7-0.1-0.1,0s-1.5,0.2-2.3,0.2
				c-1.8,0.1-3.6,0.1-5.4,0c-0.8,0-1.7-0.1-2.5-0.2c-0.2,0-1.6-0.1-0.3,0c-0.4,0-0.8-0.1-1.2-0.2c-1.8-0.3-3.5-0.7-5.3-1.2
				c-1.6-0.5-3.2-1-4.7-1.7c1.1,0.4-0.2-0.1-0.3-0.2c-0.4-0.2-0.8-0.3-1.1-0.5c-0.8-0.4-1.5-0.7-2.2-1.1c-2.3-1.2-5.6-0.6-6.8,1.8
				c-1.2,2.3-0.7,5.5,1.8,6.8c13.8,7.5,30.6,8.9,45,2.2c12.7-5.9,21.7-18.6,23.1-32.5c1.4-13.7-6.1-26.6-16.7-34.8
				c-5.4-4.2-11.6-7.2-18.2-8.7c-7.9-1.8-16-1.8-24-0.5c-14.8,2.4-28.8,9.6-40.5,18.8c-11.1,8.7-19.9,20-25.2,33.1
				c-5.4,13.3-6.3,28.9-2.1,42.7c1.1,3.6,2.6,7.1,4.3,10.4c1.3,2.4,2.7,4.7,4.6,6.7c3.2,3.3,7.4,5.4,11.7,7.1
				c9.6,3.8,20.3,5,30.6,5.4c10.1,0.4,20.4,0,30.3-1.8c1.7-0.3,3.5-0.7,5.2-1.2c2.5-0.7,4.3-3.6,3.5-6.2
				C209.4,371.2,206.8,369.5,204.1,370.3L204.1,370.3z"/>
		</g>
	</g>
	<g>
		<g>
			<path class="st0" d="M202.9,379.4c17.9,11.7,40.1,15.1,61,11.4c16.5-2.9,32.5-10.1,45.1-21.1c6.1-5.3,11.5-11.7,15.4-18.8
				c3.2-5.7,5.6-11.8,6.6-18.3c1.9-13.2,1.6-26.7,1.2-40c-0.3-12.3-1.1-24.5-1.5-36.8c0-0.9-0.1-1.9-0.1-2.8c-0.1-2.6-2.3-5.1-5-5
				s-5.1,2.2-5,5c0.2,11.1,1,22.3,1.4,33.4c0.5,13.2,0.9,26.5-0.2,39.6c-0.1,1.3-0.3,2.6-0.4,3.9c-0.1,0.6,0.2-1.3,0.1-0.7
				c0,0.1,0,0.3-0.1,0.4c0,0.3-0.1,0.6-0.1,0.9c-0.1,0.6-0.2,1.1-0.3,1.7c-0.5,2.7-1.4,5.2-2.4,7.7c-0.1,0.2-0.2,0.4-0.3,0.7
				c-0.3,0.6,0.4-0.8,0.1-0.2c-0.2,0.4-0.4,0.9-0.6,1.3c-0.4,0.9-0.9,1.8-1.3,2.7c-0.9,1.7-1.8,3.3-2.9,4.9c-0.5,0.8-1,1.6-1.6,2.3
				c-0.3,0.4-0.6,0.8-0.8,1.1c-0.2,0.2-0.5,0.8,0.1-0.2c-0.2,0.2-0.4,0.5-0.5,0.7c-1.2,1.5-2.5,3-3.8,4.4s-2.7,2.7-4.1,4
				c-0.7,0.6-1.4,1.3-2.2,1.9c-0.4,0.3-0.7,0.6-1.1,0.9c-0.1,0.1-0.5,0.3-0.6,0.4c0.2-0.4,0.6-0.5,0,0c-3.1,2.4-6.4,4.5-9.8,6.4
				c-1.8,1-3.5,1.9-5.4,2.7c-0.8,0.4-1.7,0.8-2.5,1.1c-0.8,0.4,0,0,0.2-0.1c-0.2,0-0.5,0.2-0.7,0.3c-0.5,0.2-1,0.4-1.5,0.6
				c-3.7,1.4-7.5,2.6-11.3,3.6c-2,0.5-3.9,0.9-5.9,1.3c-1,0.2-2,0.4-3,0.5c-0.3,0-0.6,0.1-0.9,0.1c-0.8,0.1,0.8-0.1,0,0
				c-0.7,0.1-1.4,0.2-2,0.2c-4.9,0.5-9.9,0.5-14.8,0.2c-1.2-0.1-2.4-0.2-3.6-0.4c-0.1,0-1.1-0.1-0.5-0.1c0.6,0.1-0.2,0-0.2,0
				c-0.8-0.1-1.5-0.2-2.3-0.4c-2.4-0.4-4.8-1-7.1-1.6c-5.4-1.5-8.8-2.8-13.4-5.2c-2.1-1.1-4.2-2.3-6.2-3.7c-2.2-1.4-5.6-0.5-6.8,1.8
				C199.8,375.1,200.6,377.9,202.9,379.4L202.9,379.4z"/>
		</g>
	</g>
	<g>
		<g>
			<path class="st0" d="M139.1,292.6c-0.5-2.8-1-5.6-1.4-8.4c-0.1-0.7-0.2-1.5-0.3-2.2c-0.1-0.4-0.1-0.7-0.2-1.1
				c0,0.1,0.2,1.3,0.1,0.5c0-0.2-0.1-0.4-0.1-0.6c-0.2-1.6-0.4-3.2-0.6-4.8c-0.8-6.6-1.4-13.3-1.8-19.9c-1-14.9-1.4-29.8-1.3-44.7
				c0.1-15.8,0.7-31.6,1.9-47.3c0.6-7.8,1.3-15.6,2.2-23.4c0.4-3.8,0.9-7.5,1.4-11.3c0-0.2,0.1-0.5,0.1-0.7c0,0.1-0.2,1.2,0,0.3
				c0.1-0.4,0.1-0.8,0.2-1.2c0.1-1,0.3-1.9,0.4-2.9c0.3-1.8,0.5-3.6,0.8-5.4c2.1-13.3,4.7-26.5,8.4-39.4c0.8-2.8,1.7-5.6,2.6-8.3
				c0.5-1.5,1-3,1.6-4.5c0.2-0.4,0.3-0.9,0.5-1.3c0.5-1.2-0.2,0.5,0.1-0.3c0.4-0.9,0.8-1.9,1.3-2.8c0.9-1.7,1.8-3.4,3-5
				c0.1-0.1,0.2-0.3,0.3-0.4c0.4-0.6-0.6,0.7-0.2,0.2c0.3-0.4,0.6-0.7,0.9-1c0.6-0.7,1.3-1.4,2-2c0.1-0.1,0.3-0.2,0.4-0.3
				c0.5-0.4-0.8,0.5-0.2,0.2c0.4-0.2,0.7-0.5,1.1-0.7c0.3-0.2,0.7-0.4,1-0.6c0.2-0.1,0.4-0.2,0.6-0.3c1-0.5-1,0.3,0,0
				c0.8-0.3,1.7-0.5,2.5-0.7c0.7-0.2-1,0.1-0.3,0c0.2,0,0.5,0,0.7-0.1c0.5,0,1.1,0,1.6,0c0.2,0,0.5,0,0.7,0c0.5,0,0.4,0.3-0.3,0
				c0.3,0.2,0.8,0.2,1.2,0.2c0.4,0.1,0.9,0.2,1.3,0.4c0.2,0.1,0.4,0.2,0.7,0.2c0.1,0,0.2,0.1,0.3,0.1c0.3,0.1,0.2,0.1-0.4-0.2
				c0.6,0,1.8,0.9,2.4,1.3c0.4,0.3,0.8,0.5,1.2,0.8c0.1,0.1,0.8,0.6,0.2,0.2c-0.6-0.4,0.2,0.2,0.4,0.3c1.6,1.3,3,2.8,4.3,4.3
				c0.1,0.2,0.4,0.4,0.5,0.6c-0.1-0.1-0.6-0.9-0.1-0.1c0.3,0.4,0.6,0.8,0.9,1.3c0.6,0.9,1.1,1.7,1.6,2.6c0.5,0.9,1,1.8,1.4,2.7
				c0.2,0.4,0.4,0.8,0.6,1.2c0.1,0.2,0.4,1,0,0.1s-0.2-0.4-0.1-0.2c0.3,0.9,0.7,1.7,0.9,2.6c0.7,2,1.2,4.1,1.7,6.2
				c0.6,2.5,1,5,1.4,7.5c0.2,1.4,0.4,2.7,0.6,4.1c0.1,0.6-0.2-1.2-0.1-0.5c0,0.2,0,0.4,0.1,0.5c0,0.3,0.1,0.6,0.1,0.9
				c0.1,0.8,0.2,1.6,0.3,2.3c0.7,6.4,1.2,12.8,1.6,19.2c0.8,13.6,1.1,27.2,1,40.8c0,11.2-0.3,22.5-1,33.7c-0.1,1.9-0.2,3.8-0.4,5.6
				c-0.2,2.6,2.5,5.1,5,5c2.9-0.1,4.8-2.2,5-5c0.9-10.2,1.1-20.4,1.3-30.6c0.2-13.8,0.1-27.5-0.5-41.3c-0.6-13-1.5-26.2-3.7-39
				c-0.8-4.5-1.7-9.1-3.3-13.4c-2.8-7.8-7.7-15-14.4-19.9c-7.3-5.4-17.4-6.3-24.9-0.9c-7.1,5.1-10.8,13.2-13.6,21.2
				c-4.3,12.1-7.2,24.7-9.6,37.3c-2.9,15.2-4.8,30.6-6.3,46.1c-1.5,16-2.4,32.1-2.8,48.2c-0.4,15.6-0.3,31.1,0.5,46.7
				c0.7,13.9,1.8,27.8,3.9,41.6c0.4,2.8,0.9,5.6,1.4,8.4c0.5,2.6,3.7,4.3,6.2,3.5C138.4,297.9,139.6,295.4,139.1,292.6L139.1,292.6z
				"/>
		</g>
	</g>
	<g>
		<g>
			<path class="st0" d="M200.5,194.3c0.2-0.2,0.3-0.4,0.5-0.7c-0.6,0.8-0.2,0.2,0,0.1c0.4-0.4,0.7-0.9,1.1-1.3
				c0.3-0.4,0.7-0.7,1.1-1c0.2-0.2,0.5-0.4,0.7-0.6c0.7-0.6-0.5,0.4,0,0c0.8-0.5,1.6-1.1,2.5-1.6s1.9-0.8,2.8-1.3
				c-0.1,0.1-1.1,0.4-0.2,0.1c0.2-0.1,0.4-0.2,0.6-0.3c0.4-0.2,0.9-0.3,1.3-0.5c1-0.4,2.1-0.7,3.1-1.1c2.2-0.8,4.4-1.5,6.6-1.9
				c0.2,0,1-0.1,0.3-0.1c-0.7,0.1,0.2,0,0.3,0c0.6-0.1,1.2-0.1,1.8-0.1c0.5,0,1,0,1.6,0.1c0.3,0,1,0-0.2,0c0.4,0,0.8,0.1,1.1,0.2
				c0.5,0.1,1,0.3,1.5,0.4c0.3,0.1,0.9,0.2-0.1-0.1c0.2,0,0.5,0.2,0.7,0.3c0.5,0.2,0.9,0.5,1.3,0.8c0.9,0.6-0.2-0.1-0.1-0.1l0.8,0.7
				c0.3,0.3,0.7,0.7,1,1c0.7,0.7-0.1-0.1-0.1-0.2c0,0,0.4,0.5,0.4,0.6c0.6,0.9,1.1,1.9,1.6,2.8c0.5,1.1-0.3-0.7,0,0
				c0.1,0.2,0.2,0.5,0.3,0.7c0.2,0.5,0.3,0.9,0.5,1.4c0.3,1.1,0.6,2.2,0.9,3.3c1.3,5.5,1.6,9.1,2.1,14.7c0.4,5.2,0.5,10.4,0.4,15.7
				c-0.2,5.7-0.4,11.5-1.1,17.2c0,0.2-0.1,0.4-0.1,0.6c-0.1,1.1,0.2-1.2,0-0.1c-0.1,0.5-0.1,1-0.2,1.5c-0.1,0.9-0.3,1.8-0.5,2.8
				c-0.4,1.8-0.8,3.5-1.3,5.3c-0.1,0.4-0.2,0.7-0.4,1.1c-0.1,0.2-0.2,0.4-0.2,0.6c-0.3,0.8,0.4-0.9,0.2-0.4c-0.3,0.7-0.6,1.3-1,2
				c-0.2,0.3-0.4,0.6-0.6,0.9c-0.6,1,0.8-0.9,0-0.1c-0.2,0.2-0.4,0.5-0.7,0.7c-0.8,0.8,1-0.7,0.1-0.1c-2.2,1.5-3.3,4.5-1.8,6.8
				c1.4,2.2,4.5,3.4,6.8,1.8c6.1-4.1,7.9-12.2,9-19c1.1-6.8,1.5-13.7,1.6-20.6c0.3-11-0.3-22.2-2.6-33c-1.1-5.1-2.9-10.1-6.4-14.1
				c-3.8-4.4-9.6-6.4-15.3-6.1c-5.6,0.2-11.1,2.3-16.3,4.4c-2.5,1-4.9,2.1-7.1,3.7c-2.7,2-4.9,4.3-6.9,7c-1.5,2.1-0.5,5.7,1.8,6.8
				C196.2,197.5,198.8,196.6,200.5,194.3L200.5,194.3z"/>
		</g>
	</g>
	<g>
		<g>
			<path class="st0" d="M191.8,188.1c-7.2,16.6-14.7,34.7-9.3,53c2.2,7.6,6.5,14.4,13.1,19c5.4,3.8,12,6.4,18.4,7.8
				c6.9,1.5,15.7,2.3,21.7-2.1c2.1-1.5,3.4-4.4,1.8-6.8c-1.3-2.1-4.6-3.4-6.8-1.8c-0.4,0.3-0.9,0.6-1.4,0.9
				c-0.2,0.1-0.5,0.2-0.7,0.3c0.7-0.6,1-0.4,0.5-0.2c-0.2,0.1-0.3,0.1-0.5,0.2c-0.6,0.2-1.2,0.4-1.7,0.5c-0.3,0.1-0.5,0.1-0.8,0.2
				c-0.8,0.2,0.5-0.1,0.5-0.1c-0.2,0-0.4,0-0.6,0.1c-1.4,0.1-2.7,0.2-4.1,0.1c-0.7,0-1.4-0.1-2.2-0.2c-0.2,0-0.3,0-0.5-0.1
				c-0.6-0.1,0.6,0.1,0.5,0.1c-0.3-0.2-0.9-0.1-1.3-0.2c-3-0.5-6-1.4-8.9-2.4c-0.4-0.1-0.7-0.3-1.1-0.4c-0.2-0.1-0.4-0.2-0.6-0.2
				c-0.5-0.2,0.5,0.2,0.4,0.2c-0.3,0.1-1.9-0.8-2.2-1c-1.3-0.6-2.6-1.3-3.8-2.1c-0.5-0.3-1.1-0.7-1.6-1c-0.3-0.2-0.5-0.4-0.8-0.6
				c-0.9-0.6,0.8,0.7,0,0c-1-0.9-2-1.8-2.8-2.8c-0.2-0.2-1.1-1.1-0.3-0.3c-0.3-0.2-0.5-0.6-0.7-0.9c-0.5-0.8-1.1-1.6-1.5-2.4
				c-0.4-0.7-0.8-1.5-1.1-2.2c-0.1-0.2-0.3-0.5-0.3-0.7c0,0,0.3,0.8,0.1,0.3s-0.4-1-0.5-1.4c-0.6-1.7-1.1-3.5-1.4-5.2
				c-0.2-0.8-0.5-1.7-0.4-2.5c-0.1,1.2,0,0,0-0.4c-0.1-0.5-0.1-1-0.1-1.6c-0.1-1.8-0.1-3.7,0-5.5c0-0.9,0.1-1.8,0.2-2.7
				c0-0.2,0-0.4,0.1-0.6c0-0.1,0.1-0.8,0-0.3c-0.1,0.6,0.1-0.3,0.1-0.5c0-0.3,0.1-0.6,0.1-0.9c0.8-4.8,2.2-9.5,3.9-14.1
				c0.8-2.3,1.8-4.7,2.7-7c0.1-0.2,0.2-0.4,0.3-0.6c0-0.1,0.4-0.9,0.2-0.5c-0.2,0.5,0.2-0.4,0.2-0.5c0.1-0.3,0.2-0.6,0.4-0.9
				c0.5-1.2,1-2.4,1.6-3.6c1-2.4,0.8-5.5-1.8-6.8C196.5,185.1,192.9,185.5,191.8,188.1L191.8,188.1z"/>
		</g>
	</g>
	<g>
		<g>
			<path class="st0" d="M241.2,191.5c0.2-0.2,0.3-0.5,0.5-0.7c0.3-0.4,0.8-0.8-0.1,0.1c0.4-0.4,0.7-0.9,1.1-1.3
				c0.4-0.4,0.8-0.8,1.3-1.2c0.4-0.3,1-0.4-0.1,0c0.3-0.2,0.7-0.5,1-0.7c1-0.7,2.1-1.2,3.1-1.7s-1.1,0.4-0.1,0
				c0.3-0.1,0.6-0.2,0.9-0.3c0.7-0.2,1.4-0.5,2.1-0.6c0.6-0.2,1.2-0.3,1.8-0.4c0.3-0.1,0.6-0.1,0.9-0.2c0.4-0.1,1.3,0-0.1,0
				c1.4,0,2.7-0.3,4.1-0.3c0.6,0,1.3,0,1.9,0.1c0.6,0,1.4,0.3,1.9,0.2c-0.2,0-0.5-0.1-0.7-0.1c0.2,0,0.4,0.1,0.6,0.1
				c0.3,0.1,0.6,0.1,0.9,0.2c0.7,0.1,1.4,0.3,2.1,0.5c0.6,0.2,1.2,0.3,1.8,0.5c0.3,0.1,0.6,0.2,0.9,0.3c0.5,0.2,0.8,0.6-0.1,0
				c0.4,0.3,1.1,0.5,1.6,0.8c0.6,0.3,1.2,0.7,1.8,1.1c0.5,0.3,1,0.6,1.5,1c-0.9-0.8,0,0,0.2,0.2c0.3,0.2,0.6,0.5,0.8,0.7
				c1.2,1.1,2.3,2.2,3.4,3.5c0.2,0.3,0.5,0.6,0.7,0.9c-0.7-1.1,0,0,0.1,0.2c0.4,0.6,0.9,1.2,1.3,1.8c0.9,1.4,1.7,2.8,2.4,4.3
				c0.3,0.7,0.6,1.4,1,2.1c0.5,1.2-0.4-1,0.1,0.2c0.1,0.4,0.3,0.7,0.4,1.1c0.6,1.6,1.1,3.1,1.6,4.7c0.4,1.5,0.8,3,1.1,4.5
				c0.2,0.7,0.3,1.5,0.4,2.3c0.1,0.4,0.1,0.8,0.2,1.1c0,0.3,0.4,2,0.1,0.6c0.7,3.5,0.7,7.3,0.6,10.9c0,1.6-0.1,3.2-0.3,4.8
				c0,0.4-0.1,0.9-0.1,1.3c-0.1,1.4,0.2-1,0,0.4c-0.2,1-0.3,2-0.5,3c-0.3,1.7-0.8,3.4-1.3,5c-0.3,0.8-0.5,1.6-0.8,2.5
				c-0.1,0.4-0.3,0.8-0.5,1.2c-0.1,0.3-0.2,0.5-0.3,0.8c0.2-0.5,0.2-0.5,0,0c-1.4,2.8-2.9,5.6-4.6,8.2c-0.8,1.2-1.6,2.6-2.6,3.7
				c0.8-0.9,0,0-0.2,0.2c-0.2,0.3-0.5,0.6-0.7,0.9c-0.6,0.7-1.2,1.4-1.8,2.1c-1,1.1-2.1,2.2-3.2,3.3c-0.6,0.5-1.1,1-1.7,1.5
				c-0.3,0.2-0.6,0.5-0.9,0.7c1.1-0.7-0.3,0.2-0.5,0.3c-1.1,0.8-2.2,1.5-3.4,2.1c-0.5,0.3-1.3,0.9-1.9,0.9c0.2-0.1,0.4-0.2,0.6-0.2
				c-0.2,0.1-0.4,0.2-0.6,0.3c-0.4,0.2-0.9,0.3-1.3,0.4c-0.8,0.2-1.5,0.4-2.3,0.6c-0.1,0-0.2,0-0.3,0.1c-0.6,0.1-0.4,0.1,0.3,0
				c0,0-1.2,0.1-1.3,0.1c-1.5,0.1-3,0.2-4.4,0.1c-0.7,0-1.4,0-2.1-0.1c-0.3,0-0.6-0.1-0.9-0.1c-0.9-0.1,1.3,0.2,0,0
				c-1.2-0.2-2.4-0.5-3.6-0.9c-0.4-0.2-1-0.6,0.3,0.1c-0.3-0.2-0.6-0.3-0.9-0.4c-0.5-0.3-1-0.6-1.5-0.9c-0.4-0.3-0.7-0.8,0.2,0.2
				c-0.2-0.2-0.5-0.4-0.8-0.7c-0.5-0.4-0.9-0.9-1.3-1.4c-0.7-0.8,0.7,1,0.1,0.1c-0.2-0.3-0.4-0.6-0.6-0.9c-0.4-0.6-0.7-1.2-1-1.8
				c0-0.1-0.4-0.9-0.4-0.9c0.3,0.7,0.3,0.8,0.1,0.3c-0.1-0.2-0.2-0.4-0.2-0.6c-0.3-0.8-0.5-1.6-0.8-2.4c-0.7-2.5-3.6-4.3-6.2-3.5
				c-2.5,0.8-4.3,3.5-3.5,6.2c1.7,6,4.9,11.8,10.6,14.9c5.1,2.8,11.1,3.2,16.7,2.8c3.8-0.3,7.3-1.1,10.7-2.8
				c3.3-1.5,6.2-3.7,8.9-6.1c5.3-4.6,9.7-10.4,13.2-16.5c8.1-14,9.3-30.8,6.1-46.4c-2.9-13.8-10.6-27.9-24.2-33.4
				c-11-4.5-26.3-2.8-34.8,6.1c-1.1,1.2-2.1,2.5-3,3.9c-1.4,2.2-0.6,5.6,1.8,6.8C236.8,194.6,239.7,193.9,241.2,191.5L241.2,191.5z"
				/>
		</g>
	</g>
	<g>
		<g>
			<path class="st0" d="M289.8,197.2c0.1-0.5,0.2-1.1,0.4-1.6l0.2-0.6c0.1,0-0.6,1.1,0,0.1c0.2-0.4,0.5-0.9,0.7-1.3
				c0.1-0.1,0.6-1,0.2-0.3s0.4-0.4,0.5-0.5c0.3-0.3,0.6-0.7,1-1c0.2-0.2,0.4-0.4,0.7-0.6c0.6-0.5,0.4,0,0,0c0.3,0,1.1-0.7,1.3-0.9
				c0.6-0.3,1.1-0.7,1.7-0.9c0.1-0.1,0.5-0.3,0.6-0.3c-1,0.1-0.5,0.2-0.1,0c0.5-0.2,1-0.3,1.5-0.5c0.6-0.2,1.1-0.3,1.7-0.4
				c1-0.2-0.3,0.1-0.3,0c0,0,0.9-0.1,1-0.1c0.6,0,1.2,0,1.9,0c0.1,0,0.6,0,0.8,0.1c-0.9-0.4-0.4-0.1,0,0c1.2,0.2,2.8,0.5,3.8,1.1
				c-0.1-0.1-1-0.5-0.1,0c0.2,0.1,0.5,0.2,0.7,0.3c0.6,0.3,1.1,0.6,1.7,0.9c0.5,0.3,1,0.6,1.5,1c0.3,0.2,1,0.4,0.1,0
				c0.3,0.1,0.7,0.5,0.9,0.7c0.9,0.8,1.7,1.6,2.5,2.5c0.3,0.3,0.5,0.6,0.7,0.9c-0.1-0.1-0.6-0.8,0,0c0.4,0.6,0.8,1.2,1.2,1.7
				c0.8,1.2,1.4,2.4,2.1,3.7c0.2,0.5,0.5,1,0.7,1.5c-0.4-0.9,0-0.1,0.1,0.2c0.2,0.5,0.4,0.9,0.5,1.4c0.9,2.5,1.6,5.2,2.2,7.8
				c0.3,1.4,0.6,2.7,0.8,4.1c0.1,0.8,0.2,1.6,0.4,2.4c-0.1-0.9,0-0.1,0,0.1c0.1,0.6,0.1,1.1,0.2,1.7c0.3,3.1,0.5,6.2,0.5,9.3
				c0,3-0.1,6.1-0.4,9.1c-0.1,0.8-0.2,1.6-0.3,2.4c0,0.3-0.1,0.6-0.1,0.9c0.1-0.9,0-0.1,0,0.1c-0.2,1.3-0.4,2.6-0.7,3.8
				c-0.5,2.4-1.1,4.8-1.9,7.1c-0.2,0.5-0.4,1.1-0.6,1.6c-0.1,0.3-0.3,1.1,0,0c-0.1,0.2-0.2,0.5-0.3,0.7c-0.5,1.1-1.1,2.2-1.7,3.3
				c-0.3,0.5-0.6,1-1,1.5c-0.1,0.2-0.3,0.4-0.4,0.6c0,0.1-0.8,1-0.3,0.4s-0.2,0.3-0.3,0.3c-0.2,0.2-0.3,0.4-0.5,0.5
				c-0.4,0.5-0.9,1-1.4,1.4c-0.4,0.4-0.8,0.7-1.2,1.1c-0.9,0.8,0.6-0.4,0,0c-0.2,0.2-0.5,0.4-0.7,0.5c-1.1,0.7-2.3,1.4-3.5,1.9
				c0.2-0.1,0.9-0.3,0.1,0c-0.4,0.1-0.8,0.3-1.2,0.4c-0.8,0.2-1.6,0.4-2.4,0.6c-0.2,0-0.6,0.2-0.8,0.1c1.1,0.1,0,0-0.3,0
				c-0.7,0.1-1.5,0.1-2.3,0.1c-0.3,0-0.7,0-1,0s-1.5-0.1-0.3,0c-0.7,0-1.4-0.2-2-0.4c-0.8-0.2-1.6-0.5-2.3-0.7
				c-0.2-0.1-0.9-0.3,0.2,0.1c-0.3-0.1-0.7-0.3-1-0.5c-0.6-0.3-1.2-0.6-1.8-1c-0.3-0.2-0.5-0.3-0.8-0.5c-0.2-0.1-0.3-0.2-0.5-0.3
				c-0.3-0.2-0.2-0.1,0.3,0.2c-0.5-0.1-1.2-1-1.5-1.3c-0.5-0.5-1-1-1.4-1.5c-0.2-0.2-0.3-0.4-0.5-0.6c-0.7-0.9,0.4,0.7-0.1-0.2
				c-0.4-0.6-0.8-1.2-1.2-1.9c-0.3-0.5-0.6-1.1-0.9-1.6c-0.5-1.1,0.2,0.7,0,0c-0.1-0.4-0.3-0.8-0.4-1.2c-0.8-2.5-3.5-4.4-6.2-3.5
				c-2.5,0.8-4.4,3.5-3.5,6.2c2,6,5.9,11.1,11.1,14.6c5.6,3.7,12.5,4.8,19,3.8c12.6-2,20.5-12.9,23.9-24.4
				c1.8-6.1,2.6-12.5,2.9-18.8c0.3-7.1-0.2-14.3-1.4-21.3c-2.1-12.4-7.2-25.7-19-31.9c-6.1-3.2-13.2-4.1-19.7-1.5
				c-6.2,2.5-12.2,7.6-13.3,14.5c-0.4,2.6,0.7,5.5,3.5,6.2C286.1,201.2,289.4,199.9,289.8,197.2L289.8,197.2z"/>
		</g>
	</g>
	<g>
		<g>
			<path class="st0" d="M252.1,297.5c1.8,1.6,3.6,3.3,5.3,5.1c0.7,0.8,1.5,1.6,2.2,2.4c0.4,0.4,0.7,0.9,1.1,1.3
				c0.2,0.2,0.3,0.4,0.5,0.6c0.3,0.4,0.7,0.8,0.2,0.2c3,3.6,5.4,7.9,7.5,12.1c0.5,1,1,2.1,1.5,3.1c0.1,0.2,0.2,0.5,0.3,0.7
				c0,0,0.5,1.2,0.2,0.5s0.2,0.4,0.2,0.5c0.1,0.4,0.3,0.7,0.4,1.1c0.8,2.2,1.6,4.4,2.2,6.6c0.7,2.3,1.2,4.6,1.6,6.9
				c0.2,1.1,0.4,2.3,0.6,3.4c0.1,0.8-0.1-1.3,0,0c0,0.3,0.1,0.5,0.1,0.8c0.1,0.6,0.1,1.3,0.2,1.9c0.5,5.4,0.4,10.8-0.3,16.1
				c-0.3,2.6,2.5,5.1,5,5c3-0.1,4.6-2.2,5-5c2.6-20-3.1-41.2-15-57.5c-3.4-4.7-7.3-9.1-11.7-12.9c-2-1.7-5.2-2.1-7.1,0
				C250.4,292.3,250,295.7,252.1,297.5L252.1,297.5z"/>
		</g>
	</g>
	<g>
		<path class="st1" d="M194.4,200.6c4.8-2.8,7.9-7.9,12.2-11.5c3.9-3.3,9-5.2,14.1-5.5c2-0.1,4.2,0.1,5.8,1.2
			c1.3,0.8,2.2,2.1,3.1,3.4c1.6,2.4,3.3,4.7,4.9,7.1"/>
		<g>
			<path class="st1" d="M195.6,202.8c6.8-4.1,10.3-11.9,17.8-15c1.8-0.7,3.7-1.3,5.5-1.5c1.7-0.2,3.8-0.4,5.4,0.3
				c1.8,0.7,2.8,2.6,3.8,4.1c1.4,2,2.7,3.9,4.1,5.9c0.8,1.1,2.2,1.6,3.4,0.9c1.1-0.6,1.7-2.3,0.9-3.4c-1.1-1.6-2.3-3.3-3.4-4.9
				c-1.1-1.6-2.2-3.4-3.6-4.8c-2.6-2.8-6.4-3.4-10.1-3.1c-3.7,0.3-7.3,1.4-10.6,3.2c-3,1.7-5.6,4-7.9,6.5c-2.5,2.7-4.8,5.7-8,7.6
				C190.4,200.1,192.9,204.5,195.6,202.8L195.6,202.8z"/>
		</g>
	</g>
	<g>
		<path class="st1" d="M231,188.4c1.5,9.1,4,18,7.4,26.6"/>
		<g>
			<path class="st1" d="M228.6,189.1c1.5,9.1,4,18,7.4,26.6c0.5,1.3,1.7,2.1,3.1,1.7c1.2-0.3,2.2-1.8,1.7-3.1
				c-3.4-8.6-5.9-17.5-7.4-26.6c-0.2-1.3-1.9-2.1-3.1-1.7C229,186.4,228.4,187.7,228.6,189.1L228.6,189.1z"/>
		</g>
	</g>
	<g>
		<path class="st1" d="M226.1,182.9c4.1,9.9,4.7,20.9,8.4,30.9c1.2,3.4,2.8,6.6,3.8,10.1s1.2,7.3-0.1,10.6"/>
		<g>
			<path class="st1" d="M223.6,183.6c3.3,8.2,4.4,17,6.7,25.6c1.2,4.3,3,8.4,4.5,12.6c1.4,3.9,2.4,8.1,0.8,12.2
				c-0.5,1.3,0.5,2.7,1.7,3.1c1.4,0.4,2.6-0.5,3.1-1.7c3.4-9.1-2.7-18-5.1-26.5c-2.5-8.8-3.5-17.9-7-26.4c-0.5-1.2-1.7-2.1-3.1-1.7
				C224.2,180.8,223.1,182.3,223.6,183.6L223.6,183.6z"/>
		</g>
	</g>
	<g>
		<path class="st1" d="M216.7,183.8c3.8-0.5,7.7,1,10.4,3.7c2.6,2.8,3.9,6.8,3.3,10.5"/>
		<g>
			<path class="st1" d="M216.7,186.3c0.9-0.1,1.8-0.1,2.7,0c0.7,0.1-0.5-0.1,0.2,0c0.2,0,0.4,0.1,0.7,0.1c0.4,0.1,0.9,0.2,1.3,0.4
				c0.2,0.1,0.4,0.2,0.6,0.2c-0.4-0.2,0.1,0.1,0.2,0.1c0.4,0.2,0.7,0.4,1.1,0.6c0.2,0.1,0.4,0.2,0.6,0.4c0.1,0.1,0.2,0.1,0.3,0.2
				c-0.2-0.1-0.2-0.2-0.1,0c0.3,0.3,0.7,0.6,1,0.9c0.3,0.3,0.6,0.6,0.8,0.9c-0.3-0.4,0.1,0.1,0.1,0.2c0.1,0.2,0.2,0.4,0.4,0.6
				c0.2,0.4,0.4,0.8,0.6,1.2c0.3,0.7-0.2-0.4,0.1,0.2c0.1,0.2,0.2,0.4,0.2,0.6c0.1,0.4,0.3,0.9,0.3,1.3c0,0.2,0.1,0.4,0.1,0.7
				c-0.1-0.5,0,0.1,0,0.2c0,0.4,0,0.8,0,1.2c0,0.2,0,0.4,0,0.7c0,0.1,0,0.2,0,0.3c0-0.3,0-0.3,0,0c-0.2,1.3,0.3,2.8,1.7,3.1
				c1.2,0.3,2.9-0.4,3.1-1.7c0.7-4.7-0.6-9.4-3.8-12.9c-3.1-3.3-7.8-5-12.2-4.5c-1.3,0.1-2.6,1-2.5,2.5
				C214.3,185.1,215.3,186.5,216.7,186.3L216.7,186.3z"/>
		</g>
	</g>
	<g>
		<path class="st1" d="M239.6,231.5c-1.7,3.9-2.9,8.1-3.6,12.3c-0.6,3.7-0.9,7.5-2.3,10.9c-1.5,3.7-4.2,6.8-7.7,8.7"/>
		<g>
			<path class="st1" d="M237.4,230.2c-1.3,3-2.3,6-3.1,9.1c-0.7,3-1.1,6.1-1.6,9.2c-0.5,2.7-1.1,5.4-2.6,7.7
				c-1.3,2.1-3.2,3.8-5.4,5.1c-2.8,1.6-0.3,5.9,2.5,4.3c5.3-3,8.7-8.1,10-14c0.7-3.1,0.9-6.2,1.6-9.3c0.7-3.2,1.7-6.4,3-9.5
				c0.5-1.2,0.4-2.7-0.9-3.4C239.8,228.7,238,229,237.4,230.2L237.4,230.2z"/>
		</g>
	</g>
	<g>
		<path class="st1" d="M239.2,230.9c-2.4,5.5-3.4,11.6-2.9,17.5"/>
		<g>
			<path class="st1" d="M237,229.7c-2.6,5.9-3.8,12.4-3.2,18.8c0.1,1.3,1.1,2.5,2.5,2.5c1.3,0,2.6-1.1,2.5-2.5
				c-0.5-5.6,0.3-11.2,2.5-16.3c0.5-1.2,0.4-2.7-0.9-3.4C239.4,228.2,237.6,228.4,237,229.7L237,229.7z"/>
		</g>
	</g>
	<g>
		<path class="st1" d="M238.9,218.1c-0.4,2.5,0,5,0.1,7.5c0.1,2.5-0.2,5.2-1.6,7.2c-1.7,2.5-4.9,3.6-7.9,3.7s-6-0.4-9-0.6
			c-3-0.2-6.2,0.1-8.7,1.7c5.1-1.4,10.4-1.7,15.6-0.9c1.7,0.3,3.4,0.6,4.8,1.6c1.6,1.1,2.8,2.8,3.3,4.7s0.6,3.9,0.5,5.8
			c-0.8-3.2-2.6-6.2-5.2-8.2c-2.6-2.1-5.9-3.3-9.2-3.3"/>
		<g>
			<path class="st1" d="M236.4,217.5c-0.3,2-0.3,4-0.1,6c0.1,1.6,0.3,3.3,0,5c-0.4,2.9-2.3,4.6-5.1,5.3c-3.4,0.8-7-0.1-10.4-0.3
				c-3.6-0.3-7.3,0.1-10.4,2c-2.4,1.5-0.9,5.3,1.9,4.6c4.8-1.3,10-1.7,14.9-0.8c2.1,0.4,3.9,1,5,2.9c1.2,2,1.2,4.4,1.1,6.7
				c1.6-0.2,3.3-0.4,4.9-0.7c-1.9-7.7-8.8-13.2-16.8-13.4c-3.2-0.1-3.2,4.9,0,5c5.8,0.2,10.6,4.1,11.9,9.7c0.7,2.9,4.7,2,4.9-0.7
				c0.5-6.2-2-12.5-8.5-14.1c-6.1-1.5-12.8-1.1-18.8,0.5c0.6,1.5,1.3,3,1.9,4.6c3.1-2,6.8-1.5,10.3-1.1c3.7,0.4,7.5,0.8,11.1-0.7
				c3.4-1.4,6-4.1,6.7-7.8c0.8-3.8-0.3-7.6,0.2-11.5c0.2-1.3-0.3-2.7-1.7-3.1C238.4,215.4,236.6,216.1,236.4,217.5L236.4,217.5z"/>
		</g>
	</g>
	<g>
		<path class="st1" d="M244.4,212.4c0.6-4.3,0.1-8.6,0-12.9c-0.1-4.3,0.2-8.8,2.4-12.5c2.2-3.7,6.5-6.5,10.7-5.5
			c-4.1,0.9-8,2.5-11.6,4.6c-1.8,1.1-3.7,2.4-4.6,4.2c-0.9,1.9-0.7,4.5,1,5.7"/>
		<g>
			<path class="st1" d="M246.9,212.4c0.9-6.4-0.9-13,0.3-19.3c0.8-4.4,4.2-10.2,9.6-9.2c0-1.6,0-3.2,0-4.8
				c-5.1,1.2-10.5,3.3-14.7,6.6c-1.9,1.5-3.4,3.5-3.8,6c-0.4,2.7,0.6,5,2.7,6.6c1.1,0.8,2.8,0.2,3.4-0.9c0.8-1.3,0.2-2.6-0.9-3.4
				c-0.7-0.5-0.3-2,0.1-2.7c0.7-1.4,2.2-2.2,3.5-3c3.4-2,7.1-3.4,11-4.3c2.3-0.6,2.4-4.3,0-4.8c-7.2-1.4-13.2,4-15.2,10.6
				c-2.3,7.4,0,15.2-1,22.7c-0.2,1.3,1.3,2.5,2.5,2.5C245.9,214.9,246.7,213.7,246.9,212.4L246.9,212.4z"/>
		</g>
	</g>
	<g>
		<path class="st1" d="M244.4,190.9c0,3.7-0.1,7.5,0.2,11.2c0.3,3,1,6,1.1,9c0.2,5.3-2.3,10.8-3.6,15.9"/>
		<g>
			<path class="st1" d="M241.9,190.9c0,3.2-0.1,6.3,0.1,9.5c0.2,3.1,0.9,6.2,1.2,9.3c0.6,5.8-1.9,11.1-3.4,16.6
				c-0.8,3.1,4,4.4,4.8,1.3c1.5-5.8,4.1-11.4,3.6-17.5c-0.3-3.1-1-6.2-1.2-9.3c-0.2-3.3-0.2-6.7-0.1-10
				C246.9,187.7,241.9,187.7,241.9,190.9L241.9,190.9z"/>
		</g>
	</g>
	<g>
		<path class="st1" d="M243.6,229.4c1.5-5.9,1.9-12.1,1.3-18.1"/>
		<g>
			<path class="st1" d="M246,230c1.5-6.1,2-12.5,1.4-18.8c-0.1-1.3-1.1-2.5-2.5-2.5c-1.3,0-2.6,1.1-2.5,2.5
				c0.5,5.9,0.1,11.7-1.3,17.5c-0.3,1.3,0.4,2.7,1.7,3.1C244.2,232.1,245.7,231.4,246,230L246,230z"/>
		</g>
	</g>
	<g>
		<path class="st1" d="M245.2,211.1c1.4,9.4,0.1,19.3-3.8,28"/>
		<g>
			<path class="st1" d="M242.8,211.7c1.2,8.8,0,18-3.5,26.1c-0.5,1.2-0.4,2.7,0.9,3.4c1.1,0.6,2.9,0.3,3.4-0.9
				c4.1-9.5,5.5-19.7,4-29.9c-0.2-1.3-1.9-2.1-3.1-1.7C243.1,209,242.6,210.4,242.8,211.7L242.8,211.7z"/>
		</g>
	</g>
	<g>
		<path class="st1" d="M211.9,237.7c7.6-1.1,15.5,0.1,22.3,3.5"/>
		<g>
			<path class="st1" d="M212.6,240.1c6.9-1,14.1,0.2,20.4,3.3c1.2,0.6,2.7,0.3,3.4-0.9c0.6-1.1,0.3-2.8-0.9-3.4
				c-7.6-3.7-15.9-5-24.2-3.8c-1.3,0.2-2.1,1.9-1.7,3.1C209.9,239.8,211.2,240.3,212.6,240.1L212.6,240.1z"/>
		</g>
	</g>
	<g>
		<path class="st1" d="M238.1,260.7c-0.1,1.9-0.1,3.8,0.1,5.6s0.9,3.7,2.1,5.2c1.1,1.4,2.7,2.4,4.4,3.1"/>
		<g>
			<path class="st1" d="M235.6,260.7c-0.1,3.4-0.1,6.9,1.3,10c1.4,3.1,4.1,4.9,7.1,6.2c1.2,0.5,2.8-0.5,3.1-1.7
				c0.3-1.5-0.5-2.5-1.7-3.1c0.5,0.2-0.4-0.2-0.4-0.2c-0.3-0.1-0.5-0.3-0.8-0.4s-0.5-0.3-0.8-0.5c-0.2-0.2-0.2-0.2,0,0
				c-0.1-0.1-0.2-0.2-0.3-0.3c-0.2-0.2-0.4-0.4-0.6-0.6c-0.1-0.1-0.2-0.2-0.3-0.3c0.2,0.2,0.1,0.2,0-0.1c-0.2-0.3-0.3-0.5-0.5-0.8
				c0-0.1-0.4-0.9-0.2-0.5c-0.2-0.6-0.4-1.2-0.5-1.8c0-0.1-0.2-1-0.1-0.5c-0.1-0.4-0.1-0.7-0.1-1.1c-0.1-1.4,0-2.9,0-4.3
				c0-1.3-1.2-2.6-2.5-2.5C236.7,258.3,235.6,259.3,235.6,260.7L235.6,260.7z"/>
		</g>
	</g>
	<g>
		<path class="st1" d="M244,242.5c3.6,5.8,8,11,13.2,15.4c-2.5,0.3-4.9-0.5-7.3-0.9s-5.1-0.6-7.2,0.9c-1.4,1-2.2,2.6-3,4.2
			c-1.2,2.4-2.4,5.2-1.1,7.5c-0.2-2.4,0-4.8,0.4-7.1c-0.7,3.4,0.4,7.2,2.9,9.6"/>
		<g>
			<path class="st1" d="M241.8,243.8c3.7,5.9,8.3,11.3,13.6,15.9c0.6-1.4,1.2-2.8,1.8-4.3c-2.8,0.3-5.4-0.7-8.2-1.1
				c-2.6-0.3-5.5-0.1-7.7,1.5c-2.2,1.6-3.4,4.1-4.5,6.5c-1.2,2.8-1.8,5.6-0.4,8.5c1.1,2.2,4.8,1.2,4.7-1.3c-0.2-2.2-0.1-4.3,0.4-6.4
				c-1.6-0.4-3.2-0.9-4.8-1.3c-0.8,4.4,0.4,8.8,3.6,12c2.3,2.3,5.8-1.2,3.5-3.5c-1.8-1.9-2.8-4.6-2.3-7.2c0.2-1.3-0.4-2.7-1.7-3.1
				c-1.2-0.3-2.8,0.4-3.1,1.7c-0.5,2.6-0.7,5.1-0.5,7.7c1.6-0.4,3.1-0.8,4.7-1.3c-0.7-1.5,0.4-3.6,1.1-5c0.7-1.4,1.5-3.2,3.1-3.8
				c1.6-0.6,3.5-0.3,5.2,0.1c2.3,0.5,4.7,1.1,7.1,0.8c1-0.1,1.9-0.5,2.3-1.5c0.4-0.9,0.2-2.1-0.5-2.7c-5-4.3-9.3-9.3-12.8-14.9
				C244.5,238.5,240.1,241,241.8,243.8L241.8,243.8z"/>
		</g>
	</g>
	<g>
		<path class="st1" d="M242.4,244.9c1.9,2.8,3.9,5.5,5.8,8.3c-2.2,0.2-4.4,0.3-6.6,0.5c1-0.3,2.1-0.7,2.9-1.3
			c0.8-0.7,1.4-1.7,1.2-2.8c-0.2-1-0.9-1.7-1.4-2.5c-1-1.7-0.9-3.7-0.7-5.6c0.6-5.3,1.8-10.6,3.5-15.7c-4,6.6-4.1,15.4-0.2,22.1"/>
		<g>
			<path class="st1" d="M240.2,246.2c1.9,2.8,3.9,5.5,5.8,8.3c0.7-1.3,1.4-2.5,2.2-3.8c-2.2,0.2-4.4,0.3-6.6,0.5
				c0.2,1.6,0.4,3.3,0.7,4.9c2.6-0.8,5.3-2.2,5.9-5.1c0.3-1.5-0.2-3-1.1-4.2c-0.7-1-1.1-1.8-1.1-3c0-2.8,0.6-5.7,1.1-8.4
				c0.6-3,1.5-6,2.4-8.9c0.9-2.7-3.2-4.3-4.6-1.9c-4.4,7.5-4.5,17-0.2,24.6c1.6,2.8,5.9,0.3,4.3-2.5c-3.4-6-3.3-13.6,0.2-19.6
				c-1.5-0.6-3-1.3-4.6-1.9c-1.8,5.2-3,10.6-3.6,16.1c-0.3,2.5-0.3,5.1,1.1,7.3c0.2,0.3,1.1,1.1,1,1.5c-0.1,0.7-1.8,1.1-2.3,1.3
				c-2.6,0.8-2.3,5.1,0.7,4.9c2.2-0.2,4.4-0.3,6.6-0.5c1.7-0.1,3.3-2.1,2.2-3.8c-1.9-2.8-3.9-5.5-5.8-8.3c-0.8-1.1-2.2-1.6-3.4-0.9
				C240,243.4,239.4,245.1,240.2,246.2L240.2,246.2z"/>
		</g>
	</g>
	<g>
		<path class="st1" d="M245.8,200.2c-0.2,5.6,0.8,11.2,2.9,16.3c0.6,1.4,1.2,2.9,0.9,4.3c-0.5,2.3-3.3,3.9-3,6.3"/>
		<g>
			<path class="st1" d="M243.3,200.2c-0.2,5.4,0.7,10.9,2.6,15.9c0.4,1.1,1.2,2.4,1.3,3.6c0.1,0.8-0.3,1.3-0.8,1.9
				c-1.2,1.7-2.5,3.3-2.3,5.5c0.1,1.3,1.1,2.5,2.5,2.5c1.3,0,2.6-1.1,2.5-2.5c-0.1-0.7,0.1-0.9,0.7-1.6c0.5-0.7,1.1-1.4,1.6-2.2
				c1.4-2.6,0.7-5-0.3-7.6c-2-4.9-2.9-10.1-2.8-15.5C248.4,196.9,243.4,196.9,243.3,200.2L243.3,200.2z"/>
		</g>
	</g>
	<g>
		<path class="st1" d="M245.8,199.1c-0.2-2.8-0.3-5.5-0.5-8.3c0-0.6-0.1-1.2,0.1-1.7c0.2-0.6,0.5-1.1,1.1-1.3"/>
		<g>
			<path class="st1" d="M248.3,199.1c-0.1-1.9-0.2-3.9-0.4-5.8c-0.1-0.9-0.1-1.9-0.2-2.8c0-0.2,0-0.4,0-0.6c0-0.6-0.1,0.5,0-0.1
				c0.1-0.5-0.3,0.4,0,0c-0.2,0.3-0.3,0.3-0.1,0.1c-0.2,0.2-0.4,0.3-0.6,0.3c0.6-0.2,1.1-0.5,1.5-1.1c0.3-0.5,0.4-1.3,0.3-1.9
				c-0.4-1.2-1.8-2.3-3.1-1.7c-1.4,0.6-2.5,1.6-2.9,3.2c-0.3,1.2-0.1,2.4,0,3.5c0.1,2.3,0.3,4.6,0.4,6.9c0.1,1.3,1.1,2.6,2.5,2.5
				C247.1,201.5,248.4,200.5,248.3,199.1L248.3,199.1z"/>
		</g>
	</g>
	<g>
		<path class="st1" d="M319.6,263.1c1.2-4.6-1.9-9.8-6.4-11.5c-4.5-1.8-9.7-0.7-13.7,2.1c2.4-2.2,5.6-3.3,8.8-4.1
			c3.2-0.8,6.4-1.4,9.4-2.9s5.5-4,6.1-7.2c0.6-4.9,1.7-9.8,3.4-14.5c0,0.4,0,0.9,0,1.3"/>
		<g>
			<path class="st1" d="M322,263.8c1.3-5.5-1.7-11.3-6.6-13.9c-5.5-2.9-12.2-1.7-17.2,1.6c1,1.3,2,2.6,3,3.9c2.7-2.4,6.5-3.2,9.9-4
				c3.8-0.9,7.5-2,10.6-4.5c1.3-1.1,2.5-2.4,3.4-3.9c0.9-1.7,1.1-3.4,1.4-5.3c0.6-4.1,1.7-8.2,3-12.2c-1.6-0.2-3.3-0.4-4.9-0.7
				c0,0.4,0,0.9,0,1.3c0,3.2,5,3.2,5,0c0-0.4,0-0.9,0-1.3c0-2.9-4-3.3-4.9-0.7c-1.3,3.8-2.3,7.7-3,11.7c-0.3,1.7-0.3,3.4-1.2,4.8
				c-0.7,1.1-1.7,2.1-2.8,2.8c-3,2-6.7,2.6-10.2,3.5c-3.6,0.9-7.1,2.2-9.9,4.7c-2.1,1.9,0.7,5.5,3,3.9c3.4-2.2,7.9-3.6,11.8-1.8
				c3.1,1.4,5.4,5,4.6,8.4C316.5,265.6,321.3,266.9,322,263.8L322,263.8z"/>
		</g>
	</g>
	<g>
		<path class="st1" d="M312,250.8c3.2,0.4,6.6-0.8,8.7-3.2c-0.2,2.8-0.7,5.6-1.4,8.3c-0.3-0.7-0.7-1.4-1-2.1c0,5.9-2.6,11.7-7,15.6"
			/>
		<g>
			<path class="st1" d="M312,253.3c3.9,0.5,7.8-1.1,10.5-3.9c-1.4-0.6-2.8-1.2-4.3-1.8c-0.2,2.6-0.7,5.1-1.3,7.6
				c1.5-0.2,3-0.4,4.6-0.6c-0.3-0.7-0.7-1.4-1-2.1c-1.1-2.3-4.6-1.1-4.7,1.3c0,5.3-2.3,10.3-6.2,13.8c-1,0.9-0.9,2.6,0,3.5
				c1,1,2.5,0.9,3.5,0c4.9-4.4,7.7-10.8,7.7-17.3c-1.6,0.4-3.1,0.8-4.7,1.3c0.3,0.7,0.7,1.4,1,2.1c0.9,2,4,1.4,4.6-0.6
				c0.8-2.9,1.3-5.9,1.5-8.9c0.2-2.2-2.8-3.3-4.3-1.8c-1.9,2-4.3,2.7-7,2.4c-1.3-0.2-2.5,1.3-2.5,2.5
				C309.5,252.2,310.6,253.1,312,253.3L312,253.3z"/>
		</g>
	</g>
	<g>
		<path class="st1" d="M288.4,194.1c1.9,2.2,3.8,4.4,5.3,7c1.4,2.5,2.4,5.4,2.1,8.3c-0.2,2.7-1.5,5.1-2.3,7.7
			c-0.8,2.5-1.3,5.4,0,7.8"/>
		<g>
			<path class="st1" d="M286.6,195.8c3.3,3.7,7.4,8.4,6.6,13.8c-0.4,2.7-1.8,5.2-2.5,7.8c-0.8,3-0.8,5.9,0.5,8.7
				c0.6,1.2,2.3,1.5,3.4,0.9c1.2-0.7,1.5-2.2,0.9-3.4c-1.1-2.3,0-5.1,0.8-7.4c1-2.8,2.1-5.6,1.9-8.6c-0.4-6.1-4.3-10.9-8.1-15.3
				c-0.9-1-2.6-0.9-3.5,0C285.6,193.3,285.7,194.8,286.6,195.8L286.6,195.8z"/>
		</g>
	</g>
	<g>
		<path class="st1" d="M282.4,192.6c1.3,6.1,2,12.4,2.1,18.6c0.1,3.6,0,7.2,0.5,10.7c0.5,3.5,1.8,7.1,4.2,9.7"/>
		<g>
			<path class="st1" d="M280,193.3c1.4,7,2,14,2.1,21.1c0.1,6.8,0.7,13.7,5.3,19c2.1,2.4,5.7-1.1,3.5-3.5
				c-4.2-4.7-3.8-11.6-3.9-17.4c-0.1-6.9-0.9-13.8-2.2-20.5c-0.3-1.3-1.8-2.1-3.1-1.7C280.4,190.6,279.7,191.9,280,193.3L280,193.3z
				"/>
		</g>
	</g>
	<g>
		<path class="st1" d="M289.1,198.8c0.2,5.6,4.2,10.3,5.4,15.7c1.2,5.7-0.7,11.8,0.9,17.4c0.3,1.1,0.7,2.1,0.6,3.3
			c-0.3,3.4-5.3,4.8-5.9,8.2"/>
		<g>
			<path class="st1" d="M286.6,198.8c0.2,4.4,2.3,8.1,4,12.1c0.8,1.8,1.5,3.8,1.7,5.8c0.2,2.3,0,4.7-0.1,7c-0.1,2.4-0.1,4.8,0.3,7.1
				c0.2,1.1,0.6,2.2,0.8,3.4c0,0.2,0,1.1,0.1,0.9c-0.1,0.3,0,0.1-0.2,0.5c-0.6,0.9-1.9,1.9-2.9,2.8c-1.3,1.2-2.3,2.6-2.7,4.3
				c-0.7,3.1,4.1,4.5,4.8,1.3c0.1-0.6,0.3-0.9,0.6-1.3c0.5-0.6,1.1-1.1,1.7-1.6c1.2-1.1,2.4-2.2,3.1-3.7c1-2.3,0.3-4.3-0.2-6.7
				c-0.5-2.2-0.5-4.4-0.4-6.7c0.2-4.7,0.4-9.2-1.4-13.7c-1.5-3.8-4-7.5-4.2-11.6C291.4,195.6,286.4,195.6,286.6,198.8L286.6,198.8z"
				/>
		</g>
	</g>
	<g>
		<path class="st1" d="M293.5,210.9c2.1,2,3.4,4.9,3.4,7.8c0,6.1-5,11.6-4.1,17.6"/>
		<g>
			<path class="st1" d="M291.8,212.6c1.4,1.4,2.4,3.2,2.6,5.2c0.2,2.1-0.4,4.1-1.1,6.1c-1.6,4.3-3.5,8.3-2.8,13
				c0.2,1.3,1.9,2.1,3.1,1.7c1.4-0.4,1.9-1.7,1.7-3.1c-0.3-2,0.5-4.1,1.1-6c0.8-2.2,1.8-4.3,2.4-6.5c1.4-5,0.3-10.3-3.5-13.9
				C293,206.9,289.5,210.4,291.8,212.6L291.8,212.6z"/>
		</g>
	</g>
	<g>
		<path class="st1" d="M280.2,184.5c2.7,0.5,5.4-0.2,7.9-1.1c2.5-0.9,5.1-2,7.7-2.4s5.6,0.1,7.6,2"/>
		<g>
			<path class="st1" d="M279.5,186.9c4.5,0.8,8.5-0.8,12.7-2.3c2.9-1,6.9-2.2,9.4,0.2c2.4,2.2,5.9-1.4,3.5-3.5
				c-3.3-3-7.8-3.3-11.9-2.2c-4,1-8.2,3.8-12.5,3c-1.3-0.2-2.7,0.4-3.1,1.7C277.5,185.1,278.2,186.7,279.5,186.9L279.5,186.9z"/>
		</g>
	</g>
	<g>
		<path class="st1" d="M301.7,186c-2,1.1-4,2.2-5.8,3.7s-3.2,3.4-3.8,5.6s-0.1,4.8,1.4,6.4"/>
		<g>
			<path class="st1" d="M300.5,183.8c-3.7,2-7.4,4.3-9.6,8c-2.1,3.7-2.1,8.5,0.9,11.7c0.9,1,2.6,1,3.5,0c0.9-1,0.9-2.5,0-3.5
				c-0.3-0.3,0,0.1-0.1-0.1c-0.1-0.1-0.2-0.3-0.3-0.4c-0.1-0.2-0.2-0.3-0.3-0.5c0.1,0.2,0,0.1,0-0.1c-0.1-0.3-0.2-0.7-0.3-1
				c0-0.3,0,0.3,0-0.2c0-0.2,0-0.3,0-0.5c0-0.2,0-0.4,0-0.6c0-0.4-0.1,0.3,0,0c0.1-0.4,0.2-0.7,0.3-1.1c0,0,0.2-0.6,0.1-0.4
				c-0.1,0.2,0.2-0.4,0.2-0.4c0.2-0.3,0.4-0.7,0.6-1c0.1-0.1,0.2-0.3,0.3-0.4c0.3-0.4-0.4,0.4,0.2-0.2c0.3-0.3,0.5-0.6,0.8-0.8
				c0.5-0.5,1.1-1,1.6-1.4c1.4-1,3-1.9,4.5-2.7c1.1-0.6,1.6-2.3,0.9-3.4C303.2,183.5,301.7,183.1,300.5,183.8L300.5,183.8z"/>
		</g>
	</g>
	<g>
		<path class="st1" d="M276.3,183.3c3.4,1.4,7.2,1.1,10.7,0.4c3.5-0.7,7-1.9,10.6-2.3s7.5,0.1,10.3,2.4"/>
		<g>
			<path class="st1" d="M275.6,185.7c5.4,2.1,11.2,0.6,16.6-0.8c4.3-1.1,10-2.5,13.9,0.6c1.1,0.8,2.5,1,3.5,0c0.9-0.9,1.1-2.7,0-3.5
				c-4.6-3.7-10.4-3.7-16-2.5c-5.5,1.2-11.2,3.6-16.7,1.4c-1.3-0.5-2.7,0.5-3.1,1.7C273.5,184,274.4,185.2,275.6,185.7L275.6,185.7z
				"/>
		</g>
	</g>
	<g>
		<path class="st1" d="M294.7,189.2c5.8-3.1,13.3-3,19,0.4"/>
		<g>
			<path class="st1" d="M296,191.4c5.1-2.7,11.5-2.5,16.5,0.4c2.8,1.6,5.3-2.7,2.5-4.3c-6.6-3.8-14.8-4-21.5-0.4
				c-1.2,0.6-1.6,2.3-0.9,3.4C293.3,191.7,294.8,192,296,191.4L296,191.4z"/>
		</g>
	</g>
	<g>
		<path class="st1" d="M199.1,132.2c0.4,18.5,3.7,36.9,9.7,54.3c-2.2-3.5-4.5-7.1-6.7-10.6"/>
		<g>
			<path class="st1" d="M196.6,132.2c0.4,18.7,3.7,37.3,9.8,55c1.5-0.6,3-1.3,4.6-1.9c-2.2-3.5-4.5-7.1-6.7-10.6
				c-1.7-2.7-6-0.2-4.3,2.5c2.2,3.5,4.5,7.1,6.7,10.6c1.5,2.3,5.5,0.9,4.6-1.9c-5.9-17.3-9.2-35.4-9.6-53.6
				C201.5,128.9,196.5,128.9,196.6,132.2L196.6,132.2z"/>
		</g>
	</g>
	<g>
		<path class="st1" d="M201.4,168.8c-0.1,1.8,0.8,3.7,2.1,5c1.3,1.3,3,2.1,4.8,2.7c4,1.4,8.4,1.8,12.6,1.1c-3.3-1.6-7.3-0.4-11-1.1
			c-2.4-0.5-4.6-1.8-6.1-3.7c-1.5-1.9-2.3-4.3-2.2-6.8"/>
		<g>
			<path class="st1" d="M198.9,168.8c-0.2,5.1,4.1,8.4,8.4,10c4.6,1.7,9.5,2,14.3,1.2c2.1-0.3,2.5-3.7,0.6-4.6
				c-2.1-1-4.3-1.3-6.6-1.3c-2,0-4.1,0.2-6-0.4c-3.3-1-5.5-4.3-5.5-7.8c0-3.2-5-3.2-5,0c-0.1,4.9,2.7,9.7,7.1,11.8
				c2.3,1.1,4.6,1.4,7.1,1.4c2.1,0,4.4-0.3,6.3,0.5c0.2-1.5,0.4-3,0.6-4.6c-3.5,0.6-7.2,0.2-10.6-0.9c-1.5-0.5-3-1.1-4.1-2.1
				c-1.1-1-1.7-2.1-1.6-3.4c0.1-1.4-1.2-2.5-2.5-2.5C200,166.3,199,167.5,198.9,168.8L198.9,168.8z"/>
		</g>
	</g>
	<g>
		<path class="st1" d="M200.6,143.8c-0.5,3.7-0.1,7.6,0.9,11.2c1,3.6,2.6,7.1,4.2,10.5c1,2.1,2.1,4.2,3.9,5.7c3.6,3,9,2.8,12.9,5.3"
			/>
		<g>
			<path class="st1" d="M198.1,143.8c-1.1,8.5,2.3,16.8,6.1,24.2c1.8,3.4,4.2,5.9,7.9,7.4c3,1.2,6.4,1.5,9.2,3.2
				c2.7,1.7,5.3-2.6,2.5-4.3c-2.8-1.7-6-2.3-9-3.2c-1.2-0.4-2.4-0.9-3.4-1.7c-1.3-1-2.1-2.5-2.8-3.9c-3.5-6.7-6.5-14-5.5-21.7
				c0.2-1.3-1.3-2.5-2.5-2.5C199.1,141.3,198.3,142.4,198.1,143.8L198.1,143.8z"/>
		</g>
	</g>
	<g>
		<path class="st1" d="M204.2,171.9c2.4,1,4.8,2.2,7.2,3.4"/>
		<g>
			<path class="st1" d="M202.9,174.1c2.4,1,4.8,2.2,7.2,3.4c1.2,0.6,2.8,0.3,3.4-0.9c0.6-1.2,0.3-2.8-0.9-3.4
				c-2.4-1.2-4.8-2.4-7.2-3.4c-0.6-0.3-1.2-0.4-1.9-0.3c-0.6,0.2-1.2,0.6-1.5,1.1c-0.3,0.6-0.5,1.3-0.3,1.9
				C201.9,173.2,202.3,173.9,202.9,174.1L202.9,174.1z"/>
		</g>
	</g>
	<g>
		<path class="st1" d="M220.2,176.1c3.7-0.6,7.6,0.1,10.9,2c2,1.1,3.8,2.6,5.9,3.3c1.9,0.6,4,0.5,5.9,0.1c2-0.4,3.8-1.2,5.7-2"/>
		<g>
			<path class="st1" d="M220.9,178.5c2.3-0.3,4.6,0,6.8,0.7c2.3,0.8,4.2,2.4,6.4,3.5c5.3,2.8,10.7,1,15.9-1.2
				c1.2-0.5,1.5-2.4,0.9-3.4c-0.8-1.3-2.2-1.4-3.4-0.9c-2.2,0.9-4.5,1.9-6.9,2c-2.5,0.1-4.4-1-6.4-2.3c-4.4-2.8-9.3-3.9-14.5-3.2
				c-1.3,0.2-2.1,1.9-1.7,3.1C218.2,178.2,219.6,178.7,220.9,178.5L220.9,178.5z"/>
		</g>
	</g>
	<g>
		<path class="st1" d="M245,180.6c3.1-3.6,7.9-5.8,12.7-5.8c4.8,0,9.5,2.2,12.6,5.9"/>
		<g>
			<path class="st1" d="M246.7,182.4c2.8-3.1,6.7-5.1,10.9-5.1c4.2,0,8.1,2,10.9,5.2c0.9,1,2.6,0.9,3.5,0c1-1,0.9-2.5,0-3.5
				c-3.6-4.1-9-6.6-14.4-6.6c-5.5,0-10.9,2.4-14.5,6.5C241.1,181.2,244.6,184.8,246.7,182.4L246.7,182.4z"/>
		</g>
	</g>
	<g>
		<path class="st1" d="M237,181.5c3.8,0.4,7.3-1.8,10.4-3.9s6.4-4.5,10.2-4.6c3.2-0.1,6.2,1.5,9.1,3.1c0.9,0.5,1.9,1.1,2.5,1.9
			c0.7,0.8,1,2,0.4,3"/>
		<g>
			<path class="st1" d="M237,184c6.6,0.5,11.1-4.6,16.5-7.4c2.6-1.4,5.2-1.5,7.9-0.5c1.4,0.5,2.7,1.3,4,2c0.5,0.3,1,0.5,1.5,0.9
				c0.2,0.2,0.4,0.4,0.5,0.7c0,0.1-0.2,0.4,0.1-0.2c-0.5,1.2-0.4,2.7,0.9,3.4c1.1,0.6,2.9,0.3,3.4-0.9c0.8-1.9,0.7-3.8-0.4-5.5
				c-1-1.5-2.6-2.4-4.2-3.2c-3.5-1.9-7.2-3.4-11.3-2.8c-3.6,0.5-6.7,2.6-9.6,4.7c-2.8,1.9-5.8,4-9.3,3.7c-1.3-0.1-2.5,1.2-2.5,2.5
				C234.5,183,235.6,183.9,237,184L237,184z"/>
		</g>
	</g>
	<g>
		<path class="st1" d="M265.6,176.1c3.4,0.8,6.3,3,9.2,5c2.9,2,6,4,9.5,4.1"/>
		<g>
			<path class="st1" d="M264.9,178.5c3.4,0.8,6.2,3,9,5c3.2,2.2,6.5,4,10.4,4.2c1.3,0.1,2.5-1.2,2.5-2.5c0-1.4-1.1-2.4-2.5-2.5
				c-3.1-0.2-6.1-2.3-8.7-4.1c-2.9-2-5.9-4.1-9.4-4.9c-1.3-0.3-2.7,0.4-3.1,1.7C262.8,176.7,263.6,178.2,264.9,178.5L264.9,178.5z"
				/>
		</g>
	</g>
	<g>
		<path class="st1" d="M193.8,191c-2.7-10.5-12.5-18.7-23.2-19.7c-1.5-0.1-3.3-0.3-4-1.7c-0.8-1.5,0.6-3.3,1.9-4.3
			c3.9-3.1,8.8-4.8,13.5-6.6c4.7-1.8,9.5-3.8,13-7.4c3.5-3.6,5.5-9.1,3.6-13.8"/>
		<g>
			<path class="st1" d="M196.2,190.3c-2.9-10.7-12.3-19.4-23.2-21.2c-1.2-0.2-2.6-0.2-3.8-0.5c0,0-0.3-0.1-0.3-0.1
				c-0.9,0,0.3-0.4-0.1,0.1c0.2-0.3,0.3-0.5,0.6-0.8c2-2.2,5.3-3.6,8-4.7c5.9-2.5,12.1-4.2,17.2-8.2c5.3-4.1,9-11.5,6.4-18.2
				c-0.5-1.3-1.7-2.1-3.1-1.7c-1.2,0.3-2.2,1.8-1.7,3.1c2.1,5.3-1.3,10.7-5.6,13.6c-5.3,3.6-11.7,5.1-17.4,7.8
				c-2.7,1.3-5.8,2.9-7.7,5.3c-2.3,2.9-1.8,6.9,1.9,8.3c1.2,0.4,2.4,0.5,3.6,0.6c1.3,0.1,2.6,0.4,3.9,0.8c2.4,0.7,4.7,1.8,6.8,3.2
				c4.8,3.2,8.4,8.2,9.9,13.7C192.3,194.7,197.1,193.4,196.2,190.3L196.2,190.3z"/>
		</g>
	</g>
	<g>
		<path class="st1" d="M191.2,85.1c-0.6,6.4-4.9,12.3-10.8,14.9c-1.1,0.5-2.3,0.9-2.7,2c-0.7,1.6,0.9,3.4,2.6,3.6
			c1.7,0.2,3.3-0.8,4.7-1.8c1.4-1,2.8-2.2,4.5-2.5s3.8,0.6,4,2.3"/>
		<g>
			<path class="st1" d="M188.7,85.1c-0.6,5.1-4,9.9-8.7,12.3c-1.4,0.7-2.9,1.2-4,2.5c-1.2,1.5-1.3,3.6-0.3,5.2
				c2.1,3.5,6.4,3.3,9.6,1.4c1.4-0.8,2.6-2.1,4.1-2.7c0.2-0.1,0.3-0.1,0.5-0.1c0.9-0.3-0.1,0,0.3,0c0.4,0,0.2-0.1,0.6,0.1
				c0.1,0,0.1,0.1,0.2,0.1c0.2,0.2,0.1,0,0,0c0.3,0.5,0-0.2,0.1,0.3c0.3,1.3,1.8,2.1,3.1,1.7c1.4-0.4,2-1.7,1.7-3.1
				c-0.7-3.4-4.7-4.8-7.7-3.9c-1.6,0.5-3,1.5-4.3,2.5c-0.9,0.6-2.3,1.7-3.4,1.6c0,0-0.4-0.1-0.2-0.1c-0.3-0.2-0.1-0.1-0.3-0.3
				c0.2,0.2-0.1,0,0-0.1c0,0.1,0.1,0.2,0,0.2c-0.1,0.3-0.2,0.2,0,0.2c0.6-0.1,1.3-0.7,1.8-0.9c0.6-0.3,1.3-0.6,1.9-1
				c2.6-1.6,4.9-3.8,6.6-6.4c2-2.9,3.1-6.2,3.4-9.6c0.1-1.3-1.3-2.5-2.5-2.5C189.7,82.6,188.8,83.8,188.7,85.1L188.7,85.1z"/>
		</g>
	</g>
	<g>
		<path class="st1" d="M179.8,103.5c5.4-1.3,10-5.8,11.2-11.2c-1.1,3.7-1,7.7-0.2,11.5c0.8,3.8,2.1,7.5,3.5,11.1c0-3-1-6.1-3.1-8.3
			s-5.3-3.4-8.2-2.8"/>
		<g>
			<path class="st1" d="M180.4,105.9c6.3-1.5,11.4-6.7,13-13c0.8-3.1-3.9-4.4-4.8-1.3c-2.3,8.2,0.4,16.3,3.3,23.9
				c0.4,1.2,1.4,2,2.7,1.8c1.2-0.2,2.2-1.2,2.2-2.5c0-3.8-1.3-7.6-4.1-10.3c-2.8-2.7-6.6-3.8-10.4-3.2c-1.3,0.2-2.1,1.9-1.7,3.1
				c0.4,1.4,1.7,2,3.1,1.7c5-0.9,8.1,4.3,8.2,8.6c1.6-0.2,3.3-0.4,4.9-0.7c-2.5-6.7-5.3-14.1-3.3-21.3c-1.6-0.4-3.2-0.9-4.8-1.3
				c-1.1,4.7-4.8,8.3-9.5,9.5C176,101.8,177.3,106.7,180.4,105.9L180.4,105.9z"/>
		</g>
	</g>
	<g>
		<path class="st1" d="M182.7,104.8c2.8-1.2,6.3-0.6,8.6,1.4c2.9,2.5,3.7,6.6,4.3,10.4"/>
		<g>
			<path class="st1" d="M183.3,107.2c0.4-0.2,0.8-0.3,1.2-0.4c0.2,0,0.4-0.1,0.6-0.1c0.2,0,0.1,0-0.2,0c0.1,0,0.3,0,0.4,0
				c0.4,0,0.8,0,1.2,0c0.6,0-0.5-0.1,0.1,0c0.2,0,0.4,0.1,0.6,0.1c0.3,0.1,0.8,0.2,1.1,0.4c-0.5-0.3,0,0,0.1,0.1
				c0.2,0.1,0.4,0.2,0.6,0.3c0.2,0.1,0.3,0.2,0.5,0.3c0.1,0.1,0.1,0.1-0.1-0.1c0.1,0.1,0.2,0.2,0.3,0.3c0.3,0.3,0.5,0.5,0.8,0.8
				c0.4,0.5-0.3-0.4,0.1,0.1c0.1,0.2,0.2,0.3,0.3,0.5c0.2,0.3,0.4,0.7,0.6,1c0.1,0.2,0.2,0.4,0.3,0.6c0.1,0.2,0.1,0.1-0.1-0.2
				c0,0.1,0.1,0.2,0.1,0.3c0.2,0.4,0.3,0.8,0.4,1.2c0.5,1.6,0.8,3.2,1,4.8c0.2,1.3,1.9,2.1,3.1,1.7c1.4-0.5,2-1.7,1.7-3.1
				c-0.6-3.9-1.5-7.9-4.3-10.8c-2.9-3.1-7.8-4.3-11.7-2.7c-1.2,0.5-2.2,1.7-1.7,3.1C180.6,106.6,182,107.7,183.3,107.2L183.3,107.2z
				"/>
		</g>
	</g>
	<g>
		<path class="st1" d="M192.4,106.7c0.5,6.9,1.6,13.7,3.3,20.3"/>
		<g>
			<path class="st1" d="M189.9,106.7c0.5,7.1,1.6,14.1,3.4,21c0.8,3.1,5.6,1.8,4.8-1.3c-1.7-6.5-2.8-13-3.3-19.7
				c-0.1-1.3-1.1-2.5-2.5-2.5C191.1,104.2,189.8,105.4,189.9,106.7L189.9,106.7z"/>
		</g>
	</g>
	<g>
		<path class="st1" d="M189.6,91c0.3-6.8,0.5-13.7,0.8-20.5"/>
		<g>
			<path class="st1" d="M192.1,91c0.3-6.8,0.5-13.7,0.8-20.5c0-1.4-1.2-2.5-2.5-2.5c-1.4,0-2.4,1.1-2.5,2.5
				c-0.3,6.8-0.5,13.7-0.8,20.5c0,1.4,1.2,2.5,2.5,2.5C191,93.5,192,92.4,192.1,91L192.1,91z"/>
		</g>
	</g>
	<g>
		<path class="st1" d="M198.4,124.2c3.2,11.9,4,24.5,2.3,36.7"/>
		<g>
			<path class="st1" d="M196,124.8c3.1,11.5,3.9,23.6,2.3,35.4c-0.2,1.3,0.3,2.7,1.7,3.1c1.2,0.3,2.9-0.4,3.1-1.7
				c1.7-12.7,1-25.6-2.3-38C200,120.4,195.2,121.7,196,124.8L196,124.8z"/>
		</g>
	</g>
	<g>
		<path class="st1" d="M169.4,168c2.9,0.8,5.8-1,8.4-2.6c3.4-2.2,6.8-4.5,10.2-6.7c1.4-0.9,2.9-1.9,3.8-3.3c0.6-1,1-2.1,1.3-3.3
			c1.3-4.3,2.6-8.8,2.2-13.3c-0.1,3.4-0.4,6.9-1.6,10.1c-1.1,3.2-3.1,6.3-6,8.2c-2.8,1.8-6.2,2.4-9.1,3.9c-1.3,0.7-2.5,1.5-3.6,2.5
			c-0.5,0.5-1,1-1.3,1.6c-0.3,0.6-0.2,1.4,0.2,2c0.5,0.6,1.5,0.7,2.3,0.7c2.2,0,4.4,0,6.6,0"/>
		<g>
			<path class="st1" d="M168.7,170.4c4.2,0.9,7.7-1.2,11.1-3.4c3.4-2.2,6.8-4.4,10.2-6.7c1.5-1,2.9-2.2,3.9-3.7
				c1.1-1.7,1.6-3.8,2.1-5.7c1.1-4,2-8.1,1.7-12.2c-0.3-3.2-4.9-3.3-5,0c-0.2,4.2-0.6,8.6-2.8,12.4c-0.9,1.5-2,2.8-3.5,3.8
				c-1.7,1.1-3.7,1.8-5.7,2.5c-2.1,0.8-4.1,1.7-5.9,3c-1.9,1.4-3.8,3.1-3.8,5.6c0,2.7,2.2,4.1,4.7,4.3c2.4,0.2,4.8,0,7.2,0
				c3.2,0,3.2-5,0-5c-2.2,0-4.4,0-6.6,0c0,0-0.8,0-0.8-0.1c0.4,0.2,0.6,0.5,0.5,0.9c0-0.1,0.1-0.2,0.1-0.3c0.6-0.4,1.2-1.1,1.8-1.6
				c3.2-2.2,7.1-2.8,10.5-4.8c7.3-4.3,9-13,9.3-20.8c-1.7,0-3.3,0-5,0c0.3,3.4-0.4,6.7-1.3,9.9c-0.4,1.5-0.8,3.2-1.4,4.6
				c-0.6,1.3-1.7,2.1-2.8,2.9c-2.9,2-5.9,3.9-8.8,5.8c-2.2,1.5-5.3,4.2-8.3,3.6C166.9,164.9,165.6,169.7,168.7,170.4L168.7,170.4z"
				/>
		</g>
	</g>
	<g>
		<path class="st1" d="M180.5,167.7c4.4-3.8,8.8-7.6,13.2-11.5c1.3,5.3-1.6,10.8-1.6,16.3c0,2.6,0.6,5.2,1,7.8s0.5,5.3-0.5,7.8"/>
		<g>
			<path class="st1" d="M182.3,169.5c4.4-3.8,8.8-7.6,13.2-11.5c-1.4-0.4-2.8-0.7-4.2-1.1c1.1,5-1.5,10-1.7,15
				c-0.2,5.2,2.6,10.5,0.6,15.6c-0.5,1.3,0.5,2.7,1.7,3.1c1.4,0.4,2.6-0.5,3.1-1.7c2.1-5.7-0.7-11.2-0.5-16.9
				c0.1-2.6,0.9-5.2,1.3-7.7c0.5-2.9,0.8-5.7,0.2-8.6c-0.4-2-2.9-2.3-4.2-1.1c-4.4,3.8-8.8,7.6-13.2,11.5c-1,0.9-0.9,2.6,0,3.5
				C179.8,170.5,181.3,170.4,182.3,169.5L182.3,169.5z"/>
		</g>
	</g>
	<g>
		<path class="st1" d="M191.2,180.7c-1.6-5.7-7.2-9.9-13-9.9c2.6-2.6,7.4-1.7,10-4.3c1.8-1.7,2.1-4.7,4.2-6.1
			c-1,2.9-2.1,5.9-3.1,8.8c-0.7,1.9-1.3,4.3,0.1,5.8"/>
		<g>
			<path class="st1" d="M193.6,180c-2-6.8-8.4-11.7-15.5-11.8c0.6,1.4,1.2,2.8,1.8,4.3c0.2-0.2,0.2-0.2,0.6-0.4
				c0.2-0.1,0.3-0.2,0.5-0.3c0.1,0,0.4-0.2,0.2-0.1c0.7-0.3,1.5-0.5,2.3-0.7c1.6-0.4,3.2-0.7,4.7-1.5c1.5-0.8,2.7-2.1,3.5-3.6
				c0.4-0.7,0.7-1.4,1.1-2.1c0.2-0.3,0.4-0.6,0.6-0.9c0.3-0.4-0.2,0.2,0.1-0.1c0,0,0.4-0.4,0.2-0.2c-1.2-0.9-2.4-1.9-3.7-2.8
				c-1.1,3-2.2,6-3.2,9.1c-0.9,2.8-1.1,5.6,0.9,8c0.9,1,2.6,0.9,3.5,0c1-1,0.9-2.5,0-3.5c0,0-0.1-0.4-0.1-0.3c0-0.5,0-0.8,0-1.1
				c0.2-1.1,0.6-2.1,1-3.2c0.9-2.5,1.8-5.1,2.7-7.6c0.7-1.9-1.9-4.1-3.7-2.8c-1.5,1.1-2.4,2.5-3.3,4.2c-0.3,0.6-0.7,1.5-1.1,1.9
				c0,0-0.5,0.5-0.5,0.5c-0.1,0.1-0.6,0.4-0.9,0.5c-0.3,0.1-0.2,0.1-0.7,0.2c-0.4,0.1-0.7,0.2-1.1,0.3c-0.8,0.2-1.6,0.4-2.3,0.6
				c-1.8,0.5-3.5,1.2-4.9,2.5c-1.6,1.5-0.3,4.2,1.8,4.3c4.7,0.1,9.3,3.4,10.6,8.1C189.7,184.4,194.5,183.1,193.6,180L193.6,180z"/>
		</g>
	</g>
	<g>
		<path class="st1" d="M186.2,169.6"/>
		<g>
			<path class="st1" d="M186.2,172.1c3.2,0,3.2-5,0-5C182.9,167.1,182.9,172.1,186.2,172.1L186.2,172.1z"/>
		</g>
	</g>
	<g>
		<path class="st1" d="M189.5,181.2c0.8,8.8,0.5,17.8-1,26.5"/>
		<g>
			<path class="st1" d="M187,181.2c0.8,8.6,0.5,17.3-0.9,25.9c-0.2,1.3,0.3,2.7,1.7,3.1c1.2,0.3,2.9-0.4,3.1-1.7
				c1.5-9,1.9-18.1,1.1-27.2c-0.1-1.3-1.1-2.5-2.5-2.5C188.2,178.7,186.8,179.8,187,181.2L187,181.2z"/>
		</g>
	</g>
	<g>
		<path class="st1" d="M185.3,174.8c3.3,9.6,4.3,20.1,2.9,30.2"/>
		<g>
			<path class="st1" d="M182.9,175.5c3.2,9.5,4.1,19.5,2.8,29.5c-0.2,1.3,1.3,2.5,2.5,2.5c1.5,0,2.3-1.2,2.5-2.5
				c1.4-10.3,0.3-20.9-3-30.8C186.7,171.1,181.9,172.4,182.9,175.5L182.9,175.5z"/>
		</g>
	</g>
	<g>
		<path class="st1" d="M155.2,55.6c1.1-4.2,3-8.4,6.2-11.4c3.2-3,8-4.5,12.1-3.3c3.7,1.1,6.5,4.3,8.8,7.4
			c4.7,6.2,8.6,13.1,11.7,20.3"/>
		<g>
			<path class="st1" d="M157.6,56.3c1.6-6.2,5.8-13.4,13.1-13.2c3.4,0.1,6.1,2.5,8.2,5c2.5,2.9,4.6,6.2,6.6,9.5
				c2.4,4,4.5,8.1,6.4,12.4c0.5,1.2,2.4,1.5,3.4,0.9c1.3-0.8,1.4-2.2,0.9-3.4c-3.5-8.3-8.2-16.6-14.2-23.4c-2.9-3.2-6.5-5.7-11-6
				c-4.2-0.2-8.4,1.6-11.5,4.4c-3.6,3.3-5.7,7.9-6.9,12.5C151.9,58.1,156.8,59.4,157.6,56.3L157.6,56.3z"/>
		</g>
	</g>
	<g>
		<path class="st1" d="M187.8,56.4c8.6,12.6,11.6,28.9,8.1,43.8"/>
		<g>
			<path class="st1" d="M185.6,57.6c8.2,12.2,11.2,27.6,7.9,41.9c-0.7,3.1,4.1,4.5,4.8,1.3c3.6-15.6,0.6-32.5-8.4-45.7
				C188.1,52.5,183.8,55,185.6,57.6L185.6,57.6z"/>
		</g>
	</g>
	<g>
		<path class="st1" d="M147.5,67.7c-2,7.3-4.1,14.6-6.1,21.8c-0.7,2.6-1.4,5.2-1.4,7.9c0,2.7,0.9,5.5,3,7.2c1.8,1.5,4.7,2.8,4.3,5.1
			c-0.1,1-0.8,1.7-1.5,2.4c-3.1,3.3-6.1,6.5-9.2,9.8c2.9-9.8,4.5-19.9,4.7-30.1c0.6,4.7,1.5,9.9,5.3,12.6c1.1,0.8,2.4,1.4,2.9,2.6
			c0.5,1.4-0.3,2.9-1.3,4c-1.2,1.3-2.7,2.3-4.5,2.5s-3.6-0.6-4.4-2.2c-0.8-1.6,0-3.8,1.7-4.3c1,0.6,2,1.1,3,1.7
			c-0.4-2.2,0.1-4.5,1.2-6.3c-2.5-4.9-1.3-10.7,0.1-16c1.4-5.3,2.9-11.1,0.7-16.1c2.1,4.6,2.7,10,1.5,15c-0.7,2.9-1.9,5.6-2.5,8.6
			c-0.6,2.9-0.5,6.2,1.4,8.5c0.8,1,1.9,1.8,2.5,3s0.4,2.9-0.7,3.4"/>
		<g>
			<path class="st1" d="M145.1,67.1c-1.2,4.4-2.4,8.7-3.7,13.1c-1.2,4.2-2.6,8.4-3.4,12.7c-0.8,3.9-0.8,8.3,1.5,11.7
				c1,1.5,2.4,2.5,3.8,3.6c0.5,0.3,0.9,0.7,1.3,1.1c-0.1-0.1,0.2,0.4,0.1,0.1c0.1,0.4,0.1,0.1,0,0.2c-0.4,0.8-1.3,1.5-1.9,2.2
				c-0.9,0.9-1.7,1.8-2.6,2.7c-1.8,1.9-3.6,3.9-5.4,5.8c1.4,0.8,2.8,1.6,4.2,2.4c3-10,4.6-20.4,4.8-30.8c-1.7,0-3.3,0-5,0
				c0.7,5.7,1.9,11.6,7,15c0.4,0.3,1.2,0.6,1.4,1c0.1,0.2,0-0.2,0-0.1c0,0.3-0.1,0.5-0.3,0.7c-0.6,1-1.7,1.9-2.9,2.3
				c-0.8,0.3-1.8,0.2-2.4-0.5c-0.2-0.3-0.2-0.4-0.1-0.5c0.1-0.3,0.3-0.5,0.2-0.4c-0.6-0.1-1.3-0.2-1.9-0.3c1,0.6,2,1.1,3,1.7
				c2.1,1.2,4-0.8,3.7-2.8c-0.2-1.3,0.1-2.7,0.6-3.9c0.5-1.1,0.8-1.9,0.3-3.1c-0.3-0.7-0.6-1.4-0.8-2.1c-0.7-3-0.2-6.2,0.4-9.1
				c1.5-6.6,4.2-13.6,1.4-20.3c-1.5,0.6-3,1.3-4.6,1.9c1.4,3.1,1.9,6.5,1.7,9.8c-0.2,3.4-1.6,6.6-2.5,9.8c-0.9,3.1-1.4,6.7-0.2,9.8
				c0.6,1.7,1.6,3,2.8,4.3c0.4,0.4,0.8,0.9,1,1.3c0.2,0.3-0.2,0.1,0.2,0c-2.8,1.5-0.3,5.8,2.5,4.3c1.7-0.9,2.5-2.8,2.3-4.7
				c-0.2-2-1.4-3.3-2.7-4.7c-2.3-2.5-1.9-5.9-1-8.9c1.1-3.9,2.6-7.5,2.7-11.6c0.2-4.1-0.7-8.2-2.4-11.9c-1.1-2.6-5.6-0.7-4.6,1.9
				c2.2,5.3,0.2,10.9-1.1,16.2c-1.4,5.5-2.1,11.3,0.5,16.5c0-0.8,0-1.7,0-2.5c-1.5,2.6-1.9,5.4-1.4,8.3c1.2-0.9,2.4-1.9,3.7-2.8
				c-0.8-0.5-1.7-1-2.5-1.4c-1.2-0.7-2.3-0.7-3.5,0c-1.6,0.9-2.5,2.6-2.6,4.4c-0.3,3.8,3.2,6.6,6.8,6.5c3.6-0.1,7.6-3.1,8.6-6.6
				c0.5-2-0.1-4-1.6-5.4c-1.2-1-2.6-1.7-3.6-2.9c-2-2.5-2.5-6.2-2.9-9.3c-0.2-1.3-1-2.5-2.5-2.5c-1.4,0-2.5,1.1-2.5,2.5
				c-0.2,10-1.8,19.9-4.7,29.5c-0.7,2.4,2.5,4.3,4.2,2.4c3.1-3.4,6.4-6.6,9.4-10.1c1.4-1.5,2.3-3.3,1.8-5.4c-0.4-1.7-1.7-3-3.1-4
				c-1.2-0.9-2.4-1.6-3.1-2.9c-0.8-1.5-1-3.2-0.9-4.8c0.1-2.1,0.7-4.2,1.3-6.3c0.6-2.2,1.2-4.4,1.9-6.6c1.4-5.1,2.8-10.1,4.3-15.2
				C150.8,65.3,145.9,64,145.1,67.1L145.1,67.1z"/>
		</g>
	</g>
	<g>
		<path class="st1" d="M149.6,67.9c-1.7,11.1-4.2,22.1-7.5,32.8"/>
		<g>
			<path class="st1" d="M147.2,67.2c-1.7,11.1-4.2,22-7.5,32.8c-0.9,3.1,3.9,4.4,4.8,1.3c3.2-10.7,5.7-21.7,7.5-32.8
				c0.2-1.3-0.3-2.7-1.7-3.1C149.1,65.1,147.4,65.8,147.2,67.2L147.2,67.2z"/>
		</g>
	</g>
	<g>
		<path class="st1" d="M141.9,113.2"/>
		<g>
			<path class="st1" d="M141.9,115.7c3.2,0,3.2-5,0-5C138.7,110.7,138.7,115.7,141.9,115.7L141.9,115.7z"/>
		</g>
	</g>
	<g>
		<path class="st1" d="M141.9,111"/>
		<g>
			<path class="st1" d="M141.9,113.5c3.2,0,3.2-5,0-5C138.7,108.5,138.7,113.5,141.9,113.5L141.9,113.5z"/>
		</g>
	</g>
	<g>
		<path class="st1" d="M143.5,105.2c2.1,1,3,3.7,2.5,6s-1.9,4.3-3.1,6.3c-5.5,8.7-8.4,18.9-8.3,29.1"/>
		<g>
			<path class="st1" d="M142.3,107.4c2.5,1.2,1.1,4.5,0,6.4c-2,3.3-4,6.5-5.5,10c-3.1,7.2-4.7,15-4.7,22.8c0,3.2,5,3.2,5,0
				c0-8.1,1.8-16.2,5.4-23.5c1.8-3.5,4.7-6.8,5.7-10.7c1-3.5-0.1-7.8-3.5-9.5C141.9,101.6,139.4,105.9,142.3,107.4L142.3,107.4z"/>
		</g>
	</g>
	<g>
		<path class="st1" d="M133.1,211.3c-1.8-5.8-1.2-12.1,0.2-18c1.4-5.9,3.4-11.7,4.2-17.7c0.8-6,0.2-12.5-3.2-17.5"/>
		<g>
			<path class="st1" d="M135.5,210.6c-2.8-9.2,0.8-18.6,3-27.5c2.1-8.7,3.1-18.5-2.1-26.3c-1.8-2.7-6.1-0.2-4.3,2.5
				c4.9,7.4,3.1,16.7,1,24.7c-2.4,9.1-5.3,18.6-2.5,27.9C131.6,215,136.4,213.7,135.5,210.6L135.5,210.6z"/>
		</g>
	</g>
	<g>
		<path class="st1" d="M135.5,132.2c1.6,17.5,0.9,35.1-2,52.4"/>
		<g>
			<path class="st1" d="M133,132.2c1.5,17.2,0.9,34.7-1.9,51.7c-0.2,1.3,0.4,2.7,1.7,3.1c1.2,0.3,2.8-0.4,3.1-1.7
				c3-17.5,3.7-35.4,2.1-53.1c-0.1-1.3-1.1-2.5-2.5-2.5C134.2,129.7,132.8,130.9,133,132.2L133,132.2z"/>
		</g>
	</g>
	<g>
		<path class="st1" d="M135.3,141.3c3.5,13.4,3.5,27.7,0.1,41.1"/>
		<g>
			<path class="st1" d="M132.9,141.9c3.4,13,3.4,26.7,0.1,39.8c-0.8,3.1,4,4.5,4.8,1.3c3.5-13.9,3.5-28.5-0.1-42.4
				C136.9,137.5,132.1,138.8,132.9,141.9L132.9,141.9z"/>
		</g>
	</g>
	<g>
		<path class="st1" d="M132.7,202.6c1.7,17.8,2.3,35.8,1.7,53.7"/>
		<g>
			<path class="st1" d="M130.2,202.6c1.7,17.8,2.3,35.8,1.7,53.7c-0.1,3.2,4.9,3.2,5,0c0.6-17.9,0-35.8-1.7-53.7
				c-0.1-1.3-1.1-2.5-2.5-2.5C131.5,200.1,130.1,201.2,130.2,202.6L130.2,202.6z"/>
		</g>
	</g>
	<g>
		<path class="st1" d="M132.2,200.1"/>
		<g>
			<path class="st1" d="M132.2,202.6c3.2,0,3.2-5,0-5C129,197.6,129,202.6,132.2,202.6L132.2,202.6z"/>
		</g>
	</g>
	<g>
		<path class="st1" d="M130.1,255.8c1.2,17.4,0.5,34.9-2.1,52.1c-0.5-19.2,0.3-38.5,2.5-57.6c2.5,10.5,7,20.6,13.2,29.5
			c-2.1,1.9-4.2,3.7-6.3,5.6c-1-4.7-2-9.4-3-14.1c2.1,3.8,4.3,7.6,6.4,11.4c-1.2-0.2-2.2-1.1-2.5-2.3c-0.9-9.1-1.8-18.2-2.8-27.3
			c1.6,9.8,3.4,20.3,10.4,27.3c-5.4-5.7-7.5-13.9-8.4-21.8c-0.9-7.9-0.9-15.9-3.1-23.5"/>
		<g>
			<path class="st1" d="M127.6,255.8c1.2,17.2,0.6,34.4-2,51.5c1.6,0.2,3.3,0.4,4.9,0.7c-0.5-19.2,0.3-38.5,2.5-57.6
				c-1.6,0.2-3.3,0.4-4.9,0.7c2.6,10.7,7.2,21,13.5,30.1c0.1-1,0.3-2,0.4-3c-2.1,1.9-4.2,3.7-6.3,5.6c1.4,0.4,2.8,0.7,4.2,1.1
				c-1-4.7-2-9.4-3-14.1c-1.5,0.6-3,1.3-4.6,1.9c2.1,3.8,4.3,7.6,6.4,11.4c0.9-1.2,1.9-2.4,2.8-3.7c-0.8-0.2-0.8-0.4-0.8-0.9
				c0-1.2-0.2-2.3-0.4-3.5c-0.3-2.6-0.5-5.1-0.8-7.7c-0.5-5-1-10.1-1.5-15.1c-1.6,0.2-3.3,0.4-4.9,0.7c1.6,10.1,3.7,20.8,11,28.4
				c2.2,2.3,5.7-1.2,3.5-3.5c-4.8-5.2-6.7-12.4-7.6-19.2c-1-8.3-1-16.8-3.3-25c-0.9-3.1-5.7-1.8-4.8,1.3
				c4.4,15.4,0.3,33.7,12.1,46.4c1.2-1.2,2.4-2.4,3.5-3.5c-6.7-6.9-8.3-17.1-9.7-26.2c-0.4-2.8-5.2-2.1-4.9,0.7
				c0.6,5.9,1.2,11.7,1.8,17.6c0.3,2.9,0.6,5.8,0.9,8.7c0.1,1.4,0.4,2.6,1.2,3.7c0.8,1,1.9,1.8,3.2,2c2.1,0.5,3.9-1.7,2.8-3.7
				c-2.1-3.8-4.3-7.6-6.4-11.4c-1.4-2.5-5.1-0.8-4.6,1.9c1,4.7,2,9.4,3,14.1c0.4,2,2.9,2.3,4.2,1.1c2.1-1.9,4.2-3.7,6.3-5.6
				c0.8-0.7,1-2.2,0.4-3c-6.1-8.8-10.4-18.5-13-28.9c-0.3-1.2-1.6-2-2.7-1.8c-1.3,0.2-2,1.2-2.2,2.5c-2.1,19.1-2.9,38.4-2.5,57.6
				c0,1.2,0.9,2.3,2.2,2.5c1.1,0.1,2.6-0.5,2.7-1.8c2.6-17.5,3.4-35.2,2.2-52.8c-0.1-1.3-1.1-2.5-2.5-2.5
				C128.9,253.3,127.6,254.4,127.6,255.8L127.6,255.8z"/>
		</g>
	</g>
	<g>
		<path class="st1" d="M144.4,280.6c4.1-3.5,8.2-7.1,12.4-10.6c3.4-3,6.9-5.9,11-7.9c8.3-4,18.1-3.3,27.3-2.4"/>
		<g>
			<path class="st1" d="M146.2,282.3c3.9-3.3,7.7-6.7,11.6-10c3.5-3,6.9-6,11-8.1c8-3.9,17.6-3,26.2-2.2c1.3,0.1,2.5-1.2,2.5-2.5
				c0-1.5-1.1-2.4-2.5-2.5c-7.4-0.7-15-1.3-22.3,0.5c-7.7,1.9-13.4,6.8-19.2,11.8c-3.6,3.1-7.2,6.2-10.9,9.4c-1,0.9-0.9,2.6,0,3.5
				C143.7,283.3,145.2,283.2,146.2,282.3L146.2,282.3z"/>
		</g>
	</g>
	<g>
		<path class="st1" d="M149.8,277.9c2.8-5.9,5.9-12.2,11.5-15.6c7-4.3,15.9-3.1,24-1.8"/>
		<g>
			<path class="st1" d="M152,279.2c2.8-5.9,5.8-12.5,12-15.5c6.3-3.1,14-1.8,20.7-0.7c1.3,0.2,2.7-0.3,3.1-1.7
				c0.3-1.2-0.4-2.9-1.7-3.1c-8-1.3-16.5-2.5-24.1,1.1c-7.1,3.4-10.9,10.7-14.1,17.5c-0.6,1.2-0.3,2.7,0.9,3.4
				C149.7,280.7,151.4,280.4,152,279.2L152,279.2z"/>
		</g>
	</g>
	<g>
		<path class="st1" d="M139.9,275.3c2,1.7,4.7,2.6,7.3,2.3c2.6-0.3,5.1-1.7,6.7-3.8c-3.6,0.2-5.9,4.7-9.5,4.7
			c-1.4,0-2.6-0.7-3.6-1.7c-1-0.9-1.7-2.1-2.4-3.3c2.6,2.2,5.6,4.5,9,4c1.9-0.3,3.5-1.5,4.7-3c1.2-1.5,2-3.2,2.8-4.9"/>
		<g>
			<path class="st1" d="M138.1,277.1c2.6,2.2,5.9,3.5,9.4,3c3.5-0.4,6.4-2.2,8.6-5c1.1-1.5-0.4-3.9-2.2-3.8
				c-1.7,0.1-3.2,0.7-4.6,1.7c-0.7,0.5-1.3,1-1.9,1.5c-0.2,0.1-0.4,0.3-0.1,0.1c-0.1,0.1-0.3,0.2-0.4,0.3c-0.3,0.2-0.6,0.4-0.9,0.6
				c-0.3,0.2-0.5,0.3-0.8,0.4c0.5-0.3,0.1,0,0,0c-0.2,0-0.3,0.1-0.5,0.1c-0.5,0.1,0.2,0.1,0,0c-0.2,0-0.4,0-0.6,0
				c0.5,0-0.8-0.3-0.4-0.1c-0.2-0.1-0.4-0.2-0.6-0.3c-0.1,0-0.5-0.4-0.2-0.1c-0.3-0.3-0.7-0.6-1-1c0.1,0.2-0.1-0.2-0.1-0.2
				c-0.1-0.2-0.3-0.4-0.4-0.6c-0.3-0.4-0.6-0.9-0.8-1.4c-1.3,1-2.6,2-3.9,3c3.3,2.8,7.2,5.6,11.8,4.6c4.4-1,6.8-5.2,8.6-9
				c0.6-1.2,0.3-2.7-0.9-3.4c-1.1-0.6-2.8-0.3-3.4,0.9c-0.7,1.5-1.4,3.1-2.5,4.5c0.1-0.2-0.2,0.2-0.2,0.2c-0.1,0.1-0.2,0.3-0.4,0.4
				c-0.3,0.3-0.6,0.6-0.9,0.8c0.3-0.2-0.2,0.1-0.2,0.1c-0.2,0.1-0.4,0.2-0.6,0.3c-0.1,0.1-0.4,0.2-0.1,0.1c-0.2,0.1-0.4,0.1-0.6,0.2
				c-0.2,0-0.3,0.1-0.5,0.1c-0.4,0.1,0.5,0-0.2,0c-0.2,0-0.3,0-0.5,0c-0.4,0,0,0-0.2,0c-0.4-0.1-0.7-0.2-1.1-0.3
				c-0.1,0-0.4-0.1-0.1,0c-0.2-0.1-0.4-0.2-0.6-0.3c-1.6-0.8-2.6-1.6-3.8-2.7c-0.9-0.8-2.3-1-3.3-0.2c-1,0.8-1.3,2.1-0.6,3.2
				c1.2,2,2.5,3.9,4.5,5.1c1.8,1.1,4,1.4,5.9,0.7c1.7-0.6,3-1.7,4.4-2.8c0.4-0.3-0.2,0.1,0.1-0.1c0.1-0.1,0.3-0.2,0.4-0.3
				c0.3-0.2,0.7-0.5,1-0.7c0.1-0.1,0.3-0.1,0.4-0.2c0.2-0.2-0.4,0.1,0,0c0.2-0.1,0.4-0.1,0.6-0.2c0.5-0.2-0.4,0,0.1,0
				c-0.7-1.3-1.4-2.5-2.2-3.8c0.2-0.3-0.4,0.4-0.4,0.5c-0.2,0.2-0.4,0.4-0.6,0.5c-0.4,0.3,0.1,0-0.3,0.2c-0.3,0.2-0.6,0.4-0.9,0.5
				c-0.2,0.1-0.5,0.2-0.7,0.3c0.4-0.2-0.3,0.1-0.4,0.1c-0.3,0.1-0.7,0.2-1,0.3c-0.1,0-0.8,0.1-0.3,0.1c-0.6,0.1-1.1,0.1-1.7,0
				c-0.1,0-0.3,0-0.4,0c0.2,0,0.2,0-0.1,0c-0.3-0.1-0.5-0.1-0.8-0.2c-0.2,0-0.3-0.1-0.5-0.2c-0.3-0.1-0.3-0.1-0.2-0.1
				c0.1,0.1,0.1,0-0.2-0.1c-0.2-0.1-0.3-0.2-0.5-0.2c-0.2-0.1-0.5-0.3-0.7-0.4c-0.1-0.1-0.3-0.2-0.4-0.3c0.2,0.1,0.1,0.1-0.1-0.1
				c-1-0.9-2.5-1-3.5,0C137.2,274.4,137.1,276.2,138.1,277.1L138.1,277.1z"/>
		</g>
	</g>
	<g>
		<path class="st1" d="M133.5,188.4c1,19.5,2.1,38.9,3.1,58.4"/>
		<g>
			<path class="st1" d="M131,188.4c1,19.5,2.1,38.9,3.1,58.4c0.2,3.2,5.2,3.2,5,0c-1-19.5-2.1-38.9-3.1-58.4
				C135.9,185.2,130.9,185.1,131,188.4L131,188.4z"/>
		</g>
	</g>
	<g>
		<path class="st1" d="M131.4,154.8c-0.9-9.8-1.4-19.7-0.3-29.5c1.2-9.8,4-19.5,9.3-27.8"/>
		<g>
			<path class="st1" d="M133.9,154.8c-1.8-19-1.8-39.4,8.7-56.1c1.7-2.7-2.6-5.2-4.3-2.5c-8.3,13.2-10.6,29.2-10.3,44.6
				c0.1,4.7,0.5,9.4,0.9,14c0.1,1.3,1.1,2.5,2.5,2.5C132.6,157.3,134,156.1,133.9,154.8L133.9,154.8z"/>
		</g>
	</g>
	<g>
		<path class="st1" d="M137.8,106.7c-0.4,5.1-2.9,9.7-4.9,14.4c-8.3,20.1-6.2,42.8-3.9,64.4"/>
		<g>
			<path class="st1" d="M135.3,106.7c-0.5,5.1-3.3,9.8-5.1,14.5c-1.9,4.8-3.3,9.9-4.1,15c-1.8,10.4-1.8,20.9-1.1,31.4
				c0.4,6,1,11.9,1.6,17.8c0.1,1.3,1.1,2.5,2.5,2.5c1.2,0,2.6-1.1,2.5-2.5c-2.1-20.5-4.3-42.1,3.1-61.9c2.1-5.6,5.1-10.8,5.7-16.9
				c0.1-1.3-1.2-2.5-2.5-2.5C136.3,104.2,135.4,105.4,135.3,106.7L135.3,106.7z"/>
		</g>
	</g>
	<g>
		<path class="st1" d="M214.4,270.9c5.8,9.5,6.4,22,1.5,32c4.8-2,10.1-2.9,15.3-2.7c-3.2-2.5-8.9-1.1-11-4.6
			c-0.9-1.5-0.7-3.5-0.6-5.3c0.4-5.8-0.5-11.8-2.6-17.2c5.7,4,11.4,8,17.1,12.1c-4.4-0.8-8.6-2.5-12.2-5.1c-0.9,5.4-0.5,11,1.3,16.2
			c0.2-3.8,0.4-7.5,0.6-11.3c0.1-1,0.1-2,0.8-2.8c1.3-1.6,3.9-0.8,5.7,0.3c5.6,3.6,9.8,9.3,11.4,15.7"/>
		<g>
			<path class="st1" d="M212.2,272.2c5.3,8.8,6,20.2,1.5,29.5c-0.4,0.9-0.5,1.9,0.2,2.8c0.6,0.7,1.7,1.3,2.6,0.9
				c4.7-1.9,9.6-2.8,14.7-2.6c2.7,0.1,3.1-3.3,1.3-4.7c-2-1.4-4.5-1.7-6.8-2.2c-2.2-0.5-3.6-0.8-3.6-3.4c0-1.6,0.2-3.2,0.2-4.9
				c0-1.7-0.1-3.4-0.3-5.1c-0.4-3.4-1.2-6.8-2.5-10c-1.2,0.9-2.4,1.9-3.7,2.8c5.7,4,11.4,8,17.1,12.1c0.6-1.5,1.3-3,1.9-4.6
				c-4.2-0.8-8.1-2.4-11.6-4.8c-1.2-0.9-3.4,0-3.7,1.5c-1,5.9-0.6,11.9,1.3,17.6c0.9,2.7,4.8,2.2,4.9-0.7c0.2-3.8,0.4-7.5,0.6-11.3
				c0-0.3,0-1,0.2-1.2c-0.1,0.1,0.3,0,0.5,0.1c1.1,0.2,2.1,1,3,1.6c4.5,3.2,7.7,8.1,9.2,13.4c0.8,3.1,5.7,1.8,4.8-1.3
				c-1.9-7-6.6-13.8-13-17.4c-3.4-1.9-8.3-1.9-9.5,2.6c-0.5,2-0.4,4.4-0.5,6.5c-0.1,2.4-0.3,4.8-0.4,7.1c1.6-0.2,3.3-0.4,4.9-0.7
				c-1.6-4.8-2.1-9.9-1.3-14.9c-1.2,0.5-2.4,1-3.7,1.5c3.8,2.7,8.2,4.5,12.8,5.3c2.8,0.5,4.3-2.9,1.9-4.6c-5.7-4-11.4-8-17.1-12.1
				c-1.7-1.2-4.4,0.8-3.7,2.8c1.3,3.3,2.2,6.8,2.5,10.3c0.2,1.8,0.2,3.5,0.1,5.3c-0.1,1.8-0.3,3.6,0,5.3c0.6,3,3,4.8,5.8,5.6
				c2.3,0.6,4.9,0.6,6.8,2c0.4-1.6,0.8-3.1,1.3-4.7c-5.5-0.2-10.9,0.7-16,2.8c0.9,1.2,1.9,2.4,2.8,3.7c5.2-10.9,4.7-24.1-1.5-34.6
				C214.9,266.9,210.6,269.4,212.2,272.2L212.2,272.2z"/>
		</g>
	</g>
	<g>
		<path class="st1" d="M197.9,264.8c4.6,0.1,9.1,1.8,12.7,4.6c3.6,2.9,6.2,6.9,7.3,11.4"/>
		<g>
			<path class="st1" d="M197.9,267.3c8.4,0.3,15.5,6.2,17.5,14.2c0.8,3.1,5.6,1.8,4.8-1.3c-2.6-10.3-11.8-17.5-22.3-17.9
				C194.7,262.2,194.7,267.2,197.9,267.3L197.9,267.3z"/>
		</g>
	</g>
	<g>
		<path class="st1" d="M224.4,287.6c0.3-1,1.1-1.7,2.1-2c0.9-0.3,2-0.3,3-0.2c4.4,0.6,8.5,3.7,10.2,7.8"/>
		<g>
			<path class="st1" d="M226.9,288.3C227,287.8,226.8,288.4,226.9,288.3c0.1-0.3-0.3,0.2,0.1-0.2c0.2-0.2,0.2-0.1,0,0
				c0,0,0.6-0.3,0.3-0.2c-0.3,0.1,0.4-0.1,0.4-0.1c0.1,0,0.4,0,0.1,0c0.5,0,0.9,0,1.4,0c-0.3,0,0,0,0.2,0c0.1,0,0.3,0.1,0.4,0.1
				c0.4,0.1,0.7,0.2,1.1,0.3c0.3,0.1,0.6,0.2,0.9,0.3c-0.3-0.1-0.1,0,0.1,0.1c0.2,0.1,0.3,0.2,0.5,0.3c0.6,0.3,1.2,0.7,1.7,1.1
				c-0.4-0.3,0,0,0.1,0.1c0.1,0.1,0.3,0.2,0.4,0.4c0.2,0.2,0.5,0.5,0.7,0.7c0.3,0.3,0.5,0.6,0.7,0.8c0.3,0.3-0.3-0.5,0.1,0.1
				c0.1,0.1,0.2,0.2,0.3,0.4c0.4,0.6,0.8,1.3,1.1,2c0.5,1.2,2.4,1.6,3.4,0.9c1.2-0.8,1.5-2.1,0.9-3.4c-1.5-3.4-4.5-6.3-7.9-7.8
				c-1.9-0.8-4-1.4-6.1-1.3c-2.6,0.2-5,1.5-5.8,4.1c-0.4,1.2,0.5,2.8,1.7,3.1C225.1,290.3,226.4,289.6,226.9,288.3L226.9,288.3z"/>
		</g>
	</g>
	<g>
		<path class="st1" d="M224.2,287.2c-0.7,4.6,1.6,9.5,5.5,12"/>
		<g>
			<path class="st1" d="M221.8,286.5c-0.4,3,0,5.9,1.2,8.6c1.1,2.5,3.1,4.7,5.4,6.2c1.1,0.7,2.8,0.3,3.4-0.9
				c0.7-1.2,0.3-2.7-0.9-3.4c-0.2-0.1-0.4-0.3-0.7-0.5c-0.3-0.2,0.4,0.3,0,0c-0.1-0.1-0.2-0.2-0.3-0.2c-0.4-0.4-0.8-0.8-1.2-1.2
				c-0.1-0.1-0.2-0.3-0.3-0.3c0.1,0.1,0.3,0.4,0.1,0.1c-0.2-0.2-0.3-0.4-0.4-0.7c-0.3-0.5-0.6-1-0.8-1.5c0-0.1-0.1-0.2-0.1-0.3
				c0.1,0.2,0.1,0.4,0,0c-0.1-0.2-0.2-0.5-0.3-0.8c-0.2-0.5-0.3-1-0.4-1.5c-0.1-0.6,0,0.4,0,0.1c0-0.1,0-0.3,0-0.4
				c0-0.3,0-0.5,0-0.8c0-0.3,0-0.5,0-0.8c0-0.2,0.1-1.1,0-0.4c0.1-0.7,0.1-1.3-0.3-1.9c-0.3-0.5-0.9-1-1.5-1.1
				C223.7,284.5,222,285.1,221.8,286.5L221.8,286.5z"/>
		</g>
	</g>
	<g>
		<path class="st1" d="M183.1,331.8c3.6,0.5,6.4,4.5,5.6,8.1c4.2-2.4,9.5-2,14.2-0.6c2.1,0.6,4.1,1.3,6.3,1.5
			c3.7,0.2,7.2-1.4,10-3.8c2.8-2.3,5-5.3,7.2-8.3"/>
		<g>
			<path class="st1" d="M182.5,334.2c2.3,0.4,4.3,2.6,3.9,5c-0.4,2.1,1.7,3.9,3.7,2.8c3-1.6,6.5-1.6,9.8-1c3.7,0.7,7.3,2.5,11.2,2.1
				c8-0.8,13.1-7.2,17.5-13.2c0.8-1.1,0.2-2.8-0.9-3.4c-1.3-0.7-2.6-0.2-3.4,0.9c-3.6,5-8.6,11.7-15.6,10.8c-1.9-0.2-3.6-1-5.4-1.4
				c-1.7-0.5-3.5-0.8-5.2-1c-3.6-0.4-7.3,0.2-10.5,2c1.2,0.9,2.4,1.9,3.7,2.8c0.9-4.9-2.2-10.3-7.4-11.2c-1.3-0.2-2.7,0.4-3.1,1.7
				C180.4,332.3,181.1,333.9,182.5,334.2L182.5,334.2z"/>
		</g>
	</g>
	<g>
		<path class="st1" d="M199,331.2c3.1,0.9,6.3,0,9.2-1.4s5.5-3.1,8.5-4.3c5.4-2.2,11.9-2.4,15.7-6.8"/>
		<g>
			<path class="st1" d="M198.4,333.7c3.7,0.9,7.4,0.1,10.8-1.4c3.1-1.4,5.9-3.4,9.1-4.6c5.5-2,11.9-2.5,16-7.1
				c2.1-2.4-1.4-5.9-3.5-3.5c-3.5,3.9-9.2,4.2-13.8,5.8c-3.1,1.1-5.8,2.8-8.7,4.3c-2.6,1.3-5.6,2.4-8.5,1.7
				C196.6,328,195.2,332.9,198.4,333.7L198.4,333.7z"/>
		</g>
	</g>
	<g>
		<path class="st1" d="M254.4,290.8c4.6,0.8,8.5,3.8,11.6,7.2c3.2,3.4,5.8,7.3,9,10.6c1.7,1.7,3.5,3.3,4.9,5.3
			c2.1,3.1,2.8,7.1,2.6,10.8c-0.2,3.8-1.2,7.4-2.2,11.1"/>
		<g>
			<path class="st1" d="M253.8,293.2c9.1,1.8,13.6,11.1,19.6,17.2c1.5,1.5,3.3,3,4.5,4.8c1.2,1.7,1.8,3.7,2.1,5.8
				c0.7,4.8-0.8,9.6-2,14.2c-0.9,3.1,4,4.4,4.8,1.3c2.1-7.7,4.2-16.9-0.7-24c-2.3-3.3-5.6-5.9-8.1-9c-2.5-3-4.9-6.2-7.7-8.9
				c-3.1-2.9-6.8-5.3-11-6.2c-1.3-0.3-2.7,0.4-3.1,1.7C251.7,291.3,252.4,292.9,253.8,293.2L253.8,293.2z"/>
		</g>
	</g>
	<g>
		<path class="st1" d="M275.8,312c4.5,0.1,8.3,4.1,9.5,8.5c1.2,4.4,0.4,9.1-0.6,13.5s-2.5,8.8-2.4,13.4"/>
		<g>
			<path class="st1" d="M275.8,314.5c5.9,0.3,7.8,7.2,7.6,12c-0.4,7.1-3.6,13.7-3.7,20.8c0,3.2,5,3.2,5,0c0-8,4.3-15.5,3.6-23.6
				c-0.6-6.9-5.1-13.8-12.6-14.2C272.6,309.4,272.6,314.4,275.8,314.5L275.8,314.5z"/>
		</g>
	</g>
	<g>
		<path class="st1" d="M265.1,305.4c-0.5,3.3-1.1,6.7-0.8,10s1.5,6.7,4,9c1.8,1.6,4,2.6,5.9,4.1c2.5,2.1,3.9,5.4,3.9,8.7"/>
		<g>
			<path class="st1" d="M262.7,304.8c-1,6.5-2,13.8,2.2,19.5c1.9,2.6,4.7,3.8,7.2,5.8c2.2,1.7,3.5,4.4,3.5,7.2c0,3.2,5,3.2,5,0
				c0-3.2-1.1-6.2-3-8.7c-2-2.5-4.8-3.6-7.1-5.6c-4.9-4-3.7-11.4-2.9-16.8c0.2-1.3-0.3-2.7-1.7-3.1
				C264.5,302.7,262.9,303.4,262.7,304.8L262.7,304.8z"/>
		</g>
	</g>
	<g>
		<path class="st1" d="M266.4,313.7c-0.5,1.4-0.2,2.9,0.4,4.2c0.6,1.3,1.5,2.5,2.3,3.6c1,1.3,2,2.6,3,4"/>
		<g>
			<path class="st1" d="M264,313c-0.8,2.7,0.1,5.6,1.6,7.8c1.3,2,3,3.9,4.4,5.9c0.4,0.5,0.8,1,1.5,1.1c0.6,0.2,1.4,0.1,1.9-0.3
				c1-0.7,1.7-2.3,0.9-3.4c-1.4-1.8-2.8-3.5-4.1-5.4c-0.3-0.4-0.6-0.9-0.8-1.3c-0.1-0.2-0.3-0.5-0.4-0.7c0.1,0.6,0-0.1-0.1-0.3
				c-0.1-0.2-0.1-0.5-0.2-0.7c0-0.1-0.1-0.3-0.1-0.4c0,0.3,0.1,0.3,0,0c0-0.3-0.1-0.6,0-0.8c-0.2,0.6,0.1-0.2,0.1-0.3
				c0.4-1.2-0.5-2.8-1.7-3.1C265.7,310.9,264.4,311.7,264,313L264,313z"/>
		</g>
	</g>
	<g>
		<path class="st1" d="M273.6,273.2c2.1-2.7,5.9-3.8,9.4-3.4c3.4,0.4,6.6,2.1,9.4,4.1"/>
		<g>
			<path class="st1" d="M275.3,274.9c1.7-2.1,4.1-2.9,6.9-2.7c3.2,0.2,6.3,2,8.9,3.9c1.1,0.8,2.8,0.2,3.4-0.9
				c0.7-1.3,0.2-2.6-0.9-3.4c-3.4-2.4-7.4-4.4-11.7-4.6c-3.7-0.1-7.8,1.3-10.2,4.2c-0.8,1-1,2.5,0,3.5
				C272.7,275.8,274.5,276,275.3,274.9L275.3,274.9z"/>
		</g>
	</g>
	<g>
		<path class="st1" d="M253.7,278.8c4.6,1.1,9.6,0.7,14-1.1c4.4-1.9,8.1-5.2,10.5-9.3"/>
		<g>
			<path class="st1" d="M253,281.2c10.6,2.5,21.7-2.2,27.3-11.6c1.6-2.8-2.7-5.3-4.3-2.5c-4.4,7.5-13.1,11.3-21.6,9.3
				C251.2,275.7,249.9,280.5,253,281.2L253,281.2z"/>
		</g>
	</g>
	<g>
		<path class="st1" d="M291.6,274.4c3.2,3.1,8,3.7,12.4,3.6c4.4-0.1,8.9-0.6,13.2,0.5c5,1.4,9.3,5.4,11,10.3"/>
		<g>
			<path class="st1" d="M289.8,276.1c5.8,5.3,13.6,4.2,20.8,4.2c3.5,0,6.8,0.5,9.7,2.4c2.5,1.6,4.4,4,5.4,6.8
				c0.5,1.3,1.7,2.1,3.1,1.7c1.2-0.3,2.2-1.8,1.7-3.1c-2.6-7.2-8.8-11.9-16.3-12.7c-4-0.5-8,0.1-12,0c-3.1-0.1-6.5-0.7-8.9-2.9
				C291,270.4,287.5,274,289.8,276.1L289.8,276.1z"/>
		</g>
	</g>
	<g>
		<path class="st1" d="M313,274.6c3.2-1.7,6.3-3.5,9.5-5.2c-0.3,2.4-0.6,4.7-1,7.1c-10.1-3.5-21.8,1.6-31.8-2.4
			c-2.4-1-4.6-2.5-7.1-3.3c-2.5-0.8-5.5-0.9-7.5,0.9"/>
		<g>
			<path class="st1" d="M314.3,276.8c3.2-1.7,6.3-3.5,9.5-5.2c-1.2-0.9-2.4-1.9-3.7-2.8c-0.3,2.4-0.6,4.7-1,7.1
				c1-0.6,2.1-1.2,3.1-1.7c-8.2-2.7-16.8-0.4-25.2-1c-2-0.1-3.9-0.5-5.8-1.2c-2-0.7-3.8-1.9-5.7-2.7c-4-1.8-8.5-2.3-12.1,0.6
				c-1,0.9-0.9,2.7,0,3.5c1,1,2.5,0.9,3.5,0c2.6-2.1,6.8,0.5,9.2,1.7c3.7,1.9,7.5,2.9,11.7,3.1c7.7,0.4,15.6-1.7,23.1,0.7
				c1.2,0.4,2.9-0.5,3.1-1.7c0.3-2.4,0.6-4.7,1-7.1c0.3-2.1-1.6-4-3.7-2.8c-3.2,1.7-6.3,3.5-9.5,5.2
				C308.9,274,311.5,278.3,314.3,276.8L314.3,276.8z"/>
		</g>
	</g>
	<g>
		<path class="st1" d="M243.3,295.9c-1.4-6.7,2.1-14,8-17.6c-3.6,0.5-7,2.1-9.8,4.5"/>
		<g>
			<path class="st1" d="M245.7,295.2c0-0.2-0.1-0.4-0.1-0.6c-0.1-0.4,0,0.6,0-0.2c0-0.4-0.1-0.8-0.1-1.1c0-0.4,0-0.8,0-1.1
				c0-0.2,0-0.4,0-0.6c0-0.1,0.1-0.6,0-0.2c0.1-0.8,0.3-1.6,0.5-2.3c0.1-0.4,0.2-0.7,0.4-1.1c0-0.1,0.2-0.6,0.2-0.4
				c-0.1,0.2,0.2-0.4,0.2-0.4c1.4-2.9,3.2-5,5.8-6.6c1.1-0.6,1.5-2,1-3.1c-0.5-1.2-1.7-1.6-2.9-1.4c-4.1,0.6-7.8,2.4-10.9,5.1
				c-1,0.9-0.9,2.6,0,3.5c1,1,2.5,0.9,3.5,0c2.4-2.1,5.4-3.3,8.7-3.8c-0.6-1.5-1.3-3-1.9-4.6c-6.9,4.2-10.7,12.4-9.2,20.4
				c0.3,1.3,1.8,2.1,3.1,1.7C245.4,297.9,246,296.6,245.7,295.2L245.7,295.2z"/>
		</g>
	</g>
	<g>
		<path class="st1" d="M245.5,280.3c0,6.2-0.7,12.5-2.1,18.6"/>
		<g>
			<path class="st1" d="M243,280.3c0,6-0.7,12-2,17.9c-0.3,1.3,0.4,2.7,1.7,3.1c1.3,0.3,2.8-0.4,3.1-1.7c1.4-6.3,2.1-12.8,2.1-19.2
				C248,277.1,243,277.1,243,280.3L243,280.3z"/>
		</g>
	</g>
	<g>
		<path class="st1" d="M245.3,289.4c-0.8-2.4,0.3-5.1,2.1-6.8c1.8-1.7,4.3-2.7,6.7-3.4c2.4-0.7,4.9-1.3,7.1-2.5"/>
		<g>
			<path class="st1" d="M247.7,288.8c-0.1-0.2-0.1-0.4-0.2-0.6c-0.1-0.3,0,0.3,0-0.2c0-0.2,0-0.5,0-0.7c0,0.3,0,0.2,0,0
				c0.1-0.2,0.1-0.5,0.2-0.7c0-0.1,0.2-0.6,0.1-0.4c-0.1,0.2,0.2-0.4,0.2-0.4c0.1-0.2,0.2-0.4,0.3-0.5c0.1-0.1,0.3-0.4,0.1-0.2
				c0.1-0.2,0.3-0.3,0.4-0.5c0.1-0.1,0.3-0.3,0.5-0.4c0,0,0.5-0.4,0.3-0.3c0.5-0.4,1.5-0.9,2.2-1.3c0.1,0,0.2-0.1,0.2-0.1
				c-0.2,0.1-0.2,0.1,0,0c0.2-0.1,0.4-0.2,0.6-0.2c0.4-0.2,0.8-0.3,1.2-0.4c0.9-0.3,1.7-0.5,2.6-0.8c2-0.6,4-1.2,5.8-2.2
				c1.2-0.6,1.6-2.3,0.9-3.4c-0.8-1.2-2.2-1.6-3.4-0.9c-1,0.5-1.5,0.7-2.6,1.1c-1,0.3-2,0.6-3.1,0.9c-2,0.6-4.1,1.3-6,2.3
				c-3.8,2.2-6.7,6.6-5.4,11.2c0.4,1.2,1.8,2.2,3.1,1.7C247.2,291.5,248.1,290.1,247.7,288.8L247.7,288.8z"/>
		</g>
	</g>
	<g>
		<path class="st1" d="M196.2,375.6c3.1-1.5,5.4-4.4,6.4-7.8c0.3-1.2,0.5-2.6,1.1-3.7s1.7-2.2,3-2c1.3,0.1,2.2,1.3,2.6,2.5
			c0.4,1.2,0.3,2.5,0.3,3.8c0.2,3.7,1.9,7.3,4.7,9.7c2.7,2.5,6.5,3.8,10.2,3.6"/>
		<g>
			<path class="st1" d="M197.5,377.8c3.5-1.8,6.2-5.1,7.4-8.9c0.3-1,0.4-4.1,1.7-4.3c-0.6,0.1-0.1-0.1,0,0.3
				c0.1,0.3,0.2,0.5,0.3,0.9c0.2,0.9,0.1,2,0.2,2.9c0.7,9,8.3,15.9,17.3,15.7c3.2-0.1,3.2-5.1,0-5c-3.9,0.1-7.8-1.5-10.1-4.8
				c-1.1-1.6-1.9-3.4-2.2-5.3c-0.3-2.3,0-4.5-1.1-6.7c-1.1-2-3.4-3.4-5.7-2.8c-2.3,0.6-3.8,2.6-4.5,4.7c-0.6,1.9-0.8,3.7-1.9,5.5
				c-1,1.5-2.4,2.7-4,3.5C192.1,375,194.6,379.3,197.5,377.8L197.5,377.8z"/>
		</g>
	</g>
	<g>
		<path class="st1" d="M206.7,365.4c-3.1,4.4-8.1,7.2-13.3,8.6c-5.2,1.4-10.6,1.7-16,1.9c9.1-0.9,17.8-5.1,24.1-11.6
			c0.7-0.7,1.3-1.4,2.3-1.6c1.7-0.3,3,1.6,3.4,3.3c0.4,1.7,0.5,3.6,1.7,4.9"/>
		<g>
			<path class="st1" d="M204.6,364.2c-6,8.4-17.8,8.9-27.2,9.3c0,1.7,0,3.3,0,5c7-0.7,13.9-3.1,19.7-7.1c1.4-1,2.8-2.1,4.1-3.2
				c0.7-0.6,1.3-1.2,1.9-1.8c0.2-0.2,0.8-1,1-1c-0.3,0,0.2,0.3,0.3,0.5c0.4,0.6,0.5,1.4,0.6,2.1c0.3,1.8,0.8,3.4,2.1,4.8
				c0.9,1,2.6,0.9,3.5,0c1-1,0.9-2.5,0-3.5c-0.9-1.1-0.7-3.1-1.2-4.4c-0.6-1.6-1.6-3.2-3.2-4c-4-2-6.9,2.4-9.6,4.6
				c-5.4,4.5-12.3,7.3-19.2,8c-1.3,0.1-2.5,1.1-2.5,2.5c0,1.3,1.1,2.6,2.5,2.5c11.5-0.5,24.2-1.6,31.5-11.8c0.8-1.1,0.2-2.8-0.9-3.4
				C206.7,362.5,205.3,363.1,204.6,364.2L204.6,364.2z"/>
		</g>
	</g>
	<g>
		<path class="st1" d="M239.7,389.9c11.4,0.6,23.2,1.2,34.1-2.5c8-2.7,15-7.6,21.9-12.4"/>
		<g>
			<path class="st1" d="M239.7,392.4c7.9,0.4,15.9,0.8,23.9-0.2c8.1-1,15.5-3.7,22.4-7.8c3.8-2.2,7.4-4.7,10.9-7.2
				c1.1-0.8,1.6-2.2,0.9-3.4c-0.6-1.1-2.3-1.7-3.4-0.9c-6,4.2-12.2,8.5-19,11.3c-7.1,2.8-14.7,3.7-22.3,3.7c-4.5,0-8.9-0.2-13.4-0.4
				C236.5,387.2,236.5,392.2,239.7,392.4L239.7,392.4z"/>
		</g>
	</g>
	<g>
		<path class="st1" d="M217.7,384.3c12.4,7.7,27,11.8,41.7,11.6c3.7,0,7.5-0.4,11.1-1.6c4.7-1.6,8.7-4.6,12.7-7.6
			c1.9-1.4,3.8-2.9,5.3-4.8c1.4-1.9,2.4-4.3,2-6.7"/>
		<g>
			<path class="st1" d="M216.4,386.4c9.9,6.1,21.1,9.9,32.6,11.3c5.8,0.7,11.9,0.9,17.7-0.1c6-1,11.1-4,15.8-7.6
				c5.3-3.9,11.2-8.3,10.2-15.7c-0.2-1.3-1.9-2.1-3.1-1.7c-1.4,0.4-1.9,1.7-1.7,3.1c0.3,2.2-1.3,4.4-2.7,5.8
				c-1.8,1.8-3.8,3.2-5.9,4.7c-4.3,3.1-8.6,5.7-13.9,6.6c-5.1,0.8-10.6,0.5-15.7,0c-5.1-0.6-10.1-1.7-14.9-3.3
				c-5.6-1.8-10.9-4.3-15.8-7.4C216.2,380.4,213.7,384.7,216.4,386.4L216.4,386.4z"/>
		</g>
	</g>
	<g>
		<path class="st1" d="M248.4,390.4c9.5,0.9,19.2-0.4,28.1-3.8c-3.8,2.2-7.9,4.2-12.2,5.2s-9,0.8-13-1.2"/>
		<g>
			<path class="st1" d="M248.4,392.9c9.7,0.9,19.6-0.4,28.7-3.9c-0.6-1.5-1.3-3-1.9-4.6c-6.6,3.8-15.1,7.7-22.6,4
				c-2.9-1.4-5.4,2.9-2.5,4.3c9.3,4.6,19.3,0.9,27.7-4c2.4-1.4,0.8-5.6-1.9-4.6c-8.8,3.3-18.1,4.6-27.4,3.7
				c-1.3-0.1-2.5,1.2-2.5,2.5C245.9,391.9,247.1,392.8,248.4,392.9L248.4,392.9z"/>
		</g>
	</g>
	<g>
		<path class="st1" d="M279.5,391.5c3.6-5.1,9.4-8.3,15.1-10.8c5.7-2.6,11.7-4.7,16.7-8.5c5-3.8,9-9.6,8.7-15.8
			c-0.1-2.5-0.9-5.1,0.4-7.3"/>
		<g>
			<path class="st1" d="M281.6,392.7c5-6.8,13.7-9.6,21-12.9c7.7-3.4,15.3-8.2,18.5-16.4c0.8-2.1,1.3-4.3,1.3-6.5c0-2-1-4.7,0-6.6
				c1.5-2.8-2.8-5.4-4.3-2.5c-2.1,3.9,0,8.1-1.1,12.2c-0.9,3.7-3.3,6.7-6.1,9.2c-6.5,5.6-15.3,7.7-22.7,11.7
				c-4.3,2.3-8.1,5.3-11,9.3c-0.8,1.1-0.2,2.8,0.9,3.4C279.5,394.4,280.8,393.8,281.6,392.7L281.6,392.7z"/>
		</g>
	</g>
	<g>
		<path class="st1" d="M261.2,396.3c6.6,1.1,13.6-1.5,17.9-6.6c-0.5,4-4,7.1-7.8,8.1c-3.8,1-8,0.3-11.8-0.9c-3.8-1.2-7.4-3-11.2-4.1
			"/>
		<g>
			<path class="st1" d="M260.5,398.8c7.5,1.2,15.4-1.4,20.3-7.2c-1.4-0.8-2.8-1.6-4.2-2.4c-0.8,5-5.9,7-10.4,6.7
				c-6.1-0.3-11.6-3.7-17.3-5.4c-3.1-0.9-4.4,3.9-1.3,4.8c6.8,2.1,13.2,5.9,20.5,5.6c6-0.3,12.4-4,13.4-10.4
				c0.2-1.1-0.1-2.2-1.1-2.8c-0.9-0.5-2.3-0.4-3,0.4c-3.8,4.4-9.7,6.9-15.5,5.9c-1.3-0.2-2.7,0.3-3.1,1.7
				C258.4,396.9,259.1,398.5,260.5,398.8L260.5,398.8z"/>
		</g>
	</g>
	<g>
		<path class="st1" d="M298.4,372.3c6.1-1.3,11.5-5.3,14.5-10.8c-4.1,4.2-8.3,8.4-12.4,12.6c10.7-4,19.1-13.5,21.9-24.5
			c0.6-2.2,0.9-4.5,1.7-6.7c0.8-2.2,2.2-4.2,4.2-5.3"/>
		<g>
			<path class="st1" d="M299.1,374.7c6.7-1.5,12.7-5.9,16-12c1.3-2.4-1.9-5.1-3.9-3c-4.1,4.2-8.3,8.4-12.4,12.6
				c-1.6,1.7,0,5.1,2.4,4.2c7.6-2.9,14-8.1,18.5-14.8c2.2-3.3,3.9-6.9,4.9-10.7c1-3.7,1.1-9.1,5-11.2c2.8-1.5,0.3-5.9-2.5-4.3
				c-4.2,2.3-5.6,6.9-6.6,11.2c-0.8,3.9-2.1,7.5-4.1,11c-3.8,6.3-9.6,11.5-16.5,14.1c0.8,1.4,1.6,2.8,2.4,4.2
				c4.1-4.2,8.3-8.4,12.4-12.6c-1.3-1-2.6-2-3.9-3c-2.7,5-7.4,8.5-13,9.7C294.6,370.5,295.9,375.4,299.1,374.7L299.1,374.7z"/>
		</g>
	</g>
	<g>
		<path class="st1" d="M329.2,317.2c2.8,8,3,16.9,0.8,25.1c-2.2,8.2-7,15.7-13.4,21.2"/>
		<g>
			<path class="st1" d="M326.8,317.9c2.7,8.1,2.9,16.9,0.4,25.1c-2.2,7.3-6.6,13.8-12.4,18.8c-1,0.9-0.9,2.6,0,3.5
				c1,1,2.5,0.9,3.5,0c13.8-12,19-31.5,13.2-48.8C330.6,313.5,325.8,314.8,326.8,317.9L326.8,317.9z"/>
		</g>
	</g>
	<g>
		<path class="st1" d="M323.7,283.8c0.3,7.5-0.5,15-2.6,22.2c-1,3.6-2.4,7.2-2.3,10.9c0.1,4.2,2,8.2,3.3,12.2s2.1,8.6,0.1,12.3"/>
		<g>
			<path class="st1" d="M321.2,283.8c0.2,5-0.1,10.1-1,15c-0.5,2.5-1.1,5-1.8,7.4c-0.7,2.4-1.5,4.8-1.9,7.2
				c-0.8,5.2,0.8,9.8,2.5,14.6c1.3,3.7,2.9,8.3,1,12.1c-1.4,2.9,2.9,5.4,4.3,2.5c1.7-3.4,1.8-7.2,1.1-10.9
				c-0.8-3.8-2.5-7.2-3.5-10.9c-1-3.8-0.5-7.3,0.6-11.1c1.1-3.9,2.2-7.8,2.8-11.8c0.7-4.7,1-9.5,0.8-14.2
				C326.1,280.6,321.1,280.6,321.2,283.8L321.2,283.8z"/>
		</g>
	</g>
	<g>
		<path class="st1" d="M323.2,318.4c0-3.5,0-7.1,0.1-10.6c-0.1,5.4-0.2,10.8-0.3,16.2c0,1.5,0,3.1,0.8,4.4c-0.5-3.8-1-7.5-1.5-11.3"
			/>
		<g>
			<path class="st1" d="M325.7,318.4c0-3.5,0-7.1,0.1-10.6c0-3.2-4.9-3.2-5,0c-0.1,3.8-0.1,7.6-0.2,11.3c-0.1,3.4-0.7,7.5,1.1,10.5
				c0.6,1.1,2,1.5,3.1,1c1.2-0.5,1.6-1.7,1.4-2.9c-0.5-3.8-1-7.5-1.5-11.3c-0.2-1.3-1.9-2.1-3.1-1.7c-1.4,0.4-1.9,1.7-1.7,3.1
				c0.5,3.8,1,7.5,1.5,11.3c1.5-0.6,3-1.3,4.6-1.9c-0.6-1-0.5-2.3-0.4-3.6c0-1.8,0.1-3.5,0.1-5.3c0.1-3.5,0.1-7,0.2-10.5
				c-1.7,0-3.3,0-5,0c0,3.5,0,7.1-0.1,10.6C320.7,321.7,325.7,321.7,325.7,318.4L325.7,318.4z"/>
		</g>
	</g>
	<g>
		<path class="st1" d="M128.8,308.7c-5.3,17.1-2.5,35.6,0.3,53.3c-3.7-17.6-2.8-36.1,2.6-53.3"/>
		<g>
			<path class="st1" d="M126.4,308c-5.5,17.8-2.6,36.6,0.3,54.6c1.6-0.4,3.2-0.9,4.8-1.3c-3.6-17.2-2.7-35.2,2.6-51.9
				c1-3.1-3.9-4.4-4.8-1.3c-5.6,17.6-6.4,36.5-2.6,54.6c0.3,1.3,1.8,2.1,3.1,1.7c1.4-0.4,2-1.7,1.7-3.1c-2.7-17.1-5.5-35-0.3-52
				C132.2,306.3,127.4,304.9,126.4,308L126.4,308z"/>
		</g>
	</g>
	<g>
		<path class="st1" d="M126.4,348.6c-0.2,4.6,3.4,8.4,7,11.3s7.6,6.1,8.4,10.6"/>
		<g>
			<path class="st1" d="M123.9,348.6c-0.2,5.2,3.4,9.5,7.2,12.7c3.3,2.8,7.4,5.5,8.3,9.9c0.3,1.3,1.8,2.1,3.1,1.7
				c1.4-0.4,2-1.7,1.7-3.1c-1-4.8-4.7-8.1-8.3-11.1c-3.1-2.6-7.2-5.8-7-10.2C129,345.4,124,345.4,123.9,348.6L123.9,348.6z"/>
		</g>
	</g>
	<g>
		<path class="st1" d="M138.9,365.7c4.8,0.8,8.8,4.1,12.9,6.8s9.1,4.9,13.7,3.5"/>
		<g>
			<path class="st1" d="M138.2,368.1c4.9,0.9,8.7,4.3,12.8,6.9c4.5,2.8,9.8,4.9,15.1,3.4c3.1-0.9,1.8-5.7-1.3-4.8
				c-4.6,1.3-9-1.3-12.7-3.8c-3.9-2.6-7.8-5.5-12.6-6.4c-1.3-0.3-2.7,0.4-3.1,1.7C136.1,366.2,136.9,367.8,138.2,368.1L138.2,368.1z
				"/>
		</g>
	</g>
	<g>
		<path class="st1" d="M180.3,377.3c-8.1,2.9-16.7,5.8-25.2,4.3c-10.8-1.8-19.1-10.2-26.7-18.1"/>
		<g>
			<path class="st1" d="M179.6,374.9c-7.4,2.6-15.4,5.5-23.4,4.4c-6.7-0.9-12.5-4.7-17.5-9.1c-3-2.6-5.8-5.5-8.5-8.4
				c-2.2-2.3-5.8,1.2-3.5,3.5c5.1,5.4,10.5,10.8,16.9,14.6c3.2,1.9,6.7,3.3,10.3,4c4.3,0.8,8.7,0.6,13-0.1c4.8-0.9,9.5-2.5,14.1-4.1
				c1.3-0.4,2.1-1.7,1.7-3.1C182.4,375.4,180.9,374.5,179.6,374.9L179.6,374.9z"/>
		</g>
	</g>
	<g>
		<path class="st1" d="M131,358.4c14.6,15,37,21.9,57.5,17.7"/>
		<g>
			<path class="st1" d="M129.2,360.2c11.9,12.2,28.7,19.2,45.7,19.6c4.8,0.1,9.6-0.3,14.3-1.3c1.3-0.3,2.1-1.8,1.7-3.1
				c-0.4-1.4-1.7-2-3.1-1.7c-15.3,3.1-31.7-0.3-44.8-8.7c-3.7-2.4-7.2-5.2-10.3-8.4C130.5,354.4,127,357.9,129.2,360.2L129.2,360.2z
				"/>
		</g>
	</g>
	<g>
		<path class="st1" d="M147.7,379c7,4,15.5,4.9,23.6,3.9c8.1-1,15.8-3.6,23.5-6.3"/>
		<g>
			<path class="st1" d="M146.5,381.1c15.5,8.7,33.4,3.3,49-2.1c1.3-0.4,2.1-1.7,1.7-3.1c-0.3-1.2-1.8-2.2-3.1-1.7
				c-14.2,4.9-30.9,10.6-45.1,2.6C146.2,375.2,143.7,379.6,146.5,381.1L146.5,381.1z"/>
		</g>
	</g>
	<g>
		<path class="st1" d="M168.5,383.2c15.1-1.9,30.3-2.8,45.6-2.6"/>
		<g>
			<path class="st1" d="M168.5,385.7c15.1-1.9,30.3-2.8,45.6-2.6c3.2,0,3.2-5,0-5c-15.2-0.2-30.4,0.7-45.6,2.6
				c-1.3,0.2-2.5,1-2.5,2.5C166,384.5,167.1,385.9,168.5,385.7L168.5,385.7z"/>
		</g>
	</g>
	<g>
		<path class="st1" d="M177.4,270.3c-10.1,2.4-18.7,10.6-21.5,20.6c-0.8,2.8-1.2,5.7-2.9,8.1c-2.6,3.7-7.6,4.7-12,5.8
			c-4.4,1.1-9.3,3.2-10.5,7.6c5.7-7.8,11.5-15.6,17.2-23.4c3.8-5.2,7.7-10.5,12.6-14.7c6.2-5.3,13.9-8.7,22-9.7
			c-0.5,4.1-3.7,7.3-7.3,9.4c-3.5,2.1-7.5,3.4-11,5.5c-7,4.2-11.8,11.7-12.8,19.8c-3,0.8-6,1.6-9,2.4c3-4.5,5.9-9,8.9-13.5
			c-0.3,7.4-6.5,12.9-12.3,17.5c-5.8,4.6-12.1,9.8-13,17.1"/>
		<g>
			<path class="st1" d="M176.8,267.9c-8.9,2.2-16.7,8.4-20.9,16.5c-1.1,2.1-1.9,4.3-2.5,6.6c-0.6,2.3-1,4.8-2.4,6.7
				c-2.6,3.3-7.5,3.8-11.3,4.9c-4.9,1.4-9.8,3.9-11.5,9.1c-0.4,1.2,0.3,2.5,1.4,2.9c1.2,0.5,2.4,0,3.1-1
				c5.9-8.1,11.9-16.2,17.8-24.3c5.2-7.1,10.8-13.9,18.7-18.1c4.3-2.3,9-3.7,13.7-4.3c-1-1-2.1-2.1-3.1-3.1
				c-0.6,3.9-3.6,6.5-6.9,8.4c-4,2.2-8.4,3.6-12.1,6.3c-6.8,5-11.1,12.4-12.2,20.7c0.6-0.8,1.2-1.6,1.8-2.4c-3,0.8-6,1.6-9,2.4
				c0.9,1.2,1.9,2.4,2.8,3.7c3-4.5,5.9-9,8.9-13.5c-1.6-0.4-3.1-0.8-4.7-1.3c-0.4,7.2-7.3,12.3-12.5,16.4
				c-5.6,4.5-11.7,9.9-12.8,17.5c-0.2,1.3,0.3,2.7,1.7,3.1c1.2,0.3,2.9-0.4,3.1-1.7c1-7.4,7.5-12.1,13-16.5
				c6-4.8,11.9-10.7,12.4-18.8c0.2-2.6-3.4-3.2-4.7-1.3c-3,4.5-5.9,9-8.9,13.5c-1.2,1.9,0.8,4.2,2.8,3.7c3-0.8,6-1.6,9-2.4
				c1.2-0.3,1.7-1.3,1.8-2.4c0.9-7.4,5.6-14.2,12-17.9c4-2.3,8.5-3.6,12.2-6.3c3.3-2.4,6.2-5.7,6.8-9.9c0.3-2-1.1-3.3-3.1-3.1
				c-9.1,1.2-17.7,5.3-24.4,11.6c-3.5,3.2-6.5,7-9.3,10.8c-3.1,4.1-6.1,8.2-9.1,12.3c-3.5,4.8-7,9.5-10.5,14.3
				c1.5,0.6,3,1.3,4.6,1.9c1.1-3.5,5.3-4.9,8.5-5.7c4.3-1.1,8.9-2.1,12.2-5.2c3.7-3.4,3.8-8.5,5.5-12.9c1.5-3.8,3.9-7.1,6.8-9.9
				c3.4-3.2,7.6-5.4,12.1-6.6C181.2,272,179.9,267.2,176.8,267.9L176.8,267.9z"/>
		</g>
	</g>
	<g>
		<path class="st1" d="M151.8,286.1c4.2-6.5,10.2-11.8,17.2-15c-1.9,1.8-3.8,3.5-5.7,5.3"/>
		<g>
			<path class="st1" d="M154,287.4c3.9-6.1,9.6-11,16.3-14.1c-1-1.3-2-2.6-3-3.9c-1.9,1.8-3.8,3.5-5.7,5.3c-1,0.9-0.9,2.6,0,3.5
				c1,1,2.5,0.9,3.5,0c1.9-1.8,3.8-3.5,5.7-5.3c0.9-0.8,0.9-2.3,0.2-3.3c-0.8-1-2.1-1.2-3.2-0.6c-7.4,3.4-13.7,9-18.1,15.9
				c-0.7,1.1-0.2,2.8,0.9,3.4C151.8,289,153.3,288.5,154,287.4L154,287.4z"/>
		</g>
	</g>
	<g>
		<path class="st1" d="M179.5,269.7c5.2-3.9,11.8-6,18.3-5.8"/>
		<g>
			<path class="st1" d="M180.8,271.8c5-3.7,10.9-5.6,17-5.4c1.4,0,2.5-1.2,2.5-2.5c0-1.4-1.1-2.5-2.5-2.5c-7-0.2-14,1.9-19.6,6.1
				c-1.1,0.8-1.6,2.2-0.9,3.4C178,272,179.7,272.6,180.8,271.8L180.8,271.8z"/>
		</g>
	</g>
	<g>
		<path class="st1" d="M181.7,328c0.5-5.5,1-10.9,1.5-16.4c0.1-0.7,0.1-1.6-0.5-2c-0.6-0.4-1.5,0-1.9,0.6c-0.4,0.6-0.4,1.4-0.5,2.1
			c-0.1,3-0.2,6-0.3,9c-0.1,2.5-0.2,5.2-1.8,7.2c-2.1,2.7-6,3.1-9.4,3.1c-1.1,0-2.5-0.2-2.8-1.3c-0.2-0.9,0.6-1.7,1.4-2
			c0.9-0.3,1.8-0.1,2.7-0.2c3.5-0.2,6.4-2.9,8-5.9s2.1-6.6,2.8-10c0.2-0.9,0.6-1.9,1.5-1.9c0.8,0,1.2,1,1.3,1.9
			c0.5,3.6,0.1,7.4,1.1,10.9c0.9,3.5,3.9,7,7.6,6.7"/>
		<g>
			<path class="st1" d="M184.2,328c0.4-4.2,0.8-8.4,1.2-12.6c0.2-1.8,0.7-4,0.2-5.8c-0.6-2-2.7-3-4.7-2.4c-2.1,0.7-2.8,2.7-3,4.7
				c-0.1,2-0.1,4.1-0.2,6.1c-0.1,1.9,0,3.8-0.3,5.7c-0.2,1.3-0.5,2.8-1.6,3.7c-2.1,1.8-5,1.3-7.5,1.6c0.1,0-0.4-0.1-0.3-0.1
				c0.6-0.2-1.9,6.8,0.6,1.3c0,0-0.1,0.4-0.2,0.3c0,0-0.1,0-0.1,0.1c0.1,0,0.1,0,0.2-0.1c0.3,0.1,1,0,1.3,0c0.5,0,1-0.1,1.5-0.1
				c1.7-0.2,3.2-0.9,4.6-1.9c3.1-2.2,4.9-5.4,6-9c0.5-1.7,0.9-3.5,1.2-5.3c0.1-0.4,0.6-1.7,0.5-2.1c0,0.1-2.2-0.4-2.2,0.1
				c-0.1,0.4,0.2,1,0.2,1.4c0.4,4.3,0,8.7,2,12.6c1.7,3.4,5.1,6.1,9,5.9c3.2-0.1,3.2-5.1,0-5c-2.9,0.1-4.7-2.8-5.3-5.3
				c-0.4-1.9-0.5-3.8-0.5-5.7c-0.1-1.9,0-4.2-0.8-6c-0.8-2-3.1-3.2-5.1-2c-1.6,1-2.1,2.8-2.4,4.5c-0.7,3.4-1.3,7.3-3.6,10.1
				c-0.9,1.1-2,2.1-3.4,2.5c-1.8,0.6-3.8,0-5.5,1c-1.9,1.1-2.9,3.5-1.8,5.5c0.9,1.7,2.9,2.2,4.7,2.3c3.2,0.1,6.9-0.3,9.6-2.2
				c3.3-2.4,4.1-6.1,4.2-9.9c0.1-2.4,0.2-4.9,0.3-7.3c0-0.7,0-1.3,0.1-2c0-0.2,0.1-0.9,0.1-1c0.2,0.6-2.8-0.7-1.2-0.1
				c-1.6-0.5-0.9-0.6-1-0.1c-0.1,0.5-0.1,1.1-0.1,1.6c-0.5,5-0.9,10.1-1.4,15.1c-0.1,1.3,1.2,2.5,2.5,2.5
				C183.2,330.5,184.1,329.3,184.2,328L184.2,328z"/>
		</g>
	</g>
	<g>
		<path class="st1" d="M168.3,331.2c7.4-0.5,15,2.3,20.1,7.6"/>
		<g>
			<path class="st1" d="M168.3,333.7c6.8-0.5,13.5,2,18.4,6.9c2.3,2.3,5.8-1.2,3.5-3.5c-5.7-5.7-13.8-8.9-21.9-8.4
				c-1.3,0.1-2.5,1.1-2.5,2.5C165.8,332.5,167,333.8,168.3,333.7L168.3,333.7z"/>
		</g>
	</g>
	<g>
		<path class="st1" d="M133.7,192c-0.7,3.1,0.4,6.4,2,9.3c1.6,2.8,3.5,5.5,4.6,8.5c2,5.6,0.7,11.8-1.1,17.5
			c-1.8,5.7-4,11.4-3.8,17.4c1.1-12,2.1-23.9,3.2-35.9c-0.5,3,2.1,5.8,5,6.6s6,0.1,8.9-0.5s6.1-1.2,8.9-0.3
			c-11.2,2.6-21.2,9.7-27.4,19.4c4.9-8.4,13-15.1,22.6-16.9c-4.4,1.6-9.6,1-13.6-1.5c-4-2.6-6.7-7-7.1-11.7c3.5,2.6,7.2,5,11.3,6.2
			c4.2,1.2,8.8,1.2,12.6-0.9c-5.2,0.6-10.5,1.3-15.5-0.1s-9.8-5.1-10.6-10.3c-0.1,6.7,6.2,12,12.8,13.3c6.6,1.2,13.3-0.6,19.7-2.4
			c-5,0.5-10.1,1.1-15.1,1.6"/>
		<g>
			<path class="st1" d="M131.3,191.4c-1,4.9,1.1,9.4,3.6,13.5c1.2,1.9,2.5,3.9,3.2,6.1c0.7,2,0.8,4.2,0.7,6.3
				c-0.2,4.6-1.8,9-3.2,13.4c-1.5,4.6-2.7,9.2-2.6,14.1c0.1,3.3,4.7,3.2,5,0c1.1-12,2.1-23.9,3.2-35.9c0.2-2.8-4.5-3.5-4.9-0.7
				c-0.8,5.5,3.7,9.5,8.9,10c5.2,0.5,10.5-2.7,15.7-1.1c0-1.6,0-3.2,0-4.8c-11.8,2.8-22.3,10.3-28.9,20.5c1.4,0.8,2.9,1.7,4.3,2.5
				c4.6-7.8,12-14,21.1-15.7c-0.4-1.6-0.9-3.2-1.3-4.8c-4,1.4-8.4,1-12-1.5c-3.1-2.1-5.2-5.7-5.5-9.4c-1.3,0.7-2.5,1.4-3.8,2.2
				c7.6,5.5,17.4,10.2,26.5,5.4c2.1-1.1,1.2-5-1.3-4.7c-5.3,0.7-11,1.5-16.2-0.4c-3.7-1.3-6.8-4.2-7.5-8.1c-0.5-2.8-4.9-2.1-4.9,0.7
				c0,7,5.4,12.4,11.6,14.8c7.8,3,16.4,0.6,24.1-1.5c1.2-0.3,2-1.5,1.8-2.7c-0.2-1.1-1.2-2.3-2.5-2.2c-5,0.5-10.1,1.1-15.1,1.6
				c-1.3,0.1-2.5,1-2.5,2.5c0,1.2,1.1,2.6,2.5,2.5c5-0.5,10.1-1.1,15.1-1.6c-0.2-1.6-0.4-3.3-0.7-4.9c-6.5,1.8-13.7,4.1-20.4,1.9
				c-4.5-1.5-8.9-5.3-8.9-10.3c-1.6,0.2-3.3,0.4-4.9,0.7c0.9,5.3,5.2,9.2,10,11.2c5.9,2.4,12.4,1.7,18.5,1c-0.4-1.6-0.8-3.1-1.3-4.7
				c-7.4,3.9-15.5-1-21.5-5.4c-1.5-1.1-3.9,0.4-3.8,2.2c0.5,5.4,3.2,10.3,7.7,13.5c4.6,3.3,10.9,4,16.2,2.2c3-1.1,1.8-5.4-1.3-4.8
				c-10.2,2-18.9,9.1-24.1,18c-1.6,2.8,2.6,5.2,4.3,2.5c5.9-9.2,15.3-15.7,25.9-18.2c2.5-0.6,2.3-4.1,0-4.8c-4.6-1.4-9,0.3-13.5,0.9
				c-1.8,0.2-3.8,0.3-5.4-0.6c-1-0.5-2.3-1.8-2.1-3c-1.6-0.2-3.3-0.4-4.9-0.7c-1.1,12-2.1,23.9-3.2,35.9c1.7,0,3.3,0,5,0
				c-0.3-9.4,5.2-17.7,5.8-27c0.3-4.7-0.8-9-3.2-13.1c-2-3.5-5.4-7.6-4.5-11.9c0.3-1.3-0.4-2.7-1.7-3.1
				C133.2,189.3,131.6,190,131.3,191.4L131.3,191.4z"/>
		</g>
	</g>
	<g>
		<path class="st1" d="M185.1,183.5c0.2,3-1.3,5.8-3.1,8.2c-1.8,2.4-4,4.3-5.9,6.7c-1.9,2.3-3.4,5-3.5,8c-0.1,3,1.7,6.1,4.6,6.9
			c2.9,0.7,5.9-1.1,7.5-3.7s2-5.6,2.4-8.5c0.7-5.4,1.4-10.8,2.1-16.2c-3.5,4.2-7.1,8.5-10.6,12.7c-2.1,2.5-4.3,5.4-4,8.7
			c0.1,0.8,0.4,1.8,1.2,2c0.7,0.2,1.4-0.2,2-0.5c2.7-1.8,4.9-4.3,6.2-7.2c-1,0.3-1.9,1.1-2.3,2c0.2-2.1,0.5-4.2,0.7-6.2
			c-1.9,1.1-3.3,2.9-3.9,5c1.3-1.2,2.5-2.5,3.8-3.7c-1.7,1.3-3.1,3.1-4,5c1.9-2.5,3.8-4.9,5.7-7.4c2.1,5.1-0.5,11.7-5.5,14
			c4.2,2.6,6.6,7.8,6,12.6"/>
		<g>
			<path class="st1" d="M182.6,183.5c0.1,5.1-4.4,8.6-7.4,12c-3.2,3.7-6.1,8.4-4.8,13.5c1.2,4.7,5.8,8,10.6,6.4
				c5-1.7,7.3-6.6,8.1-11.4c1-6.4,1.7-12.8,2.6-19.2c0.3-2.1-2.9-3.3-4.3-1.8c-2.8,3.4-5.6,6.7-8.5,10.1c-2.5,3-5.7,6.1-6.6,10
				c-0.4,1.8-0.5,3.9,0.4,5.5c1.3,2.2,3.8,2.5,5.9,1.4c3.3-1.8,5.9-5,7.5-8.4c0.8-1.8-0.6-4.5-2.8-3.7c-1.6,0.6-3,1.6-3.8,3.2
				c1.6,0.4,3.1,0.8,4.7,1.3c0.2-2.1,0.5-4.2,0.7-6.2c0.2-1.9-2.3-3.1-3.8-2.2c-2.4,1.5-4.2,3.7-5,6.5c-0.8,2.4,2.4,4.1,4.2,2.4
				c1.3-1.2,2.5-2.5,3.8-3.7c1-0.9,0.9-2.6,0-3.5c-1-1-2.5-0.8-3.5,0c-1.9,1.5-3.4,3.4-4.4,5.5c-1.4,3,2.4,5.1,4.3,2.5
				c1.9-2.5,3.8-4.9,5.7-7.4c-1.5-0.2-3-0.4-4.6-0.6c1.7,4.2-0.2,9.2-4.4,11.2c-1.8,0.9-1.4,3.4,0,4.3c3.5,2.3,5.2,6.4,4.8,10.5
				c-0.1,1.3,1.2,2.5,2.5,2.5c1.5,0,2.4-1.2,2.5-2.5c0.6-5.9-2.4-11.6-7.3-14.8c0,1.4,0,2.9,0,4.3c6-2.9,9.1-10.6,6.7-16.8
				c-0.8-2.1-3.2-2.4-4.6-0.6c-1.9,2.5-3.8,4.9-5.7,7.4c1.4,0.8,2.9,1.7,4.3,2.5c0.9-1.8,2-3.3,3.6-4.5c-1.2-1.2-2.4-2.4-3.5-3.5
				c-1.3,1.2-2.5,2.5-3.8,3.7c1.4,0.8,2.8,1.6,4.2,2.4c0.5-1.5,1.4-2.7,2.7-3.5c-1.3-0.7-2.5-1.4-3.8-2.2c-0.2,2.1-0.5,4.2-0.7,6.2
				c-0.3,2.5,3.6,3.4,4.7,1.3c0.2-0.4,0.4-0.7,0.8-0.9c-0.9-1.2-1.9-2.4-2.8-3.7c-1.1,2.4-2.7,4.5-4.8,6c-0.1,0-0.9,0.5-0.9,0.6
				c0,0,1.1,0.4,0.9,0.4c0,0,0-1.1,0-1.2c0.2-1.3,0.9-2.4,1.6-3.5c1.7-2.5,3.8-4.7,5.7-7c2.2-2.6,4.4-5.2,6.6-7.9
				c-1.4-0.6-2.8-1.2-4.3-1.8c-0.7,4.9-1.3,9.8-2,14.7c-0.5,3.5-0.7,8.5-4.1,10.6c-1.1,0.7-2.6,1-3.7,0.2c-1.1-0.8-1.7-2.2-1.8-3.5
				c-0.3-4,3.2-7.4,5.7-10.1c3.5-3.7,6.9-7.9,6.7-13.3C187.5,180.2,182.5,180.2,182.6,183.5L182.6,183.5z"/>
		</g>
	</g>
	<g>
		<path class="st1" d="M184,175.6c0.3,3.8,0.6,7.6,0.2,11.4c-0.4,3.8-1.6,7.6-4,10.5"/>
		<g>
			<path class="st1" d="M181.5,175.6c0.5,6.6,1.4,14.6-3.1,20.2c-0.8,1.1-1,2.5,0,3.5c0.9,0.9,2.7,1.1,3.5,0
				c5.5-6.8,5.2-15.4,4.6-23.7c-0.1-1.3-1.1-2.5-2.5-2.5C182.8,173.1,181.4,174.2,181.5,175.6L181.5,175.6z"/>
		</g>
	</g>
	<g>
		<path class="st1" d="M176.6,204.5c0.7,3.9,2.8,7.4,4.6,11c1.7,3.6,3.1,7.7,2,11.5"/>
		<g>
			<path class="st1" d="M174.2,205.1c0.7,3.9,2.7,7.4,4.5,10.9c1.6,3.1,3.1,6.8,2.1,10.3c-0.8,3.1,4,4.5,4.8,1.3
				c1.1-4.4-0.1-8.7-2-12.7c-1.7-3.7-3.9-7.1-4.7-11.1c-0.2-1.3-1.9-2.1-3.1-1.7C174.5,202.4,173.9,203.8,174.2,205.1L174.2,205.1z"
				/>
		</g>
	</g>
	<g>
		<path class="st1" d="M138.7,219.8c7.2-1.9,14.5-3.9,21.7-5.8c1.5-0.4,3.2-1,3.7-2.5c0.4-1.1-0.2-2.3-1.2-2.8c-1-0.5-2.3-0.2-3,0.8
			c1-1.2,2.7-1.6,4.1-1.1c1.4,0.5,2.5,1.9,2.5,3.4c0,1.7-1.1,3.2-2.5,4.1c-1.4,0.9-3.1,1.3-4.7,1.6c-3.6,0.7-7.2,1.3-10.6,2.6
			c-3.4,1.3-6.7,3.2-8.8,6.2"/>
		<g>
			<path class="st1" d="M139.3,222.2c7.4-2,14.9-3.8,22.2-5.9c3.1-0.9,6-3.3,4.9-6.9c-1.1-3.6-5.9-4.6-8.3-1.7c-0.9,1-1,2.5,0,3.5
				c0.9,0.9,2.6,1,3.5,0c1.3-1.4,3,0.2,1.9,1.7c-0.8,1.1-2.3,1.5-3.6,1.8c-1.7,0.4-3.5,0.7-5.2,1.1c-6.6,1.4-13,3.6-17.2,9.2
				c-0.8,1.1-0.2,2.8,0.9,3.4c1.3,0.7,2.6,0.2,3.4-0.9c2.2-3,5.7-4.6,9.1-5.7c4.1-1.2,8.5-1.4,12.4-3c3.8-1.6,6.8-5.6,4.8-9.7
				c-1.9-3.9-7.3-4.6-10.2-1.4c1.2,1.2,2.4,2.4,3.5,3.5c0.6-0.7-0.3-0.2-0.7,0c-1,0.4-2.2,0.6-3.2,0.9c-1.4,0.4-2.7,0.7-4.1,1.1
				c-5.2,1.4-10.5,2.8-15.7,4.2C134.9,218.2,136.2,223.1,139.3,222.2L139.3,222.2z"/>
		</g>
	</g>
</g>
</svg>
