<svg id="Calque_1" data-name="Calque 1" xmlns="http://www.w3.org/2000/svg" viewBox="0 0 68.79 92.19"><defs><style>.cls-1{fill:#fff;}</style></defs><path class="cls-1" d="M38.83,23.92c-2,.5-3.63,2.86-4,4.79a7.61,7.61,0,0,0,1.53,6.23,16.73,16.73,0,0,0,12.41,6.4,29.42,29.42,0,0,0,15.15-2.52c3.49-1.65,9.6-5.14,8.54-9.84-.55-2.41-2.44-4.53-4.23-6.12A7.61,7.61,0,0,0,64.88,21c-1-.24-2.29-.05-3.16-.62-1.35-.88-2.6,1.28-1.26,2.16s2.77.54,4.14,1a9.29,9.29,0,0,1,4.21,3.69A6.94,6.94,0,0,1,70,29.64,3.37,3.37,0,0,1,69,32.34a18.06,18.06,0,0,1-4.34,3.27,23.14,23.14,0,0,1-11.83,3.32c-4.06,0-7.91-.13-11.33-2.59a11.31,11.31,0,0,1-4-4.59,4.54,4.54,0,0,1,0-3,4,4,0,0,1,2.1-2.42,1.25,1.25,0,0,0-.66-2.41Z" transform="translate(-17.21 -3.75)"/><path class="cls-1" d="M40.36,23.28a.64.64,0,0,1,.16.29c0,.19,0,.22,0,.08s0-.24,0-.36,0-.47,0-.7a18.49,18.49,0,0,1,0-2,1.37,1.37,0,0,1,0-.19c0,.13,0,.11,0,0l.12-.51c.09-.31.19-.62.29-.94,0-.12.06-.24.1-.37s.12-.28.1-.32c-.08.18-.09.21,0,.09-.13.15-.15.18-.06.08s.07-.08-.06,0l.17-.1A1.25,1.25,0,0,0,40,16.2,2.65,2.65,0,0,0,38.68,18a14.8,14.8,0,0,0-.61,2.55,22.83,22.83,0,0,0,0,2.34c0,.81-.12,1.58.53,2.21a1.25,1.25,0,1,0,1.76-1.77Z" transform="translate(-17.21 -3.75)"/><path class="cls-1" d="M40.28,16H30.59c-.89,0-2-.14-2.71.54a2.53,2.53,0,0,0-.39,2.48,6.59,6.59,0,0,0,1,2.44,11.14,11.14,0,0,0,4.22,3.9,5.89,5.89,0,0,0,3.23.76,5.61,5.61,0,0,0,3-1.1c1.2-1.08-.57-2.84-1.77-1.77.12-.11-.28.08-.27.07l-.66.21a2.49,2.49,0,0,1-1,.09,5.43,5.43,0,0,1-2.34-1.1,6.84,6.84,0,0,1-2.9-4,2.91,2.91,0,0,0-.1-.59c0-.09,0-.1,0,0a.73.73,0,0,1-.34.56.34.34,0,0,1-.2.06h11a1.25,1.25,0,0,0,0-2.5Z" transform="translate(-17.21 -3.75)"/><path class="cls-1" d="M60.13,17.89c1.92,0,3.84.12,5.76,0a11,11,0,0,0,2.83-.56c.43-.15.86-.32,1.3-.43a2.49,2.49,0,0,1,.37-.09s1-.07.45-.16l-.92-1.2c0-.19-.15.23-.15.23-.11.23-.19.46-.29.68q-.33.73-.72,1.44a8,8,0,0,1-1.43,2A9,9,0,0,1,65,20.84a2.41,2.41,0,0,1-1.1.32,5.36,5.36,0,0,1-1.15-.28,1.26,1.26,0,0,0-1.53.87A1.25,1.25,0,0,0,62,23.29c.27.06.49.19.76.26a2.84,2.84,0,0,0,1,.11,4.63,4.63,0,0,0,2-.43A12.81,12.81,0,0,0,69,21.65a9.62,9.62,0,0,0,2-2.72,17.89,17.89,0,0,0,.82-1.71,5,5,0,0,0,.63-1.81,1.25,1.25,0,0,0-.91-1.21,6.22,6.22,0,0,0-2.69.41,11.83,11.83,0,0,1-2.73.72c-2,.19-4,.06-6,.06a1.25,1.25,0,0,0,0,2.5Z" transform="translate(-17.21 -3.75)"/><path class="cls-1" d="M39.64,14.59c-.47-.06-1.13-2.68-1.16-3a5.6,5.6,0,0,1,.22-2.3C38.78,9,39,8,39.05,8L37,7.4a6.06,6.06,0,0,0,2.22,2.69A12.38,12.38,0,0,1,41,11.78c.29.39.38.91.74,1.25,1.06,1,2.58,0,3.7-.34a13.32,13.32,0,0,1,4.64-.88,6.89,6.89,0,0,1,1.75-.07c.53.15.94.77,1.38,1.08a2,2,0,0,0,2.95-.49c1-1.1,1.91-2.22,2.82-3.36.48-.6,1-1.2,1.41-1.85a4.63,4.63,0,0,1,.93-1.26l-2-.25c-.19-.36,0,.44.06.58.06.39.13.78.2,1.17.16.93.26,1.86.35,2.8.16,1.64.74,3.45-.42,4.8s.71,3,1.76,1.76a5.39,5.39,0,0,0,1.38-2.39,12.4,12.4,0,0,0-.15-3.49c-.11-1.16-.23-2.33-.4-3.48a9.78,9.78,0,0,0-.62-3,1.27,1.27,0,0,0-2-.25,6.77,6.77,0,0,0-1.32,1.76,27.69,27.69,0,0,1-2,2.54,10.92,10.92,0,0,0-1.92,2.28l-.21.22c.59,0,.68-.13.25-.37a3.2,3.2,0,0,0-1-.88,3.66,3.66,0,0,0-2.13-.4c-1.06.06-2.13,0-3.18.13a9.78,9.78,0,0,0-2.45.61c-.52.19-1,.36-1.57.53l-1,.42.75.57c-.24-.33-.34-.73-.58-1.07A10.17,10.17,0,0,0,41.74,9c-.72-.63-2-1.33-2.37-2.26s-1.45-1.35-2.09-.56A7.17,7.17,0,0,0,36.18,9a7.51,7.51,0,0,0,0,3.91c.56,1.8,1.37,3.86,3.44,4.14,1.59.21,1.57-2.29,0-2.5Z" transform="translate(-17.21 -3.75)"/><path class="cls-1" d="M42.81,16.32a8.62,8.62,0,0,1,0-.88l0,.34a1.74,1.74,0,0,1,.11-.45l-.12.3a1.87,1.87,0,0,1,.22-.39l-.19.25a5.43,5.43,0,0,1,.75-.69,1.23,1.23,0,0,0,.37-.88,1.3,1.3,0,0,0-.37-.89,1.25,1.25,0,0,0-.88-.36l-.33,0a1.27,1.27,0,0,0-.55.32l-.53.44a1.7,1.7,0,0,0-.22.24,2.61,2.61,0,0,0-.36.51,3.25,3.25,0,0,0-.37,1.28c0,.28,0,.55,0,.82a1.26,1.26,0,0,0,1.25,1.25,1.22,1.22,0,0,0,.88-.37,1.26,1.26,0,0,0,.37-.88Z" transform="translate(-17.21 -3.75)"/><path class="cls-1" d="M54.69,14.05h.23l-.33,0a1.4,1.4,0,0,1,.35.1l-.3-.13a1.51,1.51,0,0,1,.35.2L54.74,14a2.84,2.84,0,0,1,.48.5L55,14.25c.41.54.72,1.15,1.17,1.67a1.24,1.24,0,0,0,.89.37A1.26,1.26,0,0,0,58.34,15a1.37,1.37,0,0,0-.37-.88L57.86,14l.19.26c-.17-.23-.32-.47-.47-.7a10.62,10.62,0,0,0-.67-.94,2.88,2.88,0,0,0-2.22-1.08,1.34,1.34,0,0,0-.89.36,1.29,1.29,0,0,0-.36.89,1.25,1.25,0,0,0,.36.88,1.3,1.3,0,0,0,.89.37Z" transform="translate(-17.21 -3.75)"/><path class="cls-1" d="M43.64,21.73A4.82,4.82,0,0,0,45,21.42c.24-.1.49-.19.72-.31s.32-.2.49-.28l-.3.13a1.6,1.6,0,0,1,.42-.1A2,2,0,0,0,47,20.6a1.32,1.32,0,0,0,.58-.75,1.29,1.29,0,0,0-.13-1,1.23,1.23,0,0,0-.75-.57,1.29,1.29,0,0,0-1,.12l-.13.07.3-.13a1.53,1.53,0,0,1-.37.08,2.8,2.8,0,0,0-.63.23c-.23.12-.44.26-.67.36l.29-.12a4.91,4.91,0,0,1-1.13.34l.33-.05h-.08a1.37,1.37,0,0,0-.88.37,1.26,1.26,0,0,0-.37.88,1.28,1.28,0,0,0,.37.89,1.22,1.22,0,0,0,.88.36Z" transform="translate(-17.21 -3.75)"/><path class="cls-1" d="M52.61,20a9.53,9.53,0,0,1,1.07,0l-.34,0a1.39,1.39,0,0,1,.35.09l-.29-.13a1,1,0,0,1,.22.14l-.25-.2a.57.57,0,0,1,.11.11,1.34,1.34,0,0,0,.89.36.89.89,0,0,0,.48-.11.94.94,0,0,0,.4-.25,1.3,1.3,0,0,0,.37-.89,1.37,1.37,0,0,0-.37-.88,2.38,2.38,0,0,0-.9-.57,2.9,2.9,0,0,0-.77-.14c-.33,0-.65,0-1,0a1.28,1.28,0,0,0-.89.37.9.9,0,0,0-.26.4,1,1,0,0,0-.1.48,1.29,1.29,0,0,0,.36.89,1.34,1.34,0,0,0,.89.36Z" transform="translate(-17.21 -3.75)"/><path class="cls-1" d="M45.09,26.65a32,32,0,0,0,3.24-1.15,31.28,31.28,0,0,1,3.7-.93A43,43,0,0,1,60,24.29a1.25,1.25,0,0,0,0-2.5,51.84,51.84,0,0,0-8.36.33,29,29,0,0,0-3.68.89c-1.18.35-2.3,1-3.5,1.23-1.57.34-.91,2.75.66,2.41Z" transform="translate(-17.21 -3.75)"/><path class="cls-1" d="M44,30.54A1.25,1.25,0,0,0,44,28a1.25,1.25,0,0,0,0,2.5Z" transform="translate(-17.21 -3.75)"/><path class="cls-1" d="M56.93,29.26a1.25,1.25,0,0,0,0-2.5,1.25,1.25,0,0,0,0,2.5Z" transform="translate(-17.21 -3.75)"/><path class="cls-1" d="M64.86,28.24a.67.67,0,0,1,.16.3c0-.14,0-.11,0,.09,0-.14,0-.12,0,.07a1.05,1.05,0,0,1,0-.19c0-.08.15-.29,0-.07l.2-.36q.12-.16,0,0l.12-.14c0-.06.25-.26,0,0,.08,0,.08,0,0,0l.25-.08.26-.06c-.08,0-.08,0,0,0a3.71,3.71,0,0,1,.47,0h.26c.16,0,.16,0,0,0q.16.06,0,0a.36.36,0,0,1-.18-.12c-.1-.15-.11-.16,0-.05-.06-.16-.06-.17,0,0s0,.13.05.2c0-.15,0-.14,0,0s.06-.08,0,.18a4.46,4.46,0,0,0-.22,1.2,1.27,1.27,0,0,0,1.59,1.2c.06,0,.72-.2.72-.18s-.32-.09,0,0c-.2-.09.11.06.15.08.21.1,0-.06.13.09s.21.29.11.12c0,0,.15.3.1.17,0,.13.09.27.13.41a2,2,0,0,1,0,1.17c-.09.28.07,0-.09.19a2.74,2.74,0,0,1-.23.36,1.88,1.88,0,0,1-.27.25l-.31.19s-.36.15-.15.07a5.83,5.83,0,0,1-.71.22c-.48.13-1,.21-1.46.31l-.35.08c-.23,0,0,0-.21,0,0,0-.35,0-.25,0l-.12,0c-.27-.13-.49-.34-.75-.49l-.33-.16c-.08,0-.34-.24-.2-.1-1.14-1.13-2.91.64-1.76,1.77a3.47,3.47,0,0,0,1,.61c.35.19.65.45,1,.62a4.14,4.14,0,0,0,2.67.09c1.4-.29,2.9-.54,3.93-1.62a4.48,4.48,0,0,0,.89-4.77,3.31,3.31,0,0,0-1.65-1.84,2.7,2.7,0,0,0-1.36-.32,11.78,11.78,0,0,0-1.18.25l1.58,1.21c0-.33-.07.13,0-.17,0-.12.07-.25.1-.37a3.41,3.41,0,0,0,.12-.84,2.82,2.82,0,0,0-.39-1.53c-.72-1.12-2.11-1.07-3.28-.88A3.08,3.08,0,0,0,63,27a2.49,2.49,0,0,0,.1,3,1.27,1.27,0,0,0,1.77,0,1.29,1.29,0,0,0,0-1.77Z" transform="translate(-17.21 -3.75)"/><path class="cls-1" d="M34,31.24c-1.52,0-2.16,1.05-3.24,1.85-.57.42-1.29.7-1.88,1.08S27.8,35,27.2,35.42a25.79,25.79,0,0,1-4.48,2c-1.52.57-3.13.79-4.64,1.37-1.23.48-1.18,2.51.33,2.46.55,0,1.12.5,1.59.77a18.82,18.82,0,0,1,1.58,1.05c1,.74,2.24,1.21,3.16,2a11.55,11.55,0,0,1,2,2.94,8.18,8.18,0,0,1,1.06,4,1.25,1.25,0,0,0,2.5,0,10.93,10.93,0,0,0-1.24-5,14.71,14.71,0,0,0-2.57-3.72,41.16,41.16,0,0,0-3.81-2.52c-1.16-.85-2.78-2.11-4.29-2.06l.34,2.45c1.5-.58,3.12-.79,4.63-1.37s2.8-1.11,4.14-1.77,2.31-1.56,3.52-2.27a8.68,8.68,0,0,0,1.73-1.15c.35-.34.74-.93,1.27-.92a1.25,1.25,0,0,0,0-2.5Z" transform="translate(-17.21 -3.75)"/><path class="cls-1" d="M71.09,32.89c1.14,1,2.38,1.86,3.61,2.72a32.86,32.86,0,0,0,3.76,2.57,8.49,8.49,0,0,0,3.2.68c.51,0,1,.15,1.55.14a2.41,2.41,0,0,0,.71,0c.53,0,.43-.41-.29-1.28l-.24.24a10.88,10.88,0,0,0-1.25,1.29c-.56.59-1.14,1.17-1.68,1.79A22.62,22.62,0,0,0,78,44.47a28.48,28.48,0,0,0-1.85,3.81,12.08,12.08,0,0,0-1.1,4.06,1.25,1.25,0,0,0,2.5,0,7.83,7.83,0,0,1,.57-2.09,16.76,16.76,0,0,1,.74-2A26.27,26.27,0,0,1,81,44.38a27.61,27.61,0,0,1,3-3.53c.68-.71,2-1.68,2-2.77-.06-1.33-1.38-1.62-2.45-1.59a17.81,17.81,0,0,1-3.25-.32C79,36,77.77,34.75,76.74,34c-1.3-.94-2.66-1.84-3.88-2.88s-3,.73-1.77,1.77Z" transform="translate(-17.21 -3.75)"/><path class="cls-1" d="M31.48,44.3a3.73,3.73,0,0,0,2-.8c.57-.39,1.18-.75,1.76-1.13s1.19-.68,1.74-1.07a2.94,2.94,0,0,0,1-1c.08-.12.13-.25.2-.37s.08-.19.1-.19l-.09.12a.49.49,0,0,1,.13-.12,1.26,1.26,0,0,0,0-1.77,1.28,1.28,0,0,0-1.77,0,2.6,2.6,0,0,0-.61.85l-.09.19c-.08.15,0,0,0,0s-.12.12-.16.16.17-.1,0,0c-.55.32-1.11.65-1.65,1s-1.11.69-1.65,1.05l-.65.44-.2.11-.08,0c-.08,0,0,0,.11,0a1,1,0,0,0-.16,0c-.24.09.28,0,0,0a1.25,1.25,0,0,0,0,2.5Z" transform="translate(-17.21 -3.75)"/><path class="cls-1" d="M30.43,46c.35.43.79.75,1.17,1.15a14.67,14.67,0,0,1,.95,1.25A12.72,12.72,0,0,1,34,51a8.66,8.66,0,0,1,0,6.24,5.14,5.14,0,0,0-.41,1s0,0-.07.12a.49.49,0,0,1,.5-.24c0,.09-.4-.21-.35-.17A20.58,20.58,0,0,1,32,56.26a5.05,5.05,0,0,0-2.53-1.12c-.53-.1-1-.26-1.54-.4a9,9,0,0,0-1.47-.12l.64.17L27,54.72l.61,1.08c0-.32.6-1,.87-1.27.55-.54,1.21-1,1.8-1.47,1.22-1-.55-2.81-1.77-1.77-1.37,1.17-3.37,2.47-3.4,4.51a1.25,1.25,0,0,0,.62,1.08,6.31,6.31,0,0,0,1.58.27c.58.14,1.14.32,1.73.44a2.68,2.68,0,0,1,1.23.44,9.13,9.13,0,0,1,1,1.13c.75.84,1.85,1.72,3.06,1.45s1.43-1.17,1.81-2.11a11.51,11.51,0,0,0,.33-7.93,12.59,12.59,0,0,0-1.71-3.32c-.41-.55-.8-1.14-1.25-1.66s-.93-.84-1.33-1.34a1.26,1.26,0,0,0-1.77,0,1.29,1.29,0,0,0,0,1.77Z" transform="translate(-17.21 -3.75)"/><path class="cls-1" d="M66.13,38c1.63,1.6,2.81,3.71,5,4.62a2.11,2.11,0,0,0,.54.22c.24.19.29.11.15-.23,0-.37,0-.43-.16-.19-.37.16-.71,1.07-.88,1.39a34.18,34.18,0,0,0-1.55,3.56,17.77,17.77,0,0,0-1,7.28c.14,2.32,2.28,3.94,4,5.17a1.26,1.26,0,0,0,1.26,0c.59-.33.82-.91,1.34-1.3a8.12,8.12,0,0,1,1.24-.65,10.37,10.37,0,0,1,1.11-.65c.92-.37,2.17.4,3.22,0a1.28,1.28,0,0,0,.87-1.54c-.64-2.16-2.8-3.5-4.33-5-1.14-1.13-2.91.64-1.77,1.77.72.71,1.48,1.37,2.21,2a4.44,4.44,0,0,1,1.48,1.85l.88-1.54a2.7,2.7,0,0,1-1.41-.06,2.91,2.91,0,0,0-2.11.17c-.8.42-1.64.88-2.41,1.34a4.32,4.32,0,0,0-.91.68c-.23.22-.4.61-.67.76h1.26a9.57,9.57,0,0,1-2.44-2.22c-.62-.86-.33-2.06-.31-3.07a16.53,16.53,0,0,1,2.12-7.3c.42-.79,1.32-1.63,1.35-2.57a2.15,2.15,0,0,0-1.5-1.88,13.53,13.53,0,0,1-1.35-.6,6.17,6.17,0,0,1-1.26-1.24c-.75-.86-1.46-1.74-2.28-2.54-1.15-1.13-2.92.64-1.77,1.76Z" transform="translate(-17.21 -3.75)"/><path class="cls-1" d="M36.63,37.61a13,13,0,0,1-.48,1.83c-.16.55-.24,1.11-.37,1.67s-.4,1.16-.5,1.78-.13,1.17-.22,1.75a15.74,15.74,0,0,0-.32,3.93c.06.61.21,1.2.28,1.81s.23,1.3.37,2c.35,1.57,2.76.91,2.41-.66a21.44,21.44,0,0,1-.59-3.48,20.92,20.92,0,0,1,.38-3.7c.3-2.34,1.25-4.56,1.54-6.9a1.26,1.26,0,0,0-1.25-1.25,1.28,1.28,0,0,0-1.25,1.25Z" transform="translate(-17.21 -3.75)"/><path class="cls-1" d="M63.84,38.57c0,2.47-.27,5,.57,7.37.19.54.46,1.05.69,1.58a10.72,10.72,0,0,0,.69,1.6,11.49,11.49,0,0,1,.82,1.45c.24.59.4,1.2.64,1.78a1.29,1.29,0,0,0,1.54.87,1.26,1.26,0,0,0,.87-1.53,22.28,22.28,0,0,0-1.41-3.34,18.5,18.5,0,0,1-1.36-2.88c-.85-2.22-.56-4.58-.55-6.9a1.25,1.25,0,0,0-2.5,0Z" transform="translate(-17.21 -3.75)"/><path class="cls-1" d="M31.36,59.55a9.24,9.24,0,0,0-1,2.5,5,5,0,0,0,.16,2.72A8.82,8.82,0,0,0,33.82,69a47.74,47.74,0,0,0,5.54,3.43,29.45,29.45,0,0,0,6.22,2.12A28,28,0,0,0,59,74.7a47.38,47.38,0,0,0,6.46-2,35.27,35.27,0,0,0,6.15-3.36c1.72-1.09,3.21-2.66,3.28-4.81a8.24,8.24,0,0,0-2.48-5.69c-1.11-1.17-2.87.6-1.77,1.77s2.43,3.5,1.28,5.19a8.39,8.39,0,0,1-2.76,2.13c-.92.58-1.84,1.16-2.81,1.66a36.86,36.86,0,0,1-6.49,2.32,24.93,24.93,0,0,1-7,1A26.47,26.47,0,0,1,39.48,69.6a33.86,33.86,0,0,1-5.28-3.43,4.94,4.94,0,0,1-1.41-2.39c-.28-1.16.28-2,.72-3,.66-1.45-1.49-2.72-2.15-1.26Z" transform="translate(-17.21 -3.75)"/><path class="cls-1" d="M34.71,70.43a2.64,2.64,0,0,1-.4.71c-.21.34-.41.7-.6,1a16.75,16.75,0,0,0-1.22,2.61,14.76,14.76,0,0,0-.83,5.43A8.86,8.86,0,0,0,33.3,85a11.64,11.64,0,0,0,4,3.32,1.25,1.25,0,0,0,1.26-2.15,8.93,8.93,0,0,1-3.28-2.78,6.94,6.94,0,0,1-1.06-4.33,11.86,11.86,0,0,1,1.13-4.53c.65-1.33,1.74-2.6,1.91-4.09A1.26,1.26,0,0,0,36,69.18a1.27,1.27,0,0,0-1.25,1.25Z" transform="translate(-17.21 -3.75)"/><path class="cls-1" d="M66.61,71.72a3.62,3.62,0,0,0,1.07,1.73,5.84,5.84,0,0,1,.93,1.63,11.42,11.42,0,0,1,.9,4.51c0,1.44-.8,2.38-1.65,3.46a12.48,12.48,0,0,1-1.18,1.51c-.25.23-.85,1.11-1.12,1.15a1.25,1.25,0,0,0-.87,1.54,1.27,1.27,0,0,0,1.53.87A3.22,3.22,0,0,0,68,86.79c.25-.28.55-.5.8-.78s.51-.72.77-1.07c1-1.38,2.16-2.54,2.4-4.3a12.39,12.39,0,0,0-.59-5.4,16.83,16.83,0,0,0-1.08-2.46,6.23,6.23,0,0,0-.75-1,1.49,1.49,0,0,1-.5-.7c-.3-1.58-2.71-.91-2.41.66Z" transform="translate(-17.21 -3.75)"/><path class="cls-1" d="M42.6,73.3a5.83,5.83,0,0,1-.84,1.27c-.45.62-.95,1.2-1.39,1.82a6.61,6.61,0,0,0-1.2,3.76A7.81,7.81,0,0,0,40,83.77a6.84,6.84,0,0,0,2.42,2.72,11.64,11.64,0,0,1,1.65.73,2.77,2.77,0,0,1,.75,1.67A11.2,11.2,0,0,1,45,91.2,12.06,12.06,0,0,0,44.91,93s0,.23-.06.23.45-.16.23-.31-.56,0-.71,0a2.5,2.5,0,0,0-.78.06c-.34.18.34.3.25.35a2.25,2.25,0,0,0-.06-.49,2,2,0,0,0-2.63-1.45c-.64.2-1.22.58-1.85.81a10.56,10.56,0,0,1-2.57.44c-.44,0-.88.1-1.31.17-.22,0-1,0-1.17.23l-.14,0,.27.35c-.09,0-.2-.31-.28-.38a5.64,5.64,0,0,0-.7-.46L34,93.61l0-.08a2.33,2.33,0,0,1,.26-.38,5.93,5.93,0,0,1,.63-.69c.48-.48,1-.91,1.52-1.37a14.81,14.81,0,0,0,3-3.06c.86-1.37-1.31-2.63-2.16-1.27-1,1.56-2.67,2.55-4,3.82-.88.86-3,3.24-1,4.2.41.2.06,0,0-.14.1.11.17.27.28.37a2,2,0,0,0,1.21.52,14.45,14.45,0,0,0,2.82-.42,19.21,19.21,0,0,0,3.12-.44,12.5,12.5,0,0,0,1.2-.48,5,5,0,0,0,1.07-.48l-.56-.26,0,.25a1.49,1.49,0,0,0,.15.62,1.76,1.76,0,0,0,.71.84,4,4,0,0,0,2.23.21A2.85,2.85,0,0,0,46.57,95a2.85,2.85,0,0,0,.86-2A13.47,13.47,0,0,0,47,87.26a4.37,4.37,0,0,0-1.24-1.89c-.71-.61-1.76-.68-2.42-1.31-1.25-1.17-2.15-3.36-1.46-5,.77-1.83,2.6-3.19,3.17-5.08a1.25,1.25,0,0,0-2.41-.66Z" transform="translate(-17.21 -3.75)"/><path class="cls-1" d="M57,74.76c.2,1.23.91,2.21,1,3.47a24.6,24.6,0,0,1,.09,3.84A6.54,6.54,0,0,1,56.88,85c-.48.82-1.47,1.33-1.77,2.25A13.21,13.21,0,0,0,55,90.58,25.06,25.06,0,0,0,54.66,94a2,2,0,0,0,1.59,1.81,7.16,7.16,0,0,0,2.61,0c1.21-.24,1.19-1.22,1.62-2.12a2.74,2.74,0,0,0,.21-.42l.06-.11c-.69,0-.82,0-.42.25a8.94,8.94,0,0,0,1.53,1,4.67,4.67,0,0,0,2.81,1c1.4,0,2.78.12,4.18.18s5.12.72,4.36-2c-.38-1.32-2.09-2.77-3.1-3.59-.53-.42-1.08-.82-1.63-1.23a19,19,0,0,1-1.64-1.13c-.38-.33-.63-.77-1-1.09a4.67,4.67,0,0,0-1.42-.81c-2.08-.8-4.35-.28-6.51-.22a1.25,1.25,0,0,0,0,2.5,27.3,27.3,0,0,1,4.78-.16,3,3,0,0,1,1.85.89,11.9,11.9,0,0,0,2.15,1.78,20.5,20.5,0,0,1,3.8,3.34s.3.39.32.39l.32-.51c.45-.42.47-.59,0-.51a4.53,4.53,0,0,0-.53,0c-1.23-.12-2.46-.18-3.69-.28a11.45,11.45,0,0,1-3-.12,7.08,7.08,0,0,1-1.11-.73c-.41-.27-.83-.52-1.24-.78-1.68-1.07-2.8.11-3.48,1.64a2.83,2.83,0,0,0-.25.65c-.07.78,0-.56.43-.2-.12-.11-.78,0-.92,0s-.37,0-.46,0H56.8c.29.46.4.48.35.06a4.29,4.29,0,0,0,.24-1.4,21.16,21.16,0,0,0,.14-3.18c0-.2-.06-.76-.06-.76.17-.33.7-.61,1-.89A9,9,0,0,0,60.6,81a34.42,34.42,0,0,0-.16-3.52c-.15-1.23-.83-2.23-1-3.42-.25-1.59-2.66-.91-2.41.66Z" transform="translate(-17.21 -3.75)"/><path class="cls-1" d="M38.68,88.49H43A1.25,1.25,0,1,0,43,86H38.68a1.26,1.26,0,0,0-1.25,1.25,1.28,1.28,0,0,0,1.25,1.25Z" transform="translate(-17.21 -3.75)"/><path class="cls-1" d="M42.16,54.89a10.81,10.81,0,0,1,1.8-2c.76-.75,1.48-1.52,2.27-2.24s1.5-1.34,2.29-2c.6-.49,1-1.33,1.68-1.71l-1.52-.2A8.66,8.66,0,0,0,50.74,48a19.11,19.11,0,0,1,2.4,1.48,21.87,21.87,0,0,1,3.91,3.12c.61.68,1.34,1.2,2,1.85l.5.54c.23.36.34.25.33-.32.13.14-1.14.09-1.2.07a12.77,12.77,0,0,1-2.57-1.06,10.18,10.18,0,0,1-1.89-1.29c-.54-.41-1-.8-1.45-1.25a2,2,0,0,0-1.92-.64c-.59.19-.85.69-1.26,1.1A16.76,16.76,0,0,1,47.48,53c-1.32.91-2.42,2.34-4,2.86-.58.19-1.65.52-1.93-.17s.26-1.28.7-1.69c1.19-1.09-.58-2.86-1.76-1.77a4.12,4.12,0,0,0-1.35,4.13,3.12,3.12,0,0,0,3.59,2.19,7.75,7.75,0,0,0,4.35-2A20.58,20.58,0,0,1,49.05,55a14.78,14.78,0,0,0,2.29-1.62,2.24,2.24,0,0,0,.43-.51c.16-.37-.77-.19-.7.14,0,.07.21.23.26.28a19.27,19.27,0,0,0,1.77,1.48A13.71,13.71,0,0,0,57.66,57c1.49.5,3.66.4,4.47-1.22s-1.2-3.11-2.22-4c-.72-.6-1.28-1.35-2-2s-1.57-1.18-2.37-1.76-1.71-1.24-2.62-1.78A14.58,14.58,0,0,1,50.45,45a1.3,1.3,0,0,0-1.52-.19c-.81.47-1.24,1.3-1.94,1.9s-1.71,1.42-2.53,2.18A24.58,24.58,0,0,0,40,53.63c-.84,1.37,1.32,2.63,2.16,1.26Z" transform="translate(-17.21 -3.75)"/><path class="cls-1" d="M47,54.74c0,2.36,0,4.72,0,7.08a12.6,12.6,0,0,0,.09,1.74c.07.48,0,.94.07,1.42a10.92,10.92,0,0,0,.32,1.61,6.89,6.89,0,0,0,.29,1.19c.77,1.87,3.41,1.26,4.88.7a2.88,2.88,0,0,0,2-2.17,28.26,28.26,0,0,0,.46-3.43c.11-1.27.12-2.54.14-3.82s.15-2.77.16-4.16a1.25,1.25,0,0,0-2.5,0c0,1.26-.11,2.52-.15,3.79s0,2.46-.11,3.7c-.05.66-.11,1.31-.2,2a5.87,5.87,0,0,1-.25,1.46c-.19.46-1.31.62-1.84.69a5.83,5.83,0,0,0-.59,0c-.53.09.62-.24.29.29.09-.15-.22-1.06-.27-1.24a7.65,7.65,0,0,1-.14-1.51c0-.54-.16-1.07-.17-1.62,0-2.57,0-5.14,0-7.71a1.25,1.25,0,0,0-2.5,0Z" transform="translate(-17.21 -3.75)"/><path class="cls-1" d="M42.33,55.54s-.1.38-.13.34a1.53,1.53,0,0,1,.18-.18l.58-.47c.37-.32.7-.68,1.08-1a16.16,16.16,0,0,0,2.06-1.82,17.76,17.76,0,0,1,2-2.12c.21-.18.4-.38.61-.57l.17-.14c.12-.11-.2.14,0,0s.27-.1,0,0c.18-.05-.37,0-.41,0l-.92-1.2c0-.06.09-.37,0-.26s.18-.18,0,0l-.36.33c-.27.23-.55.45-.81.69-.69.6-1.34,1.24-2,1.82-.33.28-.54.42-.92.7s-.81.61-1.21.93a22.73,22.73,0,0,0-2.09,1.84,1.26,1.26,0,0,0,1.22,2.09,3.34,3.34,0,0,0,1.79-1.7c.07-.13-.19.18,0,0l.15-.15c.17-.17.34-.32.51-.47.34-.3.65-.55.94-.76A19.82,19.82,0,0,1,47,52c.33-.18.66-.36,1-.56.12-.08.25-.15.38-.22s.13,0,0,0c.27,0-.28,0-.29,0l-.55-2.08a4.17,4.17,0,0,1-.36.37l-.19.17c.08-.06.06,0-.06,0s-.49.34-.74.52c-.61.42-1.19.88-1.78,1.33s-1.09.84-1.66,1.21a5.29,5.29,0,0,0-1.57,1.41A1.26,1.26,0,0,0,42.55,56a2.88,2.88,0,0,0,.92-.52,1.73,1.73,0,0,0,.24-.23L43.9,55c0,.1,0,.1.09,0a5.67,5.67,0,0,0,.59-.51l.53-.42c.37-.28.74-.56,1.13-.82a5.14,5.14,0,0,1,.64-.38s.31-.14.18-.09.24-.06.28-.07L45.93,50.8s-.17.27-.09.15-.1.12-.12.14-.28.28-.43.41-.31.24-.13.11l-.2.14-.55.37a15.88,15.88,0,0,0-2.29,1.42,1.24,1.24,0,0,0,0,1.76,1.27,1.27,0,0,0,1.76,0c.26-.22-.14.07.16-.11l.27-.15.63-.32a11,11,0,0,0,1-.64,6.81,6.81,0,0,0,2.12-2,1.26,1.26,0,0,0-1.41-1.83,7.42,7.42,0,0,0-2.62,1.45q-.72.54-1.41,1.11a6.93,6.93,0,0,0-.64.56l-.2.26c.07-.1.08-.11,0,0s0,.06,0,0c-.12.06-.12.07,0,0l1.42,1.84c-.15.2.13-.13.17-.17s.12-.1,0,0l.14-.11.72-.47c.56-.39,1.1-.81,1.64-1.23s1.08-.83,1.63-1.21a8.25,8.25,0,0,0,1.65-1.35,1.27,1.27,0,0,0-.55-2.09,3.3,3.3,0,0,0-2.33.72c-.85.5-1.71.95-2.51,1.53a22.85,22.85,0,0,0-2.29,1.85,5.78,5.78,0,0,0-.8,1c0,.07-.1.14-.14.21s.09-.06,0,0a1.29,1.29,0,0,0-.16.17l.11-.09c-.12.07-.1.07.07,0l1.21,2.08a24.78,24.78,0,0,1,2.25-2c.66-.51,1.58-1.14,2.29-1.76s1.4-1.31,2.14-1.92A3.34,3.34,0,0,0,50,48.38a1.26,1.26,0,0,0-.92-1.21c-1-.34-1.86.53-2.49,1.13a25.58,25.58,0,0,0-2.19,2.23A22,22,0,0,1,42,52.67c-.42.39-.83.78-1.27,1.14a2.24,2.24,0,0,0-.93,1.73,1.25,1.25,0,1,0,2.5,0Z" transform="translate(-17.21 -3.75)"/><path class="cls-1" d="M42.47,56.91c2.79.07,4.85-2.44,7.1-3.68a3.76,3.76,0,0,0,2.09-2.74,11.2,11.2,0,0,0-.25-1.71,5.49,5.49,0,0,0-.3-1.93c-.51-1.08-1.93-.6-2.29.3a2.32,2.32,0,0,0-.1.7c0,.33-.25.78.12.33l1.22-.33c.44.4.57.47.39.23a2.9,2.9,0,0,1-.19-.29c.07.25.1-.15.18-.3a4.87,4.87,0,0,1,.47-.65c0-.05.37-.43.15-.29l-1,.12c1.73.32,2.92,1.82,4.09,3,.72.74,1.51,1.43,2.29,2.11.57.49,1.44.9,1.43,1.72a1.25,1.25,0,0,0,2.5,0c0-2.1-1.71-3.09-3.12-4.35s-2.67-3-4.36-4a8,8,0,0,0-2.17-.93c-1.07-.22-1.55.68-2.09,1.4a3.48,3.48,0,0,0-.85,2.71,2.61,2.61,0,0,0,1.57,1.9,1.25,1.25,0,0,0,1.22-.33,2.07,2.07,0,0,0,.52-1.12c0-.27.06-.89.1-1l-2.28.3.07.15-.17-.63a18.47,18.47,0,0,0,.3,2.78c.07-.27.07-.32,0-.13a2.19,2.19,0,0,1-.16.3,1.54,1.54,0,0,1-.29.28c-.37.27-.83.45-1.22.69-.85.53-1.52,1.3-2.38,1.8a5.65,5.65,0,0,1-2.62,1.06,1.25,1.25,0,0,0,0,2.5Z" transform="translate(-17.21 -3.75)"/><path class="cls-1" d="M55.32,55.94A6.33,6.33,0,0,1,58,57.47a3.54,3.54,0,0,0,3.22.47,2.2,2.2,0,0,0,1.61-2.19,5,5,0,0,0-1-2.89c-1.16-1.93-3.19-3-4.84-4.46-.83-.72-1.51-1.57-2.36-2.27a6.62,6.62,0,0,0-3.3-1.39,1.9,1.9,0,0,0-2.24,1.08A10.19,10.19,0,0,0,48.77,49c0,2.63,0,5.25,0,7.88,0,1.24,0,2.48,0,3.72,0,1.41-.14,2.83-.07,4.24,0,1,.11,2.09,1.21,2.45a2.88,2.88,0,0,0,2.88-.92c.86-1,.64-2.7.72-4s0-2.79,0-4.18a22.08,22.08,0,0,0-.24-4.45c-.15-.74-.3-1.49-.44-2.23-.08-.41-.53-1.33-.38-1.7l-.58.75c-1.1-.53-1.41-.55-.93,0,.13.17.27.34.42.5a12.3,12.3,0,0,0,1,.95c.63.56,1.31,1.07,2,1.61,1.31,1.08,2.41,2.41,4.18,2.62.85.1,1.37-.88,1.21-1.58-.34-1.42-1.87-1.95-2.87-2.81a34,34,0,0,1-3.16-3.07c-1.07-1.21-2.83.56-1.77,1.76a37.65,37.65,0,0,0,2.71,2.65A11.75,11.75,0,0,0,56,54.42c.3.21,1.15.55,1.24.93l1.2-1.58c-.49-.06-1.06-.68-1.4-1s-.83-.76-1.27-1.11a19.87,19.87,0,0,1-2.66-2.35c-.59-.68-1.16-1.47-2.18-1.06s-1.12,1.67-.85,2.68c.3,1.16.53,2.35.76,3.53a20.94,20.94,0,0,1,.15,4c0,1.22.07,2.45,0,3.67,0,.59-.08,1.19-.11,1.79s.09,1.07-.69,1l.88.37c.15.32.18.3.1-.07,0-.22,0-.45,0-.68,0-.39,0-.77,0-1.16,0-.9,0-1.79,0-2.69,0-1.6,0-3.2,0-4.8s0-3.28,0-4.91c0-.88,0-1.76,0-2.63a4,4,0,0,1,.2-1.62l-.75.57a3.58,3.58,0,0,1,2.13.63,22.34,22.34,0,0,1,1.9,1.87c1.22,1.1,2.51,2.1,3.82,3.09a4.88,4.88,0,0,1,1.34,1.71c.16.3.28.72.44,1-.06.28,0,.29.08,0a3.46,3.46,0,0,1-.56,0c-.48,0-1-.73-1.66-1.11A7.07,7.07,0,0,0,56,53.53c-1.57-.31-2.24,2.1-.66,2.41Z" transform="translate(-17.21 -3.75)"/><path class="cls-1" d="M34.1,94.42a3.94,3.94,0,0,0,2-.67,7.48,7.48,0,0,0,1.85-1.34c.43-.47.79-1,1.26-1.45,0,0,.73-.51.48-.38.17-.09.38-.13.55-.22s.37-.15.11-.08l-1.41-.58.07.1-.18-.63v.12l.17-.64a11.31,11.31,0,0,1-1.27,1.86,7.49,7.49,0,0,1-.51.61c-.11.11-.2.23-.31.34s-.38.33-.21.23L38.5,93.1l0-.1-.32.55c-.21.2.2-.06.25-.08l.43-.21.92-.44c.59-.28,1.19-.6,1.8-.85a4.18,4.18,0,0,1,.77-.21c.07,0,.38,0,.17-.06a1.8,1.8,0,0,1,.41.14c-.07,0,.25.2.15.09s0,.07,0,.16-.08,0,.09-.24l2.28.3a6.91,6.91,0,0,1,0-1.1c0-.4,0-.8,0-1.2a4.06,4.06,0,0,0-.24-2.24,1.56,1.56,0,0,0-1.27-.72,2.74,2.74,0,0,0-1.27.42,4.16,4.16,0,0,1-2.09.36,1.25,1.25,0,0,0,0,2.5,7.37,7.37,0,0,0,2-.16,5.74,5.74,0,0,0,.9-.34l.41-.2.17-.08c.25-.12.12-.12-.38,0l-.55-.32c-.15-.54-.21-.65-.19-.36v.13c0,.14,0,.27,0,.41,0,.41,0,.81,0,1.22a10.34,10.34,0,0,0,0,2.36,1.26,1.26,0,0,0,2.28.29,2.57,2.57,0,0,0-.51-2.93,3.28,3.28,0,0,0-1.35-.78,3.34,3.34,0,0,0-1.72-.07,13.15,13.15,0,0,0-3,1.21c-.48.22-.95.46-1.42.69s-1.18.53-1.28,1.21a1.29,1.29,0,0,0,.45,1.31,1.26,1.26,0,0,0,1.39.1,7.91,7.91,0,0,0,2-2.21c.64-.87,1.85-2,1.13-3.2a1.26,1.26,0,0,0-1.41-.57,1.83,1.83,0,0,0-.5.21c-.16.1,0,0-.1.07a4.34,4.34,0,0,0-1,.53,8.07,8.07,0,0,0-1.35,1.26,6.22,6.22,0,0,1-1.26,1.25c-.27.18-.55.34-.84.5a3.06,3.06,0,0,1-.51.26c.08,0,.17,0,0,0a1.26,1.26,0,0,0-1.25,1.25,1.27,1.27,0,0,0,1.25,1.25Z" transform="translate(-17.21 -3.75)"/><path class="cls-1" d="M58.62,93.48V89.8c0-.2,0-.4,0-.6s0-.19,0-.29,0-.18,0,0l-.32.55,0,0-.55.32c-.49,0-.58,0-.28,0l.48.07.6,0c.33,0,.64.06,1,.11.8.13,1.6.23,2.39.36s1.54.31,2.31.45a3.3,3.3,0,0,0,.63.09c.41.07.21-.11-.62-.53,0,.09.07.19.1.29s.14.38.2.58a1.87,1.87,0,0,0,.07.22c0,.16,0,.17,0,0a1.25,1.25,0,0,0,2.5,0,5.07,5.07,0,0,0-.62-2.18c-.46-.89-1.31-.84-2-1-1.44-.29-2.88-.51-4.32-.74-.69-.12-1.53-.15-2.12-.25a1.55,1.55,0,0,0-1.45.34,1.71,1.71,0,0,0-.46,1.28c0,1.52,0,3,0,4.57a1.25,1.25,0,0,0,2.5,0Z" transform="translate(-17.21 -3.75)"/><path class="cls-1" d="M69.78,92.15c-.19,0-.3-.22-.47-.39a7.38,7.38,0,0,0-.81-.67c-.57-.4-1.06-.88-1.62-1.29s-1.25-.9-1.84-1.4A18,18,0,0,0,63.3,87a1.82,1.82,0,0,0-1.19-.35,1.34,1.34,0,0,0-.56.16s-.44.31-.44.39c.31-.18.37-.23.17-.14l-.32.12-.52.2a8.35,8.35,0,0,0-1.07.45,5.35,5.35,0,0,0-1.53,1.61,4.78,4.78,0,0,0-1.21,2.25c-.11,1.12,1.41,1.6,2.13.89A4.67,4.67,0,0,1,60,91.66a4.35,4.35,0,0,1,.58-.27,3,3,0,0,1,.32-.12c.14-.06.26,0,.06,0l-.63-.17s-.26-.19-.23-.21a3.16,3.16,0,0,0,.21.46,3.07,3.07,0,0,0,.58.76,4,4,0,0,0,1.81.76,13.66,13.66,0,0,1,1.71.37,9,9,0,0,0,1.67.61A1.29,1.29,0,0,0,67.57,93a1.26,1.26,0,0,0-.87-1.54,6.62,6.62,0,0,1-1.41-.51,7,7,0,0,0-1.36-.35,4.29,4.29,0,0,1-1.43-.35c.18.12-.06-.09-.11-.19a4.25,4.25,0,0,0-.23-.49c-.65-1.06-1.7-.8-2.65-.4A7.43,7.43,0,0,0,57,90.82l2.14.88v-.16l-.17.63c.28-.44.6-.86.9-1.29.13-.18.27-.34.4-.51a3,3,0,0,0,.32-.39q-.21.18,0,.06a10.73,10.73,0,0,0,1.28-.52,3.45,3.45,0,0,0,1.22-.73l-.55.32.09,0h-.66a8.17,8.17,0,0,1,1.49,1.2c.7.6,1.45,1.11,2.19,1.67a9.85,9.85,0,0,1,.78.67c.29.25.63.44.92.68.58.49,1,1.1,1.79,1.25a1.29,1.29,0,0,0,1.54-.88,1.25,1.25,0,0,0-.87-1.53Z" transform="translate(-17.21 -3.75)"/><path class="cls-1" d="M70.27,53.85c.86-.18,1.67-.56,2.52-.76A4.56,4.56,0,0,1,74,53h.89c.25,0,.2.09-.26-.14L74,52.08a1.64,1.64,0,0,0,.89,1,8.22,8.22,0,0,1,.66.52l.9.73.48.4.33.26a1.22,1.22,0,0,1-.17-.15l-.17-.63,0-.18.32-.55c.41-.18.5-.24.29-.19h.08l-.62.08c-.34.06-.67.13-1,.22a9.28,9.28,0,0,0-2,.75c-.55.29-1,.67-1.57,1a4.37,4.37,0,0,0-.86.62c-.07.07-.13.16-.2.24l-.14.18c-.17.15-.09.12.23-.1l1.22.32c.08.14.09.15,0,0l-.09-.19c-.14-.29.09.23-.07-.14s-.32-.72-.49-1.08A.59.59,0,0,1,72,55c0-.05-.1-.49-.08-.31,0-.13,0-.26,0-.38,0-.33,0-.1-.06.06l-.45.44c-.46.1-.47.12,0,.05l.27-.07.39-.13a8.47,8.47,0,0,1,1-.32,8.74,8.74,0,0,1,.89-.17h.23c.16,0,.15,0,0,0s-.33-.26-.3-.57a.55.55,0,0,1-.12-.71c.12-.15.14-.18,0-.08s.21-.12-.05,0-.29.17-.43.26c-.3.19-.61.37-.92.53l-.43.22c-.13.06-.14.07,0,0a.54.54,0,0,1-.21,0,1.25,1.25,0,0,0-.87,1.54,1.27,1.27,0,0,0,1.53.87,5.59,5.59,0,0,0,1.72-.79,11.94,11.94,0,0,0,1.07-.67,1.94,1.94,0,0,0,1-1.6,1.76,1.76,0,0,0-1.74-1.58,9.27,9.27,0,0,0-3.51.73s.31,0-.07,0a1.84,1.84,0,0,0-.25,0,1.47,1.47,0,0,0-.74.5,1.86,1.86,0,0,0-.37,1.12,4.36,4.36,0,0,0,.27,1.83c.15.36.32.7.48,1,.07.15,0,0,0,0a1.34,1.34,0,0,0,.07.18c.07.19.16.37.25.56a1.94,1.94,0,0,0,.59.77,1.35,1.35,0,0,0,1.55,0,2.51,2.51,0,0,0,.66-.64s.18-.19.14-.16l.31-.19c.51-.3,1-.66,1.51-.95A7.22,7.22,0,0,1,76.86,56c.59-.16,1-.12,1.55-.3A1.49,1.49,0,0,0,79,53.27l-.15-.14s-.38-.3-.21-.16-.06-.06-.07-.07l-.18-.15-.79-.64c-.28-.23-.55-.46-.84-.68s-.35-.29-.53-.41l-.14-.08c-.21-.13-.11,0,.31.47l-.13-.3c-.46-.79-1.41-.64-2.18-.64a8.76,8.76,0,0,0-2.44.33c-.7.19-1.36.49-2.07.64a1.25,1.25,0,1,0,.66,2.41Z" transform="translate(-17.21 -3.75)"/><path class="cls-1" d="M29.72,53h2.15s.34,0,.16,0,.15,0,.16,0l.45.05a5.62,5.62,0,0,0,.58,0h.59l.23,0H34c.2.06.08,0-.36-.21l-.32-.55c-.12-.4.06-.73,0-.4,0,.11-.07.22-.1.33s-.09.46-.13.7c-.09.61-.2,1.22-.24,1.84s-.06,1.07-.11,1.6c0,.26,0,.5-.05.76,0,.08,0,.34,0,.11l0,.17c-.06.21,0,.09.21-.34l.55-.32-.06,0,1.41.57c-.13-.18-.22-.39-.34-.58a5.73,5.73,0,0,0-.57-.73,5.09,5.09,0,0,0-1.44-1,5.5,5.5,0,0,0-.91-.34c-.22-.07-.43-.18-.65-.23s-.45-.07-.67-.1-.35,0-.12,0c-.38,0-.75-.09-1.13-.11l-.18,0c.13,0,.12,0,0,0s-.16,0,.23.16c.32.38.36.72.13,1s-.14.23,0,.12c-.14.1-.16.12-.05,0l.28-.19,1.4-1a2.26,2.26,0,0,1,.28-.21.82.82,0,0,1-.56.07l.18.05c.27.08.54.16.82.22a4.3,4.3,0,0,0,.69.16c.09,0,.07,0-.08,0a1,1,0,0,1-.21-.21c-.07-.17-.08-.19,0-.06a1,1,0,0,1,0-.38l.32-.55c.71-.18.93-.27.65-.28-.09,0-.05,0,.1,0a1.56,1.56,0,0,1-.34-.09l-.6-.19a4.36,4.36,0,0,0-1.37-.33,1.25,1.25,0,0,0,0,2.5c-.24,0-.16,0-.06,0l.18.06.42.13c.33.11.65.23,1,.31a2.32,2.32,0,0,0,1.17,0,1.44,1.44,0,0,0,1-1.4,2,2,0,0,0-1.53-1.94c-.27-.07-.55-.11-.82-.18a6.15,6.15,0,0,0-1.25-.3,3.48,3.48,0,0,0-2,1,6,6,0,0,0-1.69,1.37,1.67,1.67,0,0,0,.93,2.46,4.2,4.2,0,0,0,1.22.19h.24s.25,0,0,0l.73.09c.19,0-.18,0,0,0l.24.07.47.17.2.06s.34.14.11,0l.45.24.18.13c.11.07-.1-.11.06,0s.25.26.37.38c-.16-.16,0-.07,0,0s.11.17.16.25a2.91,2.91,0,0,0,.25.42,1.3,1.3,0,0,0,1.41.57c.86-.27,1.08-1,1.14-1.83,0-.54.09-1.09.13-1.64,0-.29,0-.59.05-.88,0-.13,0-.25,0-.38,0,.23,0-.23,0-.27a8.3,8.3,0,0,1,.29-1.55,1.47,1.47,0,0,0-.58-1.81,3.84,3.84,0,0,0-2-.28h-.35c-.15,0-.15,0,0,0l-.21,0a6.56,6.56,0,0,0-1,0H29.72a1.25,1.25,0,0,0,0,2.5Z" transform="translate(-17.21 -3.75)"/><path class="cls-1" d="M36.74,10.27A4.18,4.18,0,0,0,37.33,12c.28.48.48,1,.72,1.5a4.52,4.52,0,0,0,.34.7c.07.12-.1-.26,0-.11a.69.69,0,0,1,0,.13l.12.29a3.05,3.05,0,0,0,1.1,1.52,1.21,1.21,0,0,0,1.26,0,1.75,1.75,0,0,0,.75-1.41s0-.29,0-.32-.06.35,0,0c0-.08,0-.16,0-.25.17-.79.24-1.59.37-2.39l0,.12a2,2,0,0,0,0-.26,2,2,0,0,0,0-.35,1.89,1.89,0,0,0-.07-.71,1.92,1.92,0,0,0-.9-1.13l-.34-.16-.06,0c-.1-.07-.1-.07,0,0s.08.06,0,0l.1.13c.13.21.07.15,0,0s0-.09,0-.13a1.69,1.69,0,0,0-.49-.81,1.25,1.25,0,0,0-1.77,1.77s-.18-.27-.15-.3a.55.55,0,0,0,0,.17,1.57,1.57,0,0,0,.19.51,2.1,2.1,0,0,0,.84.83l.28.14.12.05c.14.07-.07-.05-.1-.08a.68.68,0,0,1-.18-.29c-.06-.27,0-.11,0,0s0,.25,0,.07,0-.1,0,0l-.06.38c0,.3-.07.6-.11.9a1.49,1.49,0,0,1,0,.21c0,.2.06-.29,0,0,0,.13-.05.27-.08.4a7.25,7.25,0,0,0-.21,1.13c0,.07,0,.13,0,.2v.16c0,.07,0,0,0-.07a.8.8,0,0,1,.48-.68h1.26c.16.14.2.17.1.08l.07.09c0-.05-.08-.14-.11-.18l-.06-.14c-.06-.12,0-.09,0,.08a.9.9,0,0,0-.08-.21c-.18-.46-.4-.9-.62-1.35s-.38-.88-.6-1.31l-.3-.53c-.14-.28,0,.19,0-.05,0,0,0-.11-.05-.17,0,.19,0,.21,0,.07a1.25,1.25,0,0,0-2.5,0Z" transform="translate(-17.21 -3.75)"/><path class="cls-1" d="M55,12.51c-.35,0,0,0,.07,0l-.08,0,.17.09.26.16c.23.16-.11-.11.08.07.34.31.67.64,1,1s.66.74,1,1.13a4.15,4.15,0,0,0,.27.32l.08.08c.11.1.11.1,0,0-.18-.38,0,.09.1.22a1.73,1.73,0,0,0,.56.55,1.26,1.26,0,0,0,1.71-.44,3.62,3.62,0,0,0,.3-2c0-.63,0-1.27,0-1.9V9.69c0-.28,0-.57,0-.85,0-.1,0-.2,0-.3V8.39a.91.91,0,0,1-.49.78L58.12,8.09c0,.16,0,.12.06-.11s.08-.27,0-.14a1.63,1.63,0,0,0-.11.17c-.09.17-.16.36-.26.53s-.16.26-.08.14l-.11.14c-.16.21-.33.42-.49.64s-.22.29-.32.44l-.17.22-.08.1a4.59,4.59,0,0,1-.36.41,2.39,2.39,0,0,1-.23.22s-.29.24-.08.08a1.29,1.29,0,0,0-.45,1.71,1.26,1.26,0,0,0,1.71.45,10.74,10.74,0,0,0,2.14-2.37s.22-.29.13-.18.16-.19.18-.22a4.08,4.08,0,0,0,.47-.7,2.89,2.89,0,0,0,.54-1.53A1.28,1.28,0,0,0,60,7a1.24,1.24,0,0,0-1.26,0A1.87,1.87,0,0,0,58,8.87c0,.68,0,1.38,0,2.07v2.15c0,.31,0,.61,0,.91,0,.14,0,.28,0,.41s.06-.17,0,0-.12.24,0,0l1.71-.44-.07,0,.45.45c-.07-.11-.06-.08,0,.09,0-.13-.1-.25-.16-.37a1.66,1.66,0,0,0-.35-.44c-.21-.22-.4-.44-.59-.68s-.67-.77-1-1.14A4.9,4.9,0,0,0,55,10a1.26,1.26,0,0,0-1.25,1.25A1.28,1.28,0,0,0,55,12.51Z" transform="translate(-17.21 -3.75)"/></svg>